<svg width="25" height="24" viewBox="0 0 25 24" fill="none" xmlns="http://www.w3.org/2000/svg">
<path d="M11.0566 11H13.0566H17.0566V13H13.0566H11.0566H7.05664V11H11.0566ZM12.0566 22C6.53364 22 2.05664 17.523 2.05664 12C2.05664 6.477 6.53364 2 12.0566 2C17.5796 2 22.0566 6.477 22.0566 12C22.0566 17.523 17.5796 22 12.0566 22ZM12.0566 20C14.1784 20 16.2132 19.1571 17.7135 17.6569C19.2138 16.1566 20.0566 14.1217 20.0566 12C20.0566 9.87827 19.2138 7.84344 17.7135 6.34315C16.2132 4.84285 14.1784 4 12.0566 4C9.93491 4 7.90008 4.84285 6.39979 6.34315C4.8995 7.84344 4.05664 9.87827 4.05664 12C4.05664 14.1217 4.8995 16.1566 6.39979 17.6569C7.90008 19.1571 9.93491 20 12.0566 20Z" fill="#ED3338"/>
</svg>
