<svg width="30" height="29" viewBox="0 0 30 29" fill="none" xmlns="http://www.w3.org/2000/svg">
<path d="M0 0H26C28.2091 0 30 1.79086 30 4V25C30 27.2091 28.2091 29 26 29H0V0Z" fill="#304087"/>
<path d="M17.8681 9.19986H20.2288C20.3853 9.19986 20.5354 9.26204 20.6461 9.37272C20.7568 9.48339 20.8189 9.63351 20.8189 9.79003V19.2327C20.8189 19.3892 20.7568 19.5393 20.6461 19.65C20.5354 19.7607 20.3853 19.8228 20.2288 19.8228H9.60579C9.44927 19.8228 9.29916 19.7607 9.18848 19.65C9.0778 19.5393 9.01562 19.3892 9.01562 19.2327V9.79003C9.01562 9.63351 9.0778 9.48339 9.18848 9.37272C9.29916 9.26204 9.44927 9.19986 9.60579 9.19986H11.9665V8.01953H13.1468V9.19986H16.6878V8.01953H17.8681V9.19986ZM16.6878 10.3802H13.1468V11.5605H11.9665V10.3802H10.196V12.7409H19.6386V10.3802H17.8681V11.5605H16.6878V10.3802ZM19.6386 13.9212H10.196V18.6425H19.6386V13.9212Z" fill="#EAECF3"/>
</svg>
