<svg width="26" height="26" viewBox="0 0 26 26" fill="none" xmlns="http://www.w3.org/2000/svg">
<path fill-rule="evenodd" clip-rule="evenodd" d="M13 0C5.81994 0 0 5.81994 0 13C0 20.1793 5.81994 26 13 26C20.1793 26 26 20.1801 26 13C26 5.81994 20.1793 0 13 0ZM13 24.375C6.71775 24.375 1.625 19.2822 1.625 13C1.625 6.71775 6.71775 1.625 13 1.625C19.2822 1.625 24.375 6.71775 24.375 13C24.375 19.2822 19.2822 24.375 13 24.375Z" fill="white"/>
<path fill-rule="evenodd" clip-rule="evenodd" d="M18.4673 17.2828L14.187 13.0018L18.4429 8.78082C18.7638 8.46313 18.7638 7.94882 18.4429 7.63194C18.1228 7.31507 17.6028 7.31507 17.2827 7.63194L13.0325 11.8472L8.71891 7.53282C8.39878 7.21107 7.87878 7.21107 7.55866 7.53282C7.23853 7.85375 7.23853 8.37538 7.55866 8.69632L11.8657 13.0042L7.53428 17.2999C7.21416 17.6176 7.21416 18.1319 7.53428 18.4488C7.85441 18.7664 8.37441 18.7664 8.69535 18.4488L13.0211 14.1588L17.3078 18.4455C17.628 18.7673 18.148 18.7673 18.4681 18.4455C18.7874 18.1254 18.7874 17.6046 18.4673 17.2828Z" fill="white"/>
</svg>
