<svg width="41" height="37" viewBox="0 0 41 37" fill="none" xmlns="http://www.w3.org/2000/svg">
<g clip-path="url(#clip0_1230_2564)">
<path d="M38.0277 26.2563H2.40241C1.23956 26.2563 0.296875 27.199 0.296875 28.3619V34.4934C0.296875 35.6563 1.23956 36.5989 2.40241 36.5989H38.0277C39.1905 36.5989 40.1332 35.6563 40.1332 34.4934V28.3619C40.1332 27.199 39.1905 26.2563 38.0277 26.2563Z" fill="white"/>
<path d="M7.64933 34.4395C7.44661 34.4846 7.23918 34.505 7.03156 34.5003C5.21259 34.5003 5.71013 32.1777 4.44028 32.1777H3.80525V34.4567H2.62109V28.3682H4.73169C6.20746 28.3682 6.99682 28.9156 6.99682 30.2819C7.00772 30.6162 6.91337 30.9455 6.72709 31.2233C6.5408 31.5011 6.27199 31.7134 5.95858 31.8303C6.57635 32.3434 6.6113 33.5265 7.40003 33.5265H7.64869L7.64933 34.4395ZM4.59482 31.2736C5.30692 31.2736 5.83036 30.943 5.83036 30.3166C5.83036 29.7077 5.40924 29.3424 4.68915 29.3424H3.80483V31.2736H4.59482Z" fill="#304087"/>
<path d="M8.21484 34.4572V28.3682H10.4888C11.7159 28.3682 12.428 28.8379 12.428 29.9774C12.428 31.0561 11.793 31.2386 11.4927 31.2386V31.2561C11.8683 31.2779 12.22 31.4476 12.4708 31.7279C12.7217 32.0083 12.8512 32.3766 12.8312 32.7523C12.8312 34.0224 11.8444 34.4578 10.7375 34.4578L8.21484 34.4572ZM10.3513 30.9083C10.9948 30.9083 11.2093 30.5864 11.2093 30.1166C11.2093 29.6294 10.8918 29.3424 10.1884 29.3424H9.399V30.9083H10.3513ZM10.4802 33.4829C11.0723 33.4829 11.5184 33.2915 11.5184 32.6218C11.5184 31.9954 11.0636 31.752 10.4545 31.752H9.399V33.4829H10.4802Z" fill="#304087"/>
<path d="M13.5781 34.4572V28.3682H14.7623V33.4829H17.4136V34.4572H13.5781Z" fill="#304087"/>
<path d="M23.2643 33.3856C23.0303 33.7383 22.7109 34.0261 22.3359 34.2223C21.9609 34.4185 21.5423 34.5167 21.1192 34.5077C19.4979 34.5077 18.3398 33.4987 18.3398 31.4283C18.3398 29.358 19.3865 28.0864 20.9741 28.0864C23.0506 28.0864 23.2394 30.0974 23.2394 30.3846L22.2441 30.5585C22.2441 30.5585 22.202 29.0425 20.9829 29.0425C20.1249 29.0425 19.4556 29.914 19.4556 31.4277C19.4556 32.9586 20.2879 33.5501 21.1716 33.5501C22.0812 33.5501 22.6303 32.715 22.6303 32.715L23.2643 33.3856Z" fill="#ED3338"/>
<path d="M27.5458 34.4391C27.3974 34.4778 27.2444 34.4953 27.0911 34.4914C26.6106 34.4914 26.293 34.2387 26.293 33.8041V33.7866C26.2244 33.934 25.9242 34.5086 25.0146 34.5086C24.2081 34.5086 23.3672 33.8559 23.3672 32.3774C23.3672 30.8117 24.1738 30.2114 25.0746 30.2114C25.3039 30.2123 25.5305 30.2607 25.7402 30.3535C25.9499 30.4463 26.138 30.5815 26.2928 30.7507V30.2634H27.1932V33.2819C27.1932 33.5346 27.2789 33.6734 27.545 33.6734L27.5458 34.4391ZM26.173 31.8556C26.1389 31.6461 26.031 31.4555 25.8689 31.3184C25.7068 31.1813 25.5011 31.1065 25.2887 31.1076C24.7653 31.1076 24.3791 31.5164 24.3791 32.3601C24.3791 33.2386 24.8253 33.6127 25.2971 33.6127C26.0522 33.6127 26.1638 32.8038 26.1724 32.8299L26.173 31.8556Z" fill="#ED3338"/>
<path d="M28.0354 34.4554V31.4369C28.0354 31.1933 27.9582 31.0454 27.6836 31.0454V30.2801C27.8256 30.2391 27.9734 30.2214 28.1211 30.2279C28.5673 30.2279 28.9105 30.4715 28.9105 30.9227V31.001C29.0305 30.6182 29.3737 30.2095 30.1546 30.2095C30.3759 30.1983 30.596 30.2493 30.7897 30.3569L30.3686 31.279C30.218 31.1834 30.0412 31.1378 29.8632 31.1486C29.2884 31.1486 29.0652 31.6792 29.0566 32.062V34.4541L28.0354 34.4554Z" fill="#ED3338"/>
<path d="M31.5533 32.5408V32.5583C31.5466 32.702 31.5696 32.8455 31.6209 32.9799C31.6721 33.1144 31.7505 33.2368 31.8511 33.3396C31.9517 33.4424 32.0724 33.5235 32.2057 33.5776C32.339 33.6318 32.482 33.6579 32.6258 33.6544C32.8278 33.6539 33.0267 33.6037 33.2047 33.5083C33.3828 33.4128 33.5346 33.275 33.6468 33.107L34.1789 33.6544C34.1789 33.6544 33.7327 34.5067 32.4799 34.5067C31.3903 34.5067 30.5234 33.7936 30.5234 32.3591C30.5234 30.9934 31.1928 30.2114 32.454 30.2114C33.7152 30.2114 34.11 31.0987 34.11 31.612C34.11 32.4646 33.5095 32.6907 32.5483 32.6907C32.2108 32.6941 31.8748 32.6435 31.5533 32.5408ZM32.3942 32.0355C32.8317 32.0355 33.1665 31.9658 33.1665 31.6527C33.1665 31.4177 32.9433 31.0351 32.4028 31.0351C32.2926 31.0296 32.1824 31.0472 32.0793 31.0867C31.9763 31.1262 31.8826 31.1868 31.8042 31.2646C31.7259 31.3424 31.6647 31.4356 31.6244 31.5384C31.5842 31.6412 31.5658 31.7513 31.5705 31.8615C31.8252 31.9906 32.1091 32.0508 32.3942 32.0363V32.0355Z" fill="#ED3338"/>
<path d="M36.8121 31.8032C36.8356 31.7005 36.8471 31.5955 36.8464 31.4901C36.8464 31.2204 36.6569 31.0117 36.1257 31.0117C35.6538 31.0117 35.422 31.1945 35.422 31.5076C35.422 32.421 37.8246 31.6642 37.8246 33.2213C37.8246 34.0041 37.2582 34.5086 36.0743 34.5086C34.5985 34.5086 34.1953 33.6388 34.1953 33.6388L34.7701 33.0472C34.9174 33.2435 35.1076 33.4036 35.3262 33.5152C35.5449 33.6267 35.7861 33.6868 36.0316 33.6908C36.5207 33.6908 36.7352 33.5342 36.7352 33.2733C36.7352 32.5252 34.3928 33.1341 34.3928 31.5335C34.3928 30.8551 34.8476 30.2114 36.1088 30.2114C37.3873 30.2114 37.7735 30.8117 37.7735 31.4032C37.7747 31.5395 37.7514 31.675 37.7048 31.8032H36.8121Z" fill="#ED3338"/>
<path d="M28.2874 10.0169H28.2735V5.98082H28.2874C28.4152 4.48084 27.9947 2.36898 26.9712 1.48487C26.0085 0.653393 24.6292 0.444102 23.4202 0.441154C18.628 0.429363 13.8357 0.429787 9.04338 0.44242C8.46541 0.443683 7.88786 0.531905 7.30989 0.574858C5.21699 0.730247 3.60415 2.72608 3.6252 4.96174C3.65489 7.97266 3.62099 10.0635 3.63868 13.0746C3.62334 13.77 3.77958 14.4584 4.09357 15.079C4.40755 15.6997 4.86962 16.2334 5.43892 16.6329C5.62842 16.7725 5.80991 16.9262 6.00741 17.0837C5.96803 17.2476 5.94425 17.38 5.90445 17.507C5.51535 18.7282 5.11024 19.945 4.73904 21.1723C4.58728 21.6381 4.4904 22.12 4.45037 22.6083C4.42194 23.0953 4.78725 23.3102 5.19657 23.066C5.53974 22.8576 5.85296 22.6035 6.12764 22.3107C7.49329 20.87 8.84736 19.4176 10.1899 17.9535C10.3371 17.7658 10.5289 17.6179 10.7479 17.5232C10.9669 17.4284 11.2061 17.3899 11.4437 17.4112C11.8909 17.4474 18.0713 17.3861 18.0713 17.3861C18.1615 17.4141 18.2554 17.429 18.3499 17.4303C20.3141 17.4514 21.3345 17.4253 22.7445 17.4063C23.3301 17.3985 23.9822 17.3916 24.7979 17.3899C25.0353 17.4067 25.2737 17.3762 25.4992 17.3002C26.9805 16.6523 28.033 15.572 28.2314 13.8783C28.2482 13.7338 28.2617 13.5749 28.2724 13.4075C28.3408 12.3602 28.2992 10.9345 28.2874 10.0169Z" fill="#ED3338"/>
<path d="M4.86733 23.6017C4.71481 23.6029 4.56493 23.562 4.43422 23.4834C4.28805 23.3872 4.17164 23.252 4.0981 23.0932C4.02456 22.9344 3.9968 22.7582 4.01796 22.5845C4.06005 22.062 4.16293 21.5462 4.32452 21.0475C4.57719 20.2101 4.85091 19.366 5.11431 18.5497C5.24064 18.1586 5.36648 17.7674 5.49183 17.3761C5.50383 17.3384 5.51457 17.2973 5.5251 17.2525C5.40761 17.1571 5.29581 17.0668 5.18253 16.9838C4.55749 16.5452 4.05011 15.9594 3.70525 15.2782C3.36038 14.5969 3.18864 13.8412 3.20522 13.0778C3.19721 11.7231 3.19975 10.5451 3.20227 9.40576C3.20522 7.974 3.20816 6.62203 3.19174 4.96666C3.17804 3.77998 3.58511 2.62681 4.34073 1.71171C4.69844 1.26485 5.14325 0.895359 5.64813 0.62567C6.15301 0.355982 6.70744 0.191724 7.27775 0.142871C7.46998 0.128553 7.66854 0.108551 7.86035 0.0889698C8.24419 0.0502279 8.64109 0.0100126 9.0424 0.00917042C14.2641 -0.00262059 18.9681 -0.003041 23.4213 0.00790779C25.087 0.0121189 26.3767 0.398695 27.2549 1.15732C28.3919 2.13934 28.858 4.39479 28.7197 6.01837L28.7073 6.16303V9.58368H28.7157L28.7212 10.0119C28.7231 10.1697 28.726 10.3423 28.7292 10.5257C28.7443 11.4283 28.7633 12.5519 28.7064 13.4364C28.6944 13.6246 28.6803 13.7861 28.6643 13.9301C28.4626 15.6516 27.457 16.92 25.6745 17.6991C25.4015 17.7994 25.1108 17.8424 24.8205 17.8254H24.7994C23.9176 17.8275 23.2413 17.8353 22.7507 17.8418C22.51 17.845 22.2808 17.8483 22.0559 17.8517C20.9416 17.8683 19.9794 17.8827 18.3453 17.8656C18.2336 17.8643 18.1224 17.8497 18.0141 17.822C17.1462 17.8304 11.8501 17.881 11.4086 17.8452C11.2369 17.8292 11.064 17.8578 10.9066 17.9283C10.7492 17.9988 10.6128 18.1088 10.5104 18.2475C9.30896 19.5639 8.01637 20.9504 6.44248 22.6106C6.14025 22.9322 5.79581 23.2113 5.41856 23.4402C5.25267 23.5426 5.06225 23.5984 4.86733 23.6017ZM16.791 0.868018C14.3233 0.868018 11.7537 0.871178 9.04409 0.877284C8.68614 0.877284 8.32715 0.914341 7.94752 0.952662C7.75002 0.973718 7.54579 0.993299 7.34176 1.00846C5.51163 1.14427 4.03922 2.91629 4.05943 4.95824C4.07586 6.61908 4.07291 7.97358 4.06997 9.40787C4.06744 10.5449 4.06512 11.7216 4.07291 13.073C4.05887 13.7004 4.1996 14.3216 4.48266 14.8817C4.76572 15.4418 5.18239 15.9235 5.69586 16.2843C5.83377 16.3854 5.96684 16.4936 6.09591 16.5983C6.1555 16.6467 6.21613 16.6958 6.27825 16.7457L6.4947 16.9179L6.43006 17.1868C6.41764 17.2386 6.4069 17.287 6.39658 17.3342C6.37342 17.4394 6.35152 17.5378 6.31868 17.6409C6.19347 18.034 6.06713 18.4264 5.93968 18.8181C5.67712 19.6307 5.4055 20.4708 5.15473 21.3001C5.01188 21.733 4.92099 22.1814 4.88397 22.6357C4.88123 22.6681 4.88343 22.7006 4.89049 22.7323C4.92026 22.7244 4.94866 22.712 4.97471 22.6955C5.28359 22.5074 5.56556 22.2784 5.81293 22.0146C7.38303 20.3583 8.67203 18.9756 9.86966 17.6635C10.0612 17.4263 10.3082 17.2399 10.5889 17.1209C10.8696 17.0019 11.1753 16.9539 11.4789 16.9811C11.7927 17.0063 15.5906 16.9792 18.0672 16.9545H18.1343L18.1985 16.9743C18.249 16.9903 18.3016 16.9988 18.3546 16.9996C19.9779 17.0166 20.9349 17.0021 22.043 16.9857C22.2681 16.9823 22.4978 16.979 22.7379 16.9756C23.2308 16.9688 23.91 16.9611 24.796 16.959H24.8171C24.9882 16.9711 25.1601 16.9531 25.3249 16.9057C26.8039 16.2587 27.6366 15.2242 27.8 13.8316C27.8152 13.703 27.8278 13.5562 27.839 13.3833C27.8935 12.534 27.875 11.43 27.86 10.543C27.86 10.5131 27.8595 10.4835 27.8585 10.4543H27.8375V5.54778H27.8731C27.8981 4.17645 27.4915 2.51055 26.6855 1.81425C25.9697 1.19522 24.8693 0.8796 23.4171 0.876021C21.2777 0.870757 19.0782 0.868018 16.791 0.868018Z" fill="white"/>
<path d="M12.22 10.2803C12.9671 10.2803 13.5728 9.67465 13.5728 8.92751C13.5728 8.18038 12.9671 7.57471 12.22 7.57471C11.4729 7.57471 10.8672 8.18038 10.8672 8.92751C10.8672 9.67465 11.4729 10.2803 12.22 10.2803Z" fill="white"/>
<path d="M7.41921 10.2803C8.16635 10.2803 8.77202 9.67465 8.77202 8.92751C8.77202 8.18038 8.16635 7.57471 7.41921 7.57471C6.67208 7.57471 6.06641 8.18038 6.06641 8.92751C6.06641 9.67465 6.67208 10.2803 7.41921 10.2803Z" fill="white"/>
<path d="M17.0169 10.2803C17.764 10.2803 18.3697 9.67465 18.3697 8.92751C18.3697 8.18038 17.764 7.57471 17.0169 7.57471C16.2697 7.57471 15.6641 8.18038 15.6641 8.92751C15.6641 9.67465 16.2697 10.2803 17.0169 10.2803Z" fill="white"/>
<path d="M36.8052 9.58616C36.8229 7.80298 35.536 6.21141 33.8667 6.08739C33.4056 6.05307 32.9451 5.98211 32.4842 5.98211C28.662 5.97341 24.8398 5.97341 21.0177 5.98211C20.0536 5.98443 18.9543 6.15056 18.1855 6.81464C17.3692 7.51979 17.085 9.22443 17.1357 10.4004C17.1395 10.4004 17.1395 13.6193 17.1357 13.6193C17.1264 14.3512 17.0936 15.4882 17.1469 16.3237C17.1555 16.4572 17.166 16.5839 17.1795 16.6991C17.3378 18.05 18.1771 18.9116 19.3585 19.4285C19.5384 19.4891 19.7286 19.5134 19.918 19.5001C20.5686 19.5016 21.0888 19.5068 21.5556 19.5131C22.6804 19.5283 30.2124 19.5458 30.5688 19.5169C30.7583 19.5 30.9491 19.5307 31.1237 19.6062C31.2983 19.6817 31.4513 19.7997 31.5688 19.9494C32.6367 21.1197 33.7167 22.2781 34.8088 23.4246C35.0278 23.6581 35.2777 23.8608 35.5514 24.027C35.8784 24.2218 36.1691 24.0501 36.1464 23.6619C36.1145 23.2725 36.0373 22.8882 35.9163 22.5167C35.6202 21.5378 35.297 20.5676 34.9867 19.5934C34.9545 19.4923 34.9359 19.3866 34.9045 19.2565C35.0625 19.1301 35.2065 19.0082 35.3585 18.8969C35.8126 18.5781 36.1811 18.1524 36.4315 17.6574C36.682 17.1623 36.8065 16.6132 36.7943 16.0586C36.8086 13.6551 36.7814 11.9877 36.8052 9.58616Z" fill="#304087"/>
<path d="M35.8122 24.5399C35.641 24.5373 35.4737 24.4885 35.328 24.3986C35.0201 24.2119 34.7391 23.9842 34.4925 23.7219C33.2376 22.3982 32.2063 21.2919 31.2468 20.2408C31.1741 20.1402 31.0765 20.0602 30.9634 20.0089C30.8504 19.9576 30.7259 19.9368 30.6023 19.9484C30.1959 19.9812 22.5315 19.9591 21.5485 19.9459C21.1585 19.9406 20.6208 19.9343 19.9156 19.9328H19.8973C19.6538 19.9469 19.41 19.9101 19.1814 19.8248C17.7297 19.1898 16.9102 18.1547 16.7453 16.7484C16.7316 16.632 16.7203 16.5016 16.7106 16.35C16.6649 15.6411 16.68 14.7431 16.6923 14.0215C16.6946 13.8756 16.6969 13.7379 16.6986 13.6122V13.5372C16.7011 13.0866 16.7009 10.5916 16.6986 10.4189V10.4175C16.6537 9.38028 16.8561 7.38549 17.8987 6.48453C18.6146 5.8655 19.6634 5.54988 21.0134 5.54651C24.564 5.53767 28.3154 5.53809 32.4821 5.54651C32.8063 5.54651 33.1251 5.57936 33.4334 5.60968C33.5858 5.62505 33.7435 5.64105 33.8966 5.65179C35.7583 5.79013 37.2568 7.55562 37.2368 9.58767C37.2238 10.9078 37.2261 11.9863 37.2286 13.1281C37.2305 14.0367 37.2326 14.9759 37.2263 16.0565C37.2398 16.6791 37.0997 17.2954 36.8184 17.851C36.5371 18.4066 36.1232 18.8843 35.6135 19.242C35.5387 19.2967 35.4642 19.3561 35.3871 19.4184C35.3909 19.4321 35.3947 19.4452 35.3987 19.4574C35.4981 19.7694 35.5984 20.0812 35.6996 20.3929C35.9101 21.0445 36.1278 21.7183 36.3302 22.3868C36.4611 22.7909 36.5443 23.209 36.5782 23.6324C36.5951 23.7868 36.5692 23.9429 36.5032 24.0834C36.4372 24.224 36.3338 24.3437 36.2043 24.4294C36.0863 24.5018 35.9506 24.5401 35.8122 24.5399ZM30.6796 19.0771C30.911 19.0786 31.1392 19.1313 31.348 19.2313C31.5567 19.3313 31.7407 19.4763 31.8869 19.6557C32.8426 20.7028 33.8703 21.8053 35.1212 23.1248C35.2956 23.3103 35.4918 23.4741 35.7055 23.6127C35.6707 23.2824 35.6013 22.9567 35.4983 22.6409C35.2985 21.9802 35.082 21.3102 34.8727 20.6617C34.7717 20.3489 34.671 20.0359 34.5708 19.7229C34.5434 19.6366 34.5253 19.5557 34.5064 19.4702C34.4984 19.434 34.4899 19.3959 34.48 19.3553L34.4154 19.0864L34.6319 18.9144C34.6813 18.875 34.7296 18.8358 34.7769 18.7973C34.8803 18.7131 34.9875 18.6263 35.0991 18.5446C35.4997 18.2671 35.8247 17.8938 36.0445 17.4588C36.2643 17.0238 36.372 16.5408 36.3578 16.0536C36.3641 14.9766 36.3622 14.039 36.3601 13.1321C36.3578 11.9876 36.3552 10.9066 36.3685 9.58114C36.3841 7.99799 35.2462 6.62434 33.832 6.51927C33.6681 6.50706 33.5045 6.49064 33.3466 6.47463C33.0462 6.44431 32.7621 6.41547 32.4806 6.41484C28.3155 6.40536 24.5655 6.40515 21.0162 6.41484C19.8792 6.41757 19.0218 6.66224 18.4666 7.14167C17.8156 7.70406 17.5172 9.22994 17.5669 10.3804H17.5656C17.5671 10.397 17.5677 10.4141 17.568 10.432V10.5373C17.568 10.6265 17.568 10.7539 17.568 10.9066C17.568 11.2115 17.568 11.6174 17.568 12.0225C17.568 12.4226 17.568 12.8226 17.568 13.1212C17.568 13.2711 17.568 13.3949 17.568 13.4833V13.5865C17.568 13.5994 17.5675 13.6119 17.5665 13.624C17.5648 13.7503 17.5625 13.8895 17.5599 14.0367C17.5479 14.7427 17.5332 15.6211 17.5766 16.2951C17.5852 16.4313 17.5953 16.5477 17.6071 16.648C17.7351 17.7414 18.3638 18.5206 19.529 19.0302C19.6497 19.0618 19.7747 19.0737 19.8992 19.0653H19.9156C20.6252 19.067 21.1663 19.0731 21.5579 19.0786C22.788 19.0952 30.174 19.1093 30.5311 19.0836C30.5818 19.0787 30.6313 19.0763 30.6796 19.0763V19.0771Z" fill="white"/>
<path d="M21.0391 11.8253V8.64697H21.5568V11.4029H23.028V11.8253H21.0391Z" fill="white"/>
<path d="M23.7498 10.8164V10.8255C23.7439 10.9057 23.7549 10.9863 23.782 11.062C23.8092 11.1377 23.8519 11.2069 23.9075 11.2651C23.963 11.3233 24.0302 11.3692 24.1045 11.3998C24.1789 11.4305 24.2589 11.4452 24.3393 11.443C24.4477 11.4436 24.5546 11.4174 24.6505 11.3667C24.7463 11.316 24.8281 11.2424 24.8886 11.1525L25.1521 11.4159C25.0569 11.5599 24.9252 11.6762 24.7704 11.7527C24.6157 11.8293 24.4434 11.8634 24.2711 11.8517C23.7127 11.8517 23.2539 11.4976 23.2539 10.7303C23.2539 9.99925 23.6118 9.60889 24.253 9.60889C24.9158 9.60889 25.1203 10.0675 25.1203 10.3355C25.1203 10.7804 24.8025 10.8985 24.2991 10.8985C24.1127 10.9013 23.9272 10.8736 23.7498 10.8164ZM24.2265 10.5713C24.4715 10.5713 24.6669 10.5349 24.6669 10.3578C24.6616 10.3061 24.646 10.256 24.6212 10.2103C24.5963 10.1647 24.5626 10.1244 24.5221 10.0919C24.4815 10.0594 24.4349 10.0352 24.385 10.0208C24.335 10.0064 24.2827 10.0021 24.2311 10.0081C24.1692 10.0042 24.1072 10.0133 24.0491 10.0348C23.9909 10.0563 23.9379 10.0897 23.8935 10.1329C23.849 10.1761 23.8141 10.2281 23.7909 10.2856C23.7677 10.343 23.7568 10.4047 23.7588 10.4667C23.9024 10.543 24.064 10.5792 24.2265 10.5713Z" fill="white"/>
<path d="M27.1924 11.6205C27.0382 11.7677 26.8335 11.8505 26.6203 11.8521C26.0308 11.8521 25.7939 11.5344 25.7939 10.953V10.0266H25.457V9.63622H25.7939V8.95508H26.2889V9.63622H27.0835V10.0266H26.2889V10.9347C26.2889 11.2661 26.407 11.4251 26.6749 11.4251C26.8116 11.4257 26.9433 11.3737 27.0427 11.2798L27.1924 11.6205Z" fill="white"/>
<path d="M27.7938 8.56989C27.8406 8.56897 27.887 8.57795 27.93 8.59623C27.9731 8.61452 28.0118 8.6417 28.0436 8.676C28.0754 8.7103 28.0996 8.75093 28.1146 8.79524C28.1296 8.83955 28.1351 8.88653 28.1307 8.9331C28.1307 9.58686 27.6674 9.74584 27.6674 9.74584L27.5312 9.52791C27.5312 9.52791 27.7946 9.39168 27.7946 9.18281C27.7147 9.18072 27.6388 9.14751 27.5831 9.09027C27.5273 9.03302 27.4961 8.95627 27.4961 8.87635C27.4961 8.79644 27.5273 8.71968 27.5831 8.66244C27.6388 8.60519 27.7147 8.57198 27.7946 8.56989H27.7938Z" fill="white"/>
<path d="M29.7613 10.4355C29.774 10.3803 29.78 10.3237 29.7794 10.2671C29.7794 10.1174 29.6703 9.99925 29.3663 9.99925C29.0938 9.99925 28.9576 10.1045 28.9576 10.2763C28.9576 10.7802 30.247 10.3671 30.247 11.1935C30.247 11.5936 29.9565 11.8517 29.348 11.8517C28.5807 11.8517 28.3672 11.4068 28.3672 11.4068L28.6487 11.112C28.7273 11.2177 28.8293 11.3038 28.9466 11.3637C29.0639 11.4236 29.1935 11.4555 29.3252 11.4571C29.6067 11.4571 29.7339 11.3664 29.7339 11.2165C29.7339 10.7943 28.4706 11.1392 28.4706 10.29C28.4706 9.9403 28.7066 9.60889 29.356 9.60889C30.0234 9.60889 30.2276 9.92219 30.2276 10.2264C30.2283 10.2977 30.216 10.3684 30.1914 10.4353L29.7613 10.4355Z" fill="white"/>
<path d="M22.769 15.7364C22.6738 15.8804 22.5421 15.9967 22.3874 16.0732C22.2326 16.1498 22.0603 16.184 21.8881 16.1722C21.3297 16.1722 20.8711 15.8181 20.8711 15.0508C20.8711 14.3335 21.2252 13.9292 21.8927 13.9292C22.4694 13.9292 22.7282 14.2606 22.7282 14.6284C22.73 14.7131 22.7178 14.7975 22.6919 14.8782H22.2561C22.2731 14.8268 22.2823 14.7733 22.2835 14.7192C22.287 14.668 22.2791 14.6167 22.2604 14.5689C22.2416 14.5211 22.2125 14.4781 22.1752 14.4429C22.1378 14.4077 22.0931 14.3813 22.0443 14.3654C21.9955 14.3496 21.9438 14.3448 21.8929 14.3514C21.5615 14.3514 21.3526 14.5556 21.3526 15.0462C21.3526 15.6002 21.6931 15.7499 21.9565 15.7499C22.064 15.7512 22.1703 15.7262 22.266 15.6772C22.3618 15.6281 22.4441 15.5564 22.5058 15.4683L22.769 15.7364Z" fill="white"/>
<path d="M25.2872 16.1403C25.2158 16.1573 25.1426 16.1649 25.0692 16.1631C24.7745 16.1631 24.6107 15.9997 24.6107 15.6367V14.7922C24.6157 14.7346 24.6084 14.6766 24.5893 14.6221C24.5701 14.5676 24.5395 14.5179 24.4995 14.4761C24.4595 14.4344 24.4111 14.4017 24.3575 14.3803C24.3038 14.3588 24.2462 14.3491 24.1885 14.3517C24.0557 14.3614 23.932 14.4231 23.8444 14.5234C23.7569 14.6238 23.7125 14.7546 23.7209 14.8876V16.1452H23.2305V12.8496H23.7209V14.2843C23.7752 14.1712 23.8622 14.0769 23.9707 14.0138C24.0792 13.9506 24.2041 13.9215 24.3294 13.9302C24.8833 13.9302 25.1012 14.3161 25.1012 14.7934V15.5697C25.1012 15.7013 25.1421 15.7786 25.2874 15.7786L25.2872 16.1403Z" fill="white"/>
<path d="M27.7959 16.1439C27.7245 16.1604 27.6513 16.168 27.578 16.1666C27.3329 16.1666 27.1739 16.035 27.1739 15.8125V15.7897C27.1117 15.9155 27.013 16.0196 26.8907 16.0885C26.7684 16.1573 26.6282 16.1877 26.4884 16.1757C26.0569 16.1757 25.6211 15.8388 25.6211 15.0633C25.6211 14.2506 26.0388 13.9327 26.5155 13.9327C26.64 13.9314 26.7633 13.9571 26.877 14.008C26.9906 14.0589 27.0919 14.1337 27.1739 14.2274V13.9596H27.6098V15.5714C27.6098 15.703 27.6506 15.7803 27.7959 15.7803V16.1439ZM27.1194 14.7637C27.0967 14.6473 27.0338 14.5426 26.9417 14.4678C26.8496 14.3931 26.7341 14.3532 26.6155 14.355C26.325 14.355 26.1024 14.582 26.1024 15.0587C26.1024 15.54 26.3521 15.7535 26.6202 15.7535C26.7402 15.7473 26.8546 15.7009 26.9452 15.6219C27.0357 15.5429 27.0971 15.4357 27.1196 15.3177L27.1194 14.7637Z" fill="white"/>
<path d="M29.833 15.9408C29.6788 16.088 29.4742 16.1708 29.261 16.1724C28.6714 16.1724 28.4345 15.8547 28.4345 15.2733V14.3469H28.0977V13.9565H28.4345V13.2754H28.9296V13.9565H29.7242V14.3469H28.9296V15.255C28.9296 15.5864 29.0477 15.7454 29.3155 15.7454C29.4522 15.746 29.5839 15.694 29.6833 15.6001L29.833 15.9408Z" fill="white"/>
<path d="M30.461 15.5615C30.5422 15.5625 30.6197 15.5955 30.6767 15.6534C30.7336 15.7112 30.7655 15.7892 30.7653 15.8704C30.7632 15.9503 30.73 16.0262 30.6727 16.082C30.6155 16.1377 30.5387 16.1689 30.4588 16.1689C30.3789 16.1689 30.3021 16.1377 30.2449 16.082C30.1876 16.0262 30.1544 15.9503 30.1523 15.8704C30.1524 15.7885 30.1849 15.71 30.2428 15.6521C30.3007 15.5942 30.3792 15.5616 30.461 15.5615Z" fill="white"/>
<path d="M31.5743 15.5615C31.6555 15.5626 31.7329 15.5956 31.7899 15.6534C31.8469 15.7113 31.8787 15.7892 31.8785 15.8704C31.8765 15.9503 31.8432 16.0262 31.786 16.082C31.7288 16.1377 31.652 16.1689 31.5721 16.1689C31.4922 16.1689 31.4154 16.1377 31.3582 16.082C31.3009 16.0262 31.2677 15.9503 31.2656 15.8704C31.2657 15.7885 31.2982 15.71 31.3561 15.6521C31.414 15.5942 31.4924 15.5616 31.5743 15.5615Z" fill="white"/>
<path d="M32.6837 15.5615C32.7649 15.5625 32.8424 15.5955 32.8993 15.6534C32.9563 15.7112 32.9882 15.7892 32.9879 15.8704C32.9879 15.9517 32.9556 16.0296 32.8982 16.0871C32.8407 16.1446 32.7627 16.1769 32.6815 16.1769C32.6002 16.1769 32.5222 16.1446 32.4648 16.0871C32.4073 16.0296 32.375 15.9517 32.375 15.8704C32.3751 15.7885 32.4076 15.71 32.4655 15.6521C32.5233 15.5942 32.6018 15.5616 32.6837 15.5615Z" fill="white"/>
</g>
<defs>
<clipPath id="clip0_1230_2564">
<rect width="39.8363" height="36.2609" fill="white" transform="translate(0.296875)"/>
</clipPath>
</defs>
</svg>
