<svg width="237" height="164" viewBox="0 0 237 164" fill="none" xmlns="http://www.w3.org/2000/svg">
<circle cx="196" cy="32" r="31" fill="white" stroke="url(#paint0_linear_1_2)" stroke-width="2"/>
<g clip-path="url(#clip0_1_2)">
<path d="M214.028 40.2563H178.402C177.24 40.2563 176.297 41.199 176.297 42.3619V48.4934C176.297 49.6563 177.24 50.5989 178.402 50.5989H214.028C215.191 50.5989 216.133 49.6563 216.133 48.4934V42.3619C216.133 41.199 215.191 40.2563 214.028 40.2563Z" fill="white"/>
<path d="M183.649 48.4393C183.447 48.4844 183.239 48.5048 183.032 48.5001C181.213 48.5001 181.71 46.1775 180.44 46.1775H179.805V48.4565H178.621V42.368H180.732C182.207 42.368 182.997 42.9154 182.997 44.2817C183.008 44.616 182.913 44.9453 182.727 45.2231C182.541 45.5009 182.272 45.7132 181.959 45.8301C182.576 46.3432 182.611 47.5263 183.4 47.5263H183.649L183.649 48.4393ZM180.595 45.2734C181.307 45.2734 181.83 44.9428 181.83 44.3164C181.83 43.7075 181.409 43.3422 180.689 43.3422H179.805V45.2734H180.595Z" fill="#304087"/>
<path d="M184.215 48.4569V42.3679H186.489C187.716 42.3679 188.428 42.8377 188.428 43.9772C188.428 45.0559 187.793 45.2384 187.493 45.2384V45.2559C187.868 45.2777 188.22 45.4473 188.471 45.7277C188.722 46.0081 188.851 46.3764 188.831 46.7521C188.831 48.0221 187.844 48.4576 186.737 48.4576L184.215 48.4569ZM186.351 44.908C186.995 44.908 187.209 44.5861 187.209 44.1164C187.209 43.6291 186.892 43.3422 186.188 43.3422H185.399V44.908H186.351ZM186.48 47.4827C187.072 47.4827 187.518 47.2913 187.518 46.6215C187.518 45.9951 187.064 45.7517 186.455 45.7517H185.399V47.4827H186.48Z" fill="#304087"/>
<path d="M189.578 48.4569V42.3679H190.762V47.4827H193.414V48.4569H189.578Z" fill="#304087"/>
<path d="M199.264 47.3856C199.03 47.7383 198.711 48.0261 198.336 48.2223C197.961 48.4185 197.542 48.5167 197.119 48.5077C195.498 48.5077 194.34 47.4987 194.34 45.4283C194.34 43.358 195.387 42.0864 196.974 42.0864C199.051 42.0864 199.239 44.0974 199.239 44.3846L198.244 44.5585C198.244 44.5585 198.202 43.0425 196.983 43.0425C196.125 43.0425 195.456 43.914 195.456 45.4277C195.456 46.9586 196.288 47.5501 197.172 47.5501C198.081 47.5501 198.63 46.715 198.63 46.715L199.264 47.3856Z" fill="#ED3338"/>
<path d="M203.546 48.4391C203.397 48.4778 203.244 48.4953 203.091 48.4914C202.611 48.4914 202.293 48.2387 202.293 47.8041V47.7866C202.224 47.934 201.924 48.5086 201.015 48.5086C200.208 48.5086 199.367 47.8559 199.367 46.3774C199.367 44.8117 200.174 44.2114 201.075 44.2114C201.304 44.2123 201.53 44.2607 201.74 44.3535C201.95 44.4463 202.138 44.5815 202.293 44.7507V44.2634H203.193V47.2819C203.193 47.5346 203.279 47.6734 203.545 47.6734L203.546 48.4391ZM202.173 45.8556C202.139 45.6461 202.031 45.4555 201.869 45.3184C201.707 45.1813 201.501 45.1065 201.289 45.1076C200.765 45.1076 200.379 45.5164 200.379 46.3601C200.379 47.2386 200.825 47.6127 201.297 47.6127C202.052 47.6127 202.164 46.8038 202.172 46.8299L202.173 45.8556Z" fill="#ED3338"/>
<path d="M204.035 48.4554V45.4369C204.035 45.1933 203.958 45.0454 203.684 45.0454V44.2801C203.826 44.2391 203.973 44.2214 204.121 44.2279C204.567 44.2279 204.91 44.4715 204.91 44.9227V45.001C205.03 44.6182 205.374 44.2095 206.155 44.2095C206.376 44.1983 206.596 44.2493 206.79 44.3569L206.369 45.279C206.218 45.1834 206.041 45.1378 205.863 45.1486C205.288 45.1486 205.065 45.6792 205.057 46.062V48.4541L204.035 48.4554Z" fill="#ED3338"/>
<path d="M207.553 46.5408V46.5583C207.547 46.702 207.57 46.8455 207.621 46.9799C207.672 47.1144 207.751 47.2368 207.851 47.3396C207.952 47.4424 208.072 47.5235 208.206 47.5776C208.339 47.6318 208.482 47.6579 208.626 47.6544C208.828 47.6539 209.027 47.6037 209.205 47.5083C209.383 47.4128 209.535 47.275 209.647 47.107L210.179 47.6544C210.179 47.6544 209.733 48.5067 208.48 48.5067C207.39 48.5067 206.523 47.7936 206.523 46.3591C206.523 44.9934 207.193 44.2114 208.454 44.2114C209.715 44.2114 210.11 45.0987 210.11 45.612C210.11 46.4646 209.51 46.6907 208.548 46.6907C208.211 46.6941 207.875 46.6435 207.553 46.5408ZM208.394 46.0355C208.832 46.0355 209.167 45.9658 209.167 45.6527C209.167 45.4177 208.943 45.0351 208.403 45.0351C208.293 45.0296 208.182 45.0472 208.079 45.0867C207.976 45.1262 207.883 45.1868 207.804 45.2646C207.726 45.3424 207.665 45.4356 207.624 45.5384C207.584 45.6412 207.566 45.7513 207.571 45.8615C207.825 45.9906 208.109 46.0508 208.394 46.0363V46.0355Z" fill="#ED3338"/>
<path d="M212.812 45.8032C212.836 45.7005 212.847 45.5955 212.846 45.4901C212.846 45.2204 212.657 45.0117 212.126 45.0117C211.654 45.0117 211.422 45.1945 211.422 45.5076C211.422 46.421 213.825 45.6642 213.825 47.2213C213.825 48.0041 213.258 48.5086 212.074 48.5086C210.599 48.5086 210.195 47.6388 210.195 47.6388L210.77 47.0472C210.917 47.2435 211.108 47.4036 211.326 47.5152C211.545 47.6267 211.786 47.6868 212.032 47.6908C212.521 47.6908 212.735 47.5342 212.735 47.2733C212.735 46.5252 210.393 47.1341 210.393 45.5335C210.393 44.8551 210.848 44.2114 212.109 44.2114C213.387 44.2114 213.773 44.8117 213.773 45.4032C213.775 45.5395 213.751 45.675 213.705 45.8032H212.812Z" fill="#ED3338"/>
<path d="M204.287 24.0168H204.273V19.9807H204.287C204.415 18.4807 203.995 16.3688 202.971 15.4847C202.009 14.6532 200.629 14.4439 199.42 14.441C194.628 14.4292 189.836 14.4296 185.043 14.4423C184.465 14.4435 183.888 14.5317 183.31 14.5747C181.217 14.7301 179.604 16.7259 179.625 18.9616C179.655 21.9725 179.621 24.0633 179.639 27.0744C179.623 27.7698 179.78 28.4582 180.094 29.0789C180.408 29.6995 180.87 30.2332 181.439 30.6328C181.628 30.7724 181.81 30.9261 182.007 31.0836C181.968 31.2474 181.944 31.3798 181.904 31.5068C181.515 32.728 181.11 33.9448 180.739 35.1721C180.587 35.6379 180.49 36.1198 180.45 36.6081C180.422 37.0951 180.787 37.3101 181.197 37.0658C181.54 36.8575 181.853 36.6034 182.128 36.3106C183.493 34.8698 184.847 33.4174 186.19 31.9534C186.337 31.7657 186.529 31.6177 186.748 31.523C186.967 31.4283 187.206 31.3898 187.444 31.411C187.891 31.4472 194.071 31.3859 194.071 31.3859C194.162 31.414 194.255 31.4289 194.35 31.4302C196.314 31.4512 197.334 31.4251 198.745 31.4062C199.33 31.3984 199.982 31.3914 200.798 31.3897C201.035 31.4065 201.274 31.376 201.499 31.3C202.98 30.6522 204.033 29.5718 204.231 27.8781C204.248 27.7337 204.262 27.5747 204.272 27.4073C204.341 26.36 204.299 24.9344 204.287 24.0168Z" fill="#ED3338"/>
<path d="M180.867 37.6018C180.715 37.603 180.565 37.5621 180.434 37.4835C180.288 37.3872 180.172 37.2521 180.098 37.0933C180.025 36.9345 179.997 36.7583 180.018 36.5846C180.06 36.0621 180.163 35.5463 180.325 35.0476C180.577 34.2102 180.851 33.3661 181.114 32.5498C181.241 32.1587 181.366 31.7675 181.492 31.3761C181.504 31.3385 181.515 31.2974 181.525 31.2525C181.408 31.1572 181.296 31.0668 181.183 30.9839C180.557 30.5453 180.05 29.9595 179.705 29.2782C179.36 28.597 179.189 27.8413 179.205 27.0779C179.197 25.7232 179.2 24.5452 179.202 23.4058C179.205 21.9741 179.208 20.6221 179.192 18.9667C179.178 17.7801 179.585 16.6269 180.341 15.7118C180.698 15.2649 181.143 14.8954 181.648 14.6258C182.153 14.3561 182.707 14.1918 183.278 14.143C183.47 14.1286 183.669 14.1086 183.86 14.0891C184.244 14.0503 184.641 14.0101 185.042 14.0093C190.264 13.9975 194.968 13.997 199.421 14.008C201.087 14.0122 202.377 14.3988 203.255 15.1574C204.392 16.1394 204.858 18.3949 204.72 20.0185L204.707 20.1631V23.5838H204.716L204.721 24.012C204.723 24.1697 204.726 24.3424 204.729 24.5258C204.744 25.4284 204.763 26.5519 204.706 27.4365C204.694 27.6247 204.68 27.7862 204.664 27.9302C204.463 29.6517 203.457 30.9201 201.674 31.6991C201.402 31.7995 201.111 31.8425 200.82 31.8255H200.799C199.918 31.8276 199.241 31.8354 198.751 31.8419C198.51 31.8451 198.281 31.8484 198.056 31.8518C196.942 31.8684 195.979 31.8827 194.345 31.8657C194.234 31.8644 194.122 31.8497 194.014 31.8221C193.146 31.8305 187.85 31.8811 187.409 31.8453C187.237 31.8293 187.064 31.8579 186.907 31.9284C186.749 31.9989 186.613 32.1089 186.51 32.2476C185.309 33.564 184.016 34.9505 182.442 36.6107C182.14 36.9323 181.796 37.2113 181.419 37.4403C181.253 37.5427 181.062 37.5985 180.867 37.6018V37.6018ZM192.791 14.8681C190.323 14.8681 187.754 14.8713 185.044 14.8774C184.686 14.8774 184.327 14.9144 183.948 14.9527C183.75 14.9738 183.546 14.9934 183.342 15.0085C181.512 15.1443 180.039 16.9164 180.059 18.9583C180.076 20.6192 180.073 21.9737 180.07 23.408C180.067 24.5449 180.065 25.7217 180.073 27.0731C180.059 27.7005 180.2 28.3217 180.483 28.8818C180.766 29.4419 181.182 29.9236 181.696 30.2844C181.834 30.3855 181.967 30.4937 182.096 30.5984C182.155 30.6468 182.216 30.6958 182.278 30.7458L182.495 30.918L182.43 31.1869C182.418 31.2387 182.407 31.2871 182.397 31.3342C182.373 31.4395 182.352 31.5379 182.319 31.641C182.193 32.0341 182.067 32.4265 181.94 32.8182C181.677 33.6308 181.406 34.4709 181.155 35.3002C181.012 35.7331 180.921 36.1814 180.884 36.6358C180.881 36.6681 180.883 36.7007 180.89 36.7324C180.92 36.7245 180.949 36.712 180.975 36.6956C181.284 36.5075 181.566 36.2784 181.813 36.0146C183.383 34.3584 184.672 32.9757 185.87 31.6636C186.061 31.4264 186.308 31.24 186.589 31.121C186.87 31.002 187.175 30.9539 187.479 30.9811C187.793 31.0064 191.591 30.9793 194.067 30.9546H194.134L194.199 30.9744C194.249 30.9904 194.302 30.9989 194.355 30.9997C195.978 31.0167 196.935 31.0022 198.043 30.9858C198.268 30.9824 198.498 30.979 198.738 30.9757C199.231 30.9689 199.91 30.9611 200.796 30.959H200.817C200.988 30.9712 201.16 30.9531 201.325 30.9058C202.804 30.2587 203.637 29.2243 203.8 27.8317C203.815 27.703 203.828 27.5563 203.839 27.3834C203.893 26.534 203.875 25.4301 203.86 24.543C203.86 24.5131 203.86 24.4836 203.859 24.4544H203.837V19.5479H203.873C203.898 18.1765 203.492 16.5106 202.686 15.8143C201.97 15.1953 200.869 14.8797 199.417 14.8761C197.278 14.8708 195.078 14.8681 192.791 14.8681Z" fill="white"/>
<path d="M188.22 24.2804C188.967 24.2804 189.573 23.6747 189.573 22.9276C189.573 22.1805 188.967 21.5748 188.22 21.5748C187.473 21.5748 186.867 22.1805 186.867 22.9276C186.867 23.6747 187.473 24.2804 188.22 24.2804Z" fill="white"/>
<path d="M183.419 24.2804C184.166 24.2804 184.772 23.6747 184.772 22.9276C184.772 22.1805 184.166 21.5748 183.419 21.5748C182.672 21.5748 182.066 22.1805 182.066 22.9276C182.066 23.6747 182.672 24.2804 183.419 24.2804Z" fill="white"/>
<path d="M193.017 24.2804C193.764 24.2804 194.37 23.6747 194.37 22.9276C194.37 22.1805 193.764 21.5748 193.017 21.5748C192.27 21.5748 191.664 22.1805 191.664 22.9276C191.664 23.6747 192.27 24.2804 193.017 24.2804Z" fill="white"/>
<path d="M212.805 23.5867C212.823 21.8036 211.536 20.212 209.867 20.088C209.406 20.0536 208.945 19.9827 208.484 19.9827C204.662 19.974 200.84 19.974 197.018 19.9827C196.054 19.985 194.954 20.1511 194.186 20.8152C193.369 21.5204 193.085 23.225 193.136 24.4009C193.139 24.4009 193.139 27.6199 193.136 27.6199C193.126 28.3518 193.094 29.4888 193.147 30.3242C193.155 30.4577 193.166 30.5845 193.179 30.6997C193.338 32.0506 194.177 32.9122 195.359 33.4291C195.538 33.4897 195.729 33.514 195.918 33.5007C196.569 33.5021 197.089 33.5074 197.556 33.5137C198.68 33.5289 206.212 33.5463 206.569 33.5175C206.758 33.5006 206.949 33.5312 207.124 33.6068C207.298 33.6823 207.451 33.8003 207.569 33.95C208.637 35.1202 209.717 36.2786 210.809 37.4252C211.028 37.6587 211.278 37.8614 211.551 38.0276C211.878 38.2223 212.169 38.0507 212.146 37.6625C212.114 37.2731 212.037 36.8887 211.916 36.5173C211.62 35.5384 211.297 34.5682 210.987 33.5939C210.954 33.4929 210.936 33.3872 210.905 33.257C211.062 33.1307 211.206 33.0088 211.359 32.8974C211.813 32.5787 212.181 32.153 212.432 31.6579C212.682 31.1629 212.807 30.6138 212.794 30.0592C212.809 27.6557 212.781 25.9883 212.805 23.5867Z" fill="#304087"/>
<path d="M211.812 38.5403C211.641 38.5376 211.474 38.4888 211.328 38.399C211.02 38.2122 210.739 37.9846 210.492 37.7223C209.238 36.3985 208.206 35.2923 207.247 34.2412C207.174 34.1405 207.076 34.0606 206.963 34.0093C206.85 33.958 206.726 33.9371 206.602 33.9487C206.196 33.9816 198.532 33.9595 197.548 33.9462C197.159 33.9409 196.621 33.9346 195.916 33.9331H195.897C195.654 33.9472 195.41 33.9104 195.181 33.8251C193.73 33.1901 192.91 32.155 192.745 30.7487C192.732 30.6323 192.72 30.5019 192.711 30.3504C192.665 29.6414 192.68 28.7434 192.692 28.0218C192.695 27.8759 192.697 27.7382 192.699 27.6125V27.5376C192.701 27.087 192.701 24.5919 192.699 24.4193V24.4178C192.654 23.3806 192.856 21.3858 193.899 20.4849C194.615 19.8658 195.663 19.5502 197.013 19.5468C200.564 19.538 204.315 19.5384 208.482 19.5468C208.806 19.5468 209.125 19.5797 209.433 19.61C209.586 19.6254 209.744 19.6414 209.897 19.6521C211.758 19.7905 213.257 21.5559 213.237 23.588C213.224 24.9082 213.226 25.9866 213.229 27.1285C213.231 28.037 213.233 28.9763 213.226 30.0568C213.24 30.6794 213.1 31.2957 212.818 31.8513C212.537 32.4069 212.123 32.8846 211.613 33.2423C211.539 33.297 211.464 33.3564 211.387 33.4187C211.391 33.4324 211.395 33.4455 211.399 33.4577C211.498 33.7697 211.598 34.0816 211.7 34.3932C211.91 35.0449 212.128 35.7186 212.33 36.3871C212.461 36.7913 212.544 37.2093 212.578 37.6328C212.595 37.7871 212.569 37.9432 212.503 38.0838C212.437 38.2244 212.334 38.3441 212.204 38.4297C212.086 38.5021 211.951 38.5404 211.812 38.5403V38.5403ZM206.68 33.0774C206.911 33.079 207.139 33.1316 207.348 33.2316C207.557 33.3317 207.741 33.4766 207.887 33.656C208.843 34.7031 209.87 35.8056 211.121 37.1251C211.296 37.3107 211.492 37.4745 211.705 37.613C211.671 37.2827 211.601 36.957 211.498 36.6413C211.298 35.9806 211.082 35.3106 210.873 34.6621C210.772 34.3492 210.671 34.0362 210.571 33.7232C210.543 33.6369 210.525 33.556 210.506 33.4705C210.498 33.4343 210.49 33.3962 210.48 33.3556L210.415 33.0867L210.632 32.9147C210.681 32.8753 210.73 32.8361 210.777 32.7976C210.88 32.7134 210.987 32.6266 211.099 32.545C211.5 32.2674 211.825 31.8941 212.044 31.4591C212.264 31.0241 212.372 30.5411 212.358 30.0539C212.364 28.9769 212.362 28.0393 212.36 27.1325C212.358 25.9879 212.355 24.9069 212.368 23.5815C212.384 21.9983 211.246 20.6247 209.832 20.5196C209.668 20.5074 209.505 20.491 209.347 20.475C209.046 20.4446 208.762 20.4158 208.481 20.4152C204.315 20.4057 200.565 20.4055 197.016 20.4152C195.879 20.4179 195.022 20.6626 194.467 21.142C193.816 21.7044 193.517 23.2303 193.567 24.3807H193.566C193.567 24.3974 193.568 24.4144 193.568 24.4323V24.5376C193.568 24.6269 193.568 24.7543 193.568 24.9069C193.568 25.2118 193.568 25.6177 193.568 26.0228C193.568 26.4229 193.568 26.8229 193.568 27.1215C193.568 27.2714 193.568 27.3952 193.568 27.4837V27.5868C193.568 27.5997 193.567 27.6122 193.566 27.6243C193.565 27.7506 193.562 27.8898 193.56 28.037C193.548 28.743 193.533 29.6214 193.577 30.2954C193.585 30.4316 193.595 30.5481 193.607 30.6483C193.735 31.7417 194.364 32.5209 195.529 33.0305C195.65 33.0621 195.775 33.074 195.899 33.0657H195.916C196.625 33.0673 197.166 33.0734 197.558 33.0789C198.788 33.0955 206.174 33.1097 206.531 33.084C206.582 33.0791 206.631 33.0766 206.68 33.0766V33.0774Z" fill="white"/>
<path d="M197.039 25.8256V22.6473H197.557V25.4032H199.028V25.8256H197.039Z" fill="white"/>
<path d="M199.75 24.8167V24.8258C199.744 24.906 199.755 24.9866 199.782 25.0623C199.809 25.138 199.852 25.2072 199.907 25.2654C199.963 25.3236 200.03 25.3695 200.105 25.4001C200.179 25.4308 200.259 25.4455 200.339 25.4433C200.448 25.4439 200.555 25.4177 200.65 25.367C200.746 25.3163 200.828 25.2427 200.889 25.1528L201.152 25.4162C201.057 25.5602 200.925 25.6765 200.77 25.7531C200.616 25.8296 200.443 25.8638 200.271 25.852C199.713 25.852 199.254 25.4979 199.254 24.7306C199.254 23.9996 199.612 23.6092 200.253 23.6092C200.916 23.6092 201.12 24.0678 201.12 24.3358C201.12 24.7807 200.803 24.8989 200.299 24.8989C200.113 24.9016 199.927 24.8739 199.75 24.8167V24.8167ZM200.226 24.5717C200.472 24.5717 200.667 24.5352 200.667 24.3582C200.662 24.3064 200.646 24.2563 200.621 24.2107C200.596 24.165 200.563 24.1248 200.522 24.0922C200.482 24.0597 200.435 24.0355 200.385 24.0211C200.335 24.0068 200.283 24.0024 200.231 24.0084C200.169 24.0045 200.107 24.0136 200.049 24.0351C199.991 24.0566 199.938 24.09 199.893 24.1332C199.849 24.1764 199.814 24.2284 199.791 24.2859C199.768 24.3434 199.757 24.4051 199.759 24.467C199.902 24.5433 200.064 24.5795 200.226 24.5717V24.5717Z" fill="white"/>
<path d="M203.192 25.621C203.038 25.7683 202.834 25.8511 202.62 25.8527C202.031 25.8527 201.794 25.5349 201.794 24.9536V24.0272H201.457V23.6368H201.794V22.9557H202.289V23.6368H203.084V24.0272H202.289V24.9353C202.289 25.2667 202.407 25.4257 202.675 25.4257C202.812 25.4262 202.943 25.3742 203.043 25.2804L203.192 25.621Z" fill="white"/>
<path d="M203.794 22.5702C203.841 22.5693 203.887 22.5783 203.93 22.5966C203.973 22.6148 204.012 22.642 204.044 22.6763C204.075 22.7106 204.1 22.7513 204.115 22.7956C204.13 22.8399 204.135 22.8869 204.131 22.9334C204.131 23.5872 203.667 23.7462 203.667 23.7462L203.531 23.5282C203.531 23.5282 203.795 23.392 203.795 23.1831C203.715 23.181 203.639 23.1478 203.583 23.0906C203.527 23.0333 203.496 22.9566 203.496 22.8767C203.496 22.7968 203.527 22.72 203.583 22.6628C203.639 22.6055 203.715 22.5723 203.795 22.5702H203.794Z" fill="white"/>
<path d="M205.761 24.4358C205.774 24.3806 205.78 24.3241 205.779 24.2674C205.779 24.1177 205.67 23.9996 205.366 23.9996C205.094 23.9996 204.958 24.1049 204.958 24.2767C204.958 24.7805 206.247 24.3674 206.247 25.1938C206.247 25.5939 205.956 25.852 205.348 25.852C204.581 25.852 204.367 25.4071 204.367 25.4071L204.649 25.1124C204.727 25.218 204.829 25.3042 204.947 25.364C205.064 25.4239 205.194 25.4559 205.325 25.4575C205.607 25.4575 205.734 25.3667 205.734 25.2168C205.734 24.7946 204.471 25.1395 204.471 24.2904C204.471 23.9406 204.707 23.6092 205.356 23.6092C206.023 23.6092 206.228 23.9225 206.228 24.2268C206.228 24.298 206.216 24.3688 206.191 24.4356L205.761 24.4358Z" fill="white"/>
<path d="M198.769 29.7366C198.674 29.8807 198.542 29.9969 198.387 30.0735C198.233 30.1501 198.06 30.1842 197.888 30.1725C197.33 30.1725 196.871 29.8183 196.871 29.0511C196.871 28.3337 197.225 27.9295 197.893 27.9295C198.469 27.9295 198.728 28.2609 198.728 28.6287C198.73 28.7134 198.718 28.7978 198.692 28.8784H198.256C198.273 28.8271 198.282 28.7735 198.283 28.7195C198.287 28.6683 198.279 28.6169 198.26 28.5691C198.242 28.5214 198.213 28.4783 198.175 28.4432C198.138 28.408 198.093 28.3815 198.044 28.3657C197.996 28.3499 197.944 28.3451 197.893 28.3516C197.561 28.3516 197.353 28.5559 197.353 29.0464C197.353 29.6004 197.693 29.7501 197.956 29.7501C198.064 29.7514 198.17 29.7265 198.266 29.6774C198.362 29.6284 198.444 29.5567 198.506 29.4686L198.769 29.7366Z" fill="white"/>
<path d="M201.287 30.1409C201.216 30.1579 201.143 30.1655 201.069 30.1637C200.774 30.1637 200.611 30.0003 200.611 29.6373V28.7927C200.616 28.7352 200.608 28.6772 200.589 28.6227C200.57 28.5682 200.54 28.5184 200.5 28.4767C200.46 28.435 200.411 28.4023 200.357 28.3809C200.304 28.3594 200.246 28.3496 200.188 28.3523C200.056 28.3619 199.932 28.4237 199.844 28.524C199.757 28.6243 199.712 28.7552 199.721 28.8881V30.1458H199.23V26.8502H199.721V28.2849C199.775 28.1717 199.862 28.0775 199.971 28.0143C200.079 27.9512 200.204 27.9221 200.329 27.9307C200.883 27.9307 201.101 28.3167 201.101 28.794V29.5703C201.101 29.7019 201.142 29.7792 201.287 29.7792L201.287 30.1409Z" fill="white"/>
<path d="M203.796 30.144C203.724 30.1605 203.651 30.1681 203.578 30.1667C203.333 30.1667 203.174 30.0351 203.174 29.8126V29.7898C203.112 29.9156 203.013 30.0197 202.891 30.0886C202.768 30.1574 202.628 30.1878 202.488 30.1758C202.057 30.1758 201.621 29.8389 201.621 29.0634C201.621 28.2507 202.039 27.9327 202.516 27.9327C202.64 27.9315 202.763 27.9572 202.877 28.0081C202.991 28.0589 203.092 28.1338 203.174 28.2275V27.9597H203.61V29.5715C203.61 29.7031 203.651 29.7804 203.796 29.7804V30.144ZM203.119 28.7638C203.097 28.6474 203.034 28.5426 202.942 28.4679C202.85 28.3932 202.734 28.3533 202.616 28.3551C202.325 28.3551 202.102 28.5821 202.102 29.0588C202.102 29.5401 202.352 29.7536 202.62 29.7536C202.74 29.7473 202.855 29.701 202.945 29.622C203.036 29.5429 203.097 29.4358 203.12 29.3178L203.119 28.7638Z" fill="white"/>
<path d="M205.833 29.9414C205.679 30.0885 205.474 30.1714 205.261 30.173C204.671 30.173 204.435 29.8552 204.435 29.2739V28.3475H204.098V27.9571H204.435V27.276H204.93V27.9571H205.724V28.3475H204.93V29.2556C204.93 29.587 205.048 29.746 205.315 29.746C205.452 29.7466 205.584 29.6945 205.683 29.6007L205.833 29.9414Z" fill="white"/>
<path d="M206.461 29.5616C206.542 29.5626 206.62 29.5956 206.677 29.6535C206.734 29.7113 206.765 29.7893 206.765 29.8705C206.763 29.9504 206.73 30.0263 206.673 30.082C206.615 30.1378 206.539 30.169 206.459 30.169C206.379 30.169 206.302 30.1378 206.245 30.082C206.188 30.0263 206.154 29.9504 206.152 29.8705C206.152 29.7886 206.185 29.7101 206.243 29.6522C206.301 29.5943 206.379 29.5617 206.461 29.5616V29.5616Z" fill="white"/>
<path d="M207.574 29.5616C207.655 29.5627 207.733 29.5957 207.79 29.6535C207.847 29.7113 207.879 29.7893 207.879 29.8705C207.876 29.9504 207.843 30.0263 207.786 30.082C207.729 30.1378 207.652 30.169 207.572 30.169C207.492 30.169 207.415 30.1378 207.358 30.082C207.301 30.0263 207.268 29.9504 207.266 29.8705C207.266 29.7886 207.298 29.7101 207.356 29.6522C207.414 29.5943 207.492 29.5617 207.574 29.5616V29.5616Z" fill="white"/>
<path d="M208.684 29.5616C208.765 29.5626 208.842 29.5956 208.899 29.6535C208.956 29.7113 208.988 29.7893 208.988 29.8705C208.988 29.9518 208.956 30.0297 208.898 30.0872C208.841 30.1447 208.763 30.1769 208.681 30.1769C208.6 30.1769 208.522 30.1447 208.465 30.0872C208.407 30.0297 208.375 29.9518 208.375 29.8705C208.375 29.7886 208.408 29.7101 208.465 29.6522C208.523 29.5943 208.602 29.5617 208.684 29.5616Z" fill="white"/>
</g>
<g filter="url(#filter0_d_1_2)">
<mask id="path-30-inside-1_1_2" fill="white">
<path fill-rule="evenodd" clip-rule="evenodd" d="M16 103C11.5817 103 8 106.582 8 111V134C8 138.418 11.5817 142 16 142H144C148.418 142 152 138.418 152 134V129.506C152 128.791 152.381 128.131 153 127.774L160 123.732C161.333 122.962 161.333 121.038 160 120.268L153 116.226C152.381 115.869 152 115.209 152 114.494V111C152 106.582 148.418 103 144 103H16Z"/>
</mask>
<path fill-rule="evenodd" clip-rule="evenodd" d="M16 103C11.5817 103 8 106.582 8 111V134C8 138.418 11.5817 142 16 142H144C148.418 142 152 138.418 152 134V129.506C152 128.791 152.381 128.131 153 127.774L160 123.732C161.333 122.962 161.333 121.038 160 120.268L153 116.226C152.381 115.869 152 115.209 152 114.494V111C152 106.582 148.418 103 144 103H16Z" fill="url(#paint1_linear_1_2)"/>
<path d="M153 116.226L154 114.494L153 116.226ZM160 123.732L159 122L160 123.732ZM160 120.268L159 122L160 120.268ZM153 127.774L154 129.506L153 127.774ZM10 111C10 107.686 12.6863 105 16 105V101C10.4772 101 6 105.477 6 111H10ZM10 134V111H6V134H10ZM16 140C12.6863 140 10 137.314 10 134H6C6 139.523 10.4772 144 16 144V140ZM144 140H16V144H144V140ZM150 134C150 137.314 147.314 140 144 140V144C149.523 144 154 139.523 154 134H150ZM150 129.506V134H154V129.506H150ZM159 122L152 126.041L154 129.506L161 125.464L159 122ZM152 117.959L159 122L161 118.536L154 114.494L152 117.959ZM150 111V114.494H154V111H150ZM144 105C147.314 105 150 107.686 150 111H154C154 105.477 149.523 101 144 101V105ZM16 105H144V101H16V105ZM154 114.494V114.494H150C150 115.924 150.762 117.244 152 117.959L154 114.494ZM161 125.464C163.667 123.925 163.667 120.076 161 118.536L159 122V122L161 125.464ZM154 129.506V129.506L152 126.041C150.762 126.756 150 128.076 150 129.506H154Z" fill="url(#paint2_linear_1_2)" mask="url(#path-30-inside-1_1_2)"/>
</g>
<path d="M26.6016 120.258V122.086H20.6641V120.258H26.6016ZM21.3594 115.625V127H19.0156V115.625H21.3594ZM28.2734 115.625V127H25.9375V115.625H28.2734ZM30.1125 122.859V122.695C30.1125 122.076 30.201 121.505 30.3781 120.984C30.5552 120.458 30.813 120.003 31.1516 119.617C31.4901 119.232 31.9068 118.932 32.4016 118.719C32.8964 118.5 33.4641 118.391 34.1047 118.391C34.7453 118.391 35.3156 118.5 35.8156 118.719C36.3156 118.932 36.7349 119.232 37.0734 119.617C37.4172 120.003 37.6776 120.458 37.8547 120.984C38.0318 121.505 38.1203 122.076 38.1203 122.695V122.859C38.1203 123.474 38.0318 124.044 37.8547 124.57C37.6776 125.091 37.4172 125.547 37.0734 125.938C36.7349 126.323 36.3182 126.622 35.8234 126.836C35.3286 127.049 34.7609 127.156 34.1203 127.156C33.4797 127.156 32.9094 127.049 32.4094 126.836C31.9146 126.622 31.4953 126.323 31.1516 125.938C30.813 125.547 30.5552 125.091 30.3781 124.57C30.201 124.044 30.1125 123.474 30.1125 122.859ZM32.3625 122.695V122.859C32.3625 123.214 32.3938 123.544 32.4563 123.852C32.5188 124.159 32.6177 124.43 32.7531 124.664C32.8938 124.893 33.076 125.073 33.3 125.203C33.524 125.333 33.7974 125.398 34.1203 125.398C34.4328 125.398 34.701 125.333 34.925 125.203C35.149 125.073 35.3286 124.893 35.4641 124.664C35.5995 124.43 35.6984 124.159 35.7609 123.852C35.8286 123.544 35.8625 123.214 35.8625 122.859V122.695C35.8625 122.352 35.8286 122.029 35.7609 121.727C35.6984 121.419 35.5969 121.148 35.4563 120.914C35.3208 120.674 35.1411 120.487 34.9172 120.352C34.6932 120.216 34.4224 120.148 34.1047 120.148C33.787 120.148 33.5161 120.216 33.2922 120.352C33.0734 120.487 32.8938 120.674 32.7531 120.914C32.6177 121.148 32.5188 121.419 32.4563 121.727C32.3938 122.029 32.3625 122.352 32.3625 122.695ZM42.2172 124.812L43.975 118.547H45.4047L44.9438 121.008L43.1859 127H41.9906L42.2172 124.812ZM41.3266 118.547L42.5844 124.805L42.7016 127H41.2953L39.1547 118.547H41.3266ZM47.0141 124.703L48.2406 118.547H50.4203L48.2797 127H46.8813L47.0141 124.703ZM45.6 118.547L47.35 124.766L47.5922 127H46.3891L44.6313 121.016L44.1859 118.547H45.6ZM58.3875 120.297V127H56.1297V118.547H58.2469L58.3875 120.297ZM58.075 122.477H57.45C57.45 121.888 57.5203 121.346 57.6609 120.852C57.8068 120.352 58.0177 119.919 58.2938 119.555C58.575 119.185 58.9214 118.898 59.3328 118.695C59.7443 118.492 60.2208 118.391 60.7625 118.391C61.1375 118.391 61.4813 118.448 61.7938 118.562C62.1063 118.672 62.3745 118.846 62.5984 119.086C62.8276 119.32 63.0047 119.628 63.1297 120.008C63.2547 120.383 63.3172 120.833 63.3172 121.359V127H61.0672V121.609C61.0672 121.224 61.0151 120.927 60.9109 120.719C60.8068 120.51 60.6583 120.365 60.4656 120.281C60.2781 120.198 60.0516 120.156 59.7859 120.156C59.4943 120.156 59.2391 120.216 59.0203 120.336C58.8068 120.456 58.6297 120.622 58.4891 120.836C58.3484 121.044 58.2443 121.289 58.1766 121.57C58.1089 121.852 58.075 122.154 58.075 122.477ZM63.1063 122.219L62.3016 122.32C62.3016 121.768 62.3693 121.255 62.5047 120.781C62.6453 120.307 62.851 119.891 63.1219 119.531C63.3979 119.172 63.7391 118.893 64.1453 118.695C64.5516 118.492 65.0203 118.391 65.5516 118.391C65.9578 118.391 66.3276 118.451 66.6609 118.57C66.9943 118.685 67.2781 118.87 67.5125 119.125C67.7521 119.375 67.9344 119.703 68.0594 120.109C68.1896 120.516 68.2547 121.013 68.2547 121.602V127H65.9969V121.602C65.9969 121.211 65.9448 120.914 65.8406 120.711C65.7417 120.503 65.5958 120.359 65.4031 120.281C65.2156 120.198 64.9917 120.156 64.7313 120.156C64.4604 120.156 64.2234 120.211 64.0203 120.32C63.8172 120.424 63.6479 120.57 63.5125 120.758C63.3771 120.945 63.2755 121.164 63.2078 121.414C63.1401 121.659 63.1063 121.927 63.1063 122.219ZM74.8594 125.094V121.328C74.8594 121.057 74.8151 120.826 74.7266 120.633C74.638 120.435 74.5 120.281 74.3125 120.172C74.1302 120.062 73.8932 120.008 73.6016 120.008C73.3516 120.008 73.1354 120.052 72.9531 120.141C72.7708 120.224 72.6302 120.346 72.5312 120.508C72.4323 120.664 72.3828 120.849 72.3828 121.062H70.1328C70.1328 120.703 70.2161 120.362 70.3828 120.039C70.5495 119.716 70.7917 119.432 71.1094 119.188C71.4271 118.938 71.8047 118.742 72.2422 118.602C72.6849 118.461 73.1797 118.391 73.7266 118.391C74.3828 118.391 74.9661 118.5 75.4766 118.719C75.987 118.938 76.388 119.266 76.6797 119.703C76.9766 120.141 77.125 120.688 77.125 121.344V124.961C77.125 125.424 77.1536 125.805 77.2109 126.102C77.2682 126.393 77.3516 126.648 77.4609 126.867V127H75.1875C75.0781 126.771 74.9948 126.484 74.9375 126.141C74.8854 125.792 74.8594 125.443 74.8594 125.094ZM75.1562 121.852L75.1719 123.125H73.9141C73.6172 123.125 73.3594 123.159 73.1406 123.227C72.9219 123.294 72.7422 123.391 72.6016 123.516C72.4609 123.635 72.3568 123.776 72.2891 123.938C72.2266 124.099 72.1953 124.276 72.1953 124.469C72.1953 124.661 72.2396 124.836 72.3281 124.992C72.4167 125.143 72.5443 125.263 72.7109 125.352C72.8776 125.435 73.0729 125.477 73.2969 125.477C73.6354 125.477 73.9297 125.409 74.1797 125.273C74.4297 125.138 74.6224 124.971 74.7578 124.773C74.8984 124.576 74.9714 124.388 74.9766 124.211L75.5703 125.164C75.487 125.378 75.3724 125.599 75.2266 125.828C75.0859 126.057 74.9062 126.273 74.6875 126.477C74.4688 126.674 74.2057 126.839 73.8984 126.969C73.5911 127.094 73.2266 127.156 72.8047 127.156C72.2682 127.156 71.7812 127.049 71.3438 126.836C70.9115 126.617 70.5677 126.318 70.3125 125.938C70.0625 125.552 69.9375 125.115 69.9375 124.625C69.9375 124.182 70.0208 123.789 70.1875 123.445C70.3542 123.102 70.599 122.812 70.9219 122.578C71.25 122.339 71.6589 122.159 72.1484 122.039C72.638 121.914 73.2057 121.852 73.8516 121.852H75.1562ZM81.5422 126.047L83.7844 118.547H86.1984L82.8 128.273C82.7271 128.487 82.6281 128.716 82.5031 128.961C82.3833 129.206 82.2193 129.438 82.0109 129.656C81.8078 129.88 81.55 130.062 81.2375 130.203C80.9302 130.344 80.5526 130.414 80.1047 130.414C79.8911 130.414 79.7167 130.401 79.5812 130.375C79.4458 130.349 79.2844 130.312 79.0969 130.266V128.617C79.1542 128.617 79.2141 128.617 79.2766 128.617C79.3391 128.622 79.399 128.625 79.4562 128.625C79.7531 128.625 79.9953 128.591 80.1828 128.523C80.3703 128.456 80.5214 128.352 80.6359 128.211C80.7505 128.076 80.8417 127.898 80.9094 127.68L81.5422 126.047ZM80.6047 118.547L82.4406 124.672L82.7609 127.055L81.2297 127.219L78.1906 118.547H80.6047ZM94.3141 115.625V127H91.9781V115.625H94.3141ZM103.148 115V127H100.898V115H103.148ZM102.828 122.477H102.211C102.216 121.888 102.294 121.346 102.445 120.852C102.596 120.352 102.812 119.919 103.094 119.555C103.375 119.185 103.711 118.898 104.102 118.695C104.497 118.492 104.935 118.391 105.414 118.391C105.831 118.391 106.208 118.451 106.547 118.57C106.891 118.685 107.185 118.872 107.43 119.133C107.68 119.388 107.872 119.724 108.008 120.141C108.143 120.557 108.211 121.062 108.211 121.656V127H105.945V121.641C105.945 121.266 105.891 120.971 105.781 120.758C105.677 120.539 105.523 120.385 105.32 120.297C105.122 120.203 104.878 120.156 104.586 120.156C104.263 120.156 103.987 120.216 103.758 120.336C103.534 120.456 103.354 120.622 103.219 120.836C103.083 121.044 102.984 121.289 102.922 121.57C102.859 121.852 102.828 122.154 102.828 122.477ZM114.113 127.156C113.456 127.156 112.868 127.052 112.347 126.844C111.826 126.63 111.383 126.336 111.019 125.961C110.659 125.586 110.383 125.151 110.191 124.656C109.998 124.156 109.902 123.625 109.902 123.062V122.75C109.902 122.109 109.993 121.523 110.175 120.992C110.357 120.461 110.618 120 110.956 119.609C111.3 119.219 111.717 118.919 112.206 118.711C112.696 118.497 113.248 118.391 113.863 118.391C114.461 118.391 114.993 118.49 115.456 118.688C115.92 118.885 116.308 119.167 116.62 119.531C116.938 119.896 117.178 120.333 117.339 120.844C117.501 121.349 117.581 121.911 117.581 122.531V123.469H110.863V121.969H115.37V121.797C115.37 121.484 115.313 121.206 115.198 120.961C115.089 120.711 114.922 120.513 114.698 120.367C114.474 120.221 114.188 120.148 113.839 120.148C113.542 120.148 113.287 120.214 113.073 120.344C112.86 120.474 112.685 120.656 112.55 120.891C112.42 121.125 112.321 121.401 112.253 121.719C112.191 122.031 112.159 122.375 112.159 122.75V123.062C112.159 123.401 112.206 123.714 112.3 124C112.399 124.286 112.537 124.534 112.714 124.742C112.896 124.951 113.115 125.112 113.37 125.227C113.631 125.341 113.925 125.398 114.253 125.398C114.659 125.398 115.037 125.32 115.386 125.164C115.74 125.003 116.045 124.76 116.3 124.438L117.394 125.625C117.217 125.88 116.974 126.125 116.667 126.359C116.365 126.594 116.001 126.786 115.573 126.938C115.146 127.083 114.659 127.156 114.113 127.156ZM121.537 115V127H119.28V115H121.537ZM125.947 120.172V130.25H123.697V118.547H125.783L125.947 120.172ZM131.298 122.68V122.844C131.298 123.458 131.226 124.029 131.08 124.555C130.939 125.081 130.731 125.539 130.455 125.93C130.179 126.315 129.835 126.617 129.423 126.836C129.017 127.049 128.548 127.156 128.017 127.156C127.502 127.156 127.054 127.052 126.673 126.844C126.293 126.635 125.973 126.344 125.713 125.969C125.457 125.589 125.252 125.148 125.095 124.648C124.939 124.148 124.819 123.612 124.736 123.039V122.609C124.819 121.995 124.939 121.432 125.095 120.922C125.252 120.406 125.457 119.961 125.713 119.586C125.973 119.206 126.291 118.911 126.666 118.703C127.046 118.495 127.491 118.391 128.002 118.391C128.538 118.391 129.009 118.492 129.416 118.695C129.827 118.898 130.171 119.19 130.447 119.57C130.728 119.951 130.939 120.404 131.08 120.93C131.226 121.456 131.298 122.039 131.298 122.68ZM129.041 122.844V122.68C129.041 122.32 129.009 121.99 128.947 121.688C128.89 121.38 128.796 121.112 128.666 120.883C128.541 120.654 128.374 120.477 128.166 120.352C127.963 120.221 127.715 120.156 127.423 120.156C127.116 120.156 126.853 120.206 126.634 120.305C126.421 120.404 126.246 120.547 126.111 120.734C125.976 120.922 125.874 121.146 125.806 121.406C125.739 121.667 125.697 121.961 125.681 122.289V123.375C125.707 123.76 125.78 124.107 125.9 124.414C126.02 124.716 126.205 124.956 126.455 125.133C126.705 125.31 127.033 125.398 127.439 125.398C127.736 125.398 127.986 125.333 128.189 125.203C128.392 125.068 128.556 124.883 128.681 124.648C128.811 124.414 128.903 124.143 128.955 123.836C129.012 123.529 129.041 123.198 129.041 122.844ZM136.833 123.523H134.841C134.846 123.055 134.882 122.651 134.95 122.312C135.023 121.969 135.145 121.659 135.317 121.383C135.494 121.107 135.729 120.833 136.02 120.562C136.265 120.344 136.479 120.135 136.661 119.938C136.843 119.74 136.986 119.536 137.091 119.328C137.195 119.115 137.247 118.878 137.247 118.617C137.247 118.315 137.2 118.065 137.106 117.867C137.018 117.664 136.882 117.51 136.7 117.406C136.523 117.302 136.299 117.25 136.028 117.25C135.804 117.25 135.596 117.299 135.403 117.398C135.21 117.492 135.052 117.638 134.927 117.836C134.807 118.034 134.744 118.294 134.739 118.617H132.473C132.489 117.904 132.653 117.315 132.966 116.852C133.283 116.383 133.708 116.036 134.239 115.812C134.77 115.583 135.367 115.469 136.028 115.469C136.757 115.469 137.382 115.589 137.903 115.828C138.424 116.062 138.822 116.409 139.098 116.867C139.374 117.32 139.512 117.872 139.512 118.523C139.512 118.977 139.424 119.38 139.247 119.734C139.07 120.083 138.838 120.409 138.552 120.711C138.265 121.013 137.95 121.326 137.606 121.648C137.309 121.914 137.106 122.193 136.997 122.484C136.893 122.776 136.838 123.122 136.833 123.523ZM134.606 125.938C134.606 125.604 134.721 125.328 134.95 125.109C135.179 124.885 135.486 124.773 135.872 124.773C136.252 124.773 136.557 124.885 136.786 125.109C137.02 125.328 137.137 125.604 137.137 125.938C137.137 126.26 137.02 126.534 136.786 126.758C136.557 126.982 136.252 127.094 135.872 127.094C135.486 127.094 135.179 126.982 134.95 126.758C134.721 126.534 134.606 126.26 134.606 125.938Z" fill="white"/>
<g filter="url(#filter1_d_1_2)">
<circle cx="197" cy="122" r="32" fill="url(#paint3_linear_1_2)"/>
<circle cx="197" cy="122" r="31" stroke="url(#paint4_linear_1_2)" stroke-width="2"/>
</g>
<g clip-path="url(#clip1_1_2)">
<path d="M215.028 130.256H179.402C178.24 130.256 177.297 131.199 177.297 132.362V138.493C177.297 139.656 178.24 140.599 179.402 140.599H215.028C216.191 140.599 217.133 139.656 217.133 138.493V132.362C217.133 131.199 216.191 130.256 215.028 130.256Z" fill="white"/>
<path d="M184.649 138.439C184.447 138.484 184.239 138.505 184.032 138.5C182.213 138.5 182.71 136.178 181.44 136.178H180.805V138.457H179.621V132.368H181.732C183.207 132.368 183.997 132.915 183.997 134.282C184.008 134.616 183.913 134.945 183.727 135.223C183.541 135.501 183.272 135.713 182.959 135.83C183.576 136.343 183.611 137.526 184.4 137.526H184.649L184.649 138.439ZM181.595 135.273C182.307 135.273 182.83 134.943 182.83 134.316C182.83 133.708 182.409 133.342 181.689 133.342H180.805V135.273H181.595Z" fill="#304087"/>
<path d="M185.215 138.457V132.368H187.489C188.716 132.368 189.428 132.838 189.428 133.977C189.428 135.056 188.793 135.238 188.493 135.238V135.256C188.868 135.278 189.22 135.447 189.471 135.728C189.722 136.008 189.851 136.376 189.831 136.752C189.831 138.022 188.844 138.458 187.737 138.458L185.215 138.457ZM187.351 134.908C187.995 134.908 188.209 134.586 188.209 134.116C188.209 133.629 187.892 133.342 187.188 133.342H186.399V134.908H187.351ZM187.48 137.483C188.072 137.483 188.518 137.291 188.518 136.622C188.518 135.995 188.064 135.752 187.455 135.752H186.399V137.483H187.48Z" fill="#304087"/>
<path d="M190.578 138.457V132.368H191.762V137.483H194.414V138.457H190.578Z" fill="#304087"/>
<path d="M200.264 137.386C200.03 137.738 199.711 138.026 199.336 138.222C198.961 138.418 198.542 138.517 198.119 138.508C196.498 138.508 195.34 137.499 195.34 135.428C195.34 133.358 196.387 132.086 197.974 132.086C200.051 132.086 200.239 134.097 200.239 134.385L199.244 134.559C199.244 134.559 199.202 133.043 197.983 133.043C197.125 133.043 196.456 133.914 196.456 135.428C196.456 136.959 197.288 137.55 198.172 137.55C199.081 137.55 199.63 136.715 199.63 136.715L200.264 137.386Z" fill="#ED3338"/>
<path d="M204.546 138.439C204.397 138.478 204.244 138.495 204.091 138.491C203.611 138.491 203.293 138.239 203.293 137.804V137.787C203.224 137.934 202.924 138.509 202.015 138.509C201.208 138.509 200.367 137.856 200.367 136.377C200.367 134.812 201.174 134.211 202.075 134.211C202.304 134.212 202.53 134.261 202.74 134.353C202.95 134.446 203.138 134.582 203.293 134.751V134.263H204.193V137.282C204.193 137.535 204.279 137.673 204.545 137.673L204.546 138.439ZM203.173 135.856C203.139 135.646 203.031 135.456 202.869 135.318C202.707 135.181 202.501 135.106 202.289 135.108C201.765 135.108 201.379 135.516 201.379 136.36C201.379 137.239 201.825 137.613 202.297 137.613C203.052 137.613 203.164 136.804 203.172 136.83L203.173 135.856Z" fill="#ED3338"/>
<path d="M205.035 138.455V135.437C205.035 135.193 204.958 135.045 204.684 135.045V134.28C204.826 134.239 204.973 134.221 205.121 134.228C205.567 134.228 205.91 134.471 205.91 134.923V135.001C206.03 134.618 206.374 134.21 207.155 134.21C207.376 134.198 207.596 134.249 207.79 134.357L207.369 135.279C207.218 135.183 207.041 135.138 206.863 135.149C206.288 135.149 206.065 135.679 206.057 136.062V138.454L205.035 138.455Z" fill="#ED3338"/>
<path d="M208.553 136.541V136.558C208.547 136.702 208.57 136.846 208.621 136.98C208.672 137.114 208.751 137.237 208.851 137.34C208.952 137.442 209.072 137.523 209.206 137.578C209.339 137.632 209.482 137.658 209.626 137.654C209.828 137.654 210.027 137.604 210.205 137.508C210.383 137.413 210.535 137.275 210.647 137.107L211.179 137.654C211.179 137.654 210.733 138.507 209.48 138.507C208.39 138.507 207.523 137.794 207.523 136.359C207.523 134.993 208.193 134.211 209.454 134.211C210.715 134.211 211.11 135.099 211.11 135.612C211.11 136.465 210.51 136.691 209.548 136.691C209.211 136.694 208.875 136.644 208.553 136.541ZM209.394 136.035C209.832 136.035 210.167 135.966 210.167 135.653C210.167 135.418 209.943 135.035 209.403 135.035C209.293 135.03 209.182 135.047 209.079 135.087C208.976 135.126 208.883 135.187 208.804 135.265C208.726 135.342 208.665 135.436 208.624 135.538C208.584 135.641 208.566 135.751 208.571 135.862C208.825 135.991 209.109 136.051 209.394 136.036V136.035Z" fill="#ED3338"/>
<path d="M213.812 135.803C213.836 135.701 213.847 135.595 213.846 135.49C213.846 135.22 213.657 135.012 213.126 135.012C212.654 135.012 212.422 135.195 212.422 135.508C212.422 136.421 214.825 135.664 214.825 137.221C214.825 138.004 214.258 138.509 213.074 138.509C211.599 138.509 211.195 137.639 211.195 137.639L211.77 137.047C211.917 137.244 212.108 137.404 212.326 137.515C212.545 137.627 212.786 137.687 213.032 137.691C213.521 137.691 213.735 137.534 213.735 137.273C213.735 136.525 211.393 137.134 211.393 135.533C211.393 134.855 211.848 134.211 213.109 134.211C214.387 134.211 214.773 134.812 214.773 135.403C214.775 135.54 214.751 135.675 214.705 135.803H213.812Z" fill="#ED3338"/>
<path d="M205.287 114.017H205.273V109.981H205.287C205.415 108.481 204.995 106.369 203.971 105.485C203.009 104.653 201.629 104.444 200.42 104.441C195.628 104.429 190.836 104.43 186.043 104.442C185.465 104.444 184.888 104.532 184.31 104.575C182.217 104.73 180.604 106.726 180.625 108.962C180.655 111.973 180.621 114.063 180.639 117.074C180.623 117.77 180.78 118.458 181.094 119.079C181.408 119.699 181.87 120.233 182.439 120.633C182.628 120.772 182.81 120.926 183.007 121.084C182.968 121.247 182.944 121.38 182.904 121.507C182.515 122.728 182.11 123.945 181.739 125.172C181.587 125.638 181.49 126.12 181.45 126.608C181.422 127.095 181.787 127.31 182.197 127.066C182.54 126.857 182.853 126.603 183.128 126.311C184.493 124.87 185.847 123.417 187.19 121.953C187.337 121.766 187.529 121.618 187.748 121.523C187.967 121.428 188.206 121.39 188.444 121.411C188.891 121.447 195.071 121.386 195.071 121.386C195.162 121.414 195.255 121.429 195.35 121.43C197.314 121.451 198.334 121.425 199.745 121.406C200.33 121.398 200.982 121.391 201.798 121.39C202.035 121.407 202.274 121.376 202.499 121.3C203.98 120.652 205.033 119.572 205.231 117.878C205.248 117.734 205.262 117.575 205.272 117.407C205.341 116.36 205.299 114.934 205.287 114.017Z" fill="#ED3338"/>
<path d="M181.867 127.602C181.715 127.603 181.565 127.562 181.434 127.483C181.288 127.387 181.172 127.252 181.098 127.093C181.025 126.935 180.997 126.758 181.018 126.585C181.06 126.062 181.163 125.546 181.325 125.048C181.577 124.21 181.851 123.366 182.114 122.55C182.241 122.159 182.366 121.767 182.492 121.376C182.504 121.338 182.515 121.297 182.525 121.253C182.408 121.157 182.296 121.067 182.183 120.984C181.557 120.545 181.05 119.959 180.705 119.278C180.36 118.597 180.189 117.841 180.205 117.078C180.197 115.723 180.2 114.545 180.202 113.406C180.205 111.974 180.208 110.622 180.192 108.967C180.178 107.78 180.585 106.627 181.341 105.712C181.698 105.265 182.143 104.895 182.648 104.626C183.153 104.356 183.707 104.192 184.278 104.143C184.47 104.129 184.669 104.109 184.86 104.089C185.244 104.05 185.641 104.01 186.042 104.009C191.264 103.997 195.968 103.997 200.421 104.008C202.087 104.012 203.377 104.399 204.255 105.157C205.392 106.139 205.858 108.395 205.72 110.018L205.707 110.163V113.584H205.716L205.721 114.012C205.723 114.17 205.726 114.342 205.729 114.526C205.744 115.428 205.763 116.552 205.706 117.436C205.694 117.625 205.68 117.786 205.664 117.93C205.463 119.652 204.457 120.92 202.674 121.699C202.402 121.799 202.111 121.842 201.82 121.825H201.799C200.918 121.828 200.241 121.835 199.751 121.842C199.51 121.845 199.281 121.848 199.056 121.852C197.942 121.868 196.979 121.883 195.345 121.866C195.234 121.864 195.122 121.85 195.014 121.822C194.146 121.831 188.85 121.881 188.409 121.845C188.237 121.829 188.064 121.858 187.907 121.928C187.749 121.999 187.613 122.109 187.51 122.248C186.309 123.564 185.016 124.951 183.442 126.611C183.14 126.932 182.796 127.211 182.419 127.44C182.253 127.543 182.062 127.598 181.867 127.602V127.602ZM193.791 104.868C191.323 104.868 188.754 104.871 186.044 104.877C185.686 104.877 185.327 104.914 184.948 104.953C184.75 104.974 184.546 104.993 184.342 105.009C182.512 105.144 181.039 106.916 181.059 108.958C181.076 110.619 181.073 111.974 181.07 113.408C181.067 114.545 181.065 115.722 181.073 117.073C181.059 117.7 181.2 118.322 181.483 118.882C181.766 119.442 182.182 119.924 182.696 120.284C182.834 120.385 182.967 120.494 183.096 120.598C183.155 120.647 183.216 120.696 183.278 120.746L183.495 120.918L183.43 121.187C183.418 121.239 183.407 121.287 183.397 121.334C183.373 121.44 183.352 121.538 183.319 121.641C183.193 122.034 183.067 122.426 182.94 122.818C182.677 123.631 182.406 124.471 182.155 125.3C182.012 125.733 181.921 126.181 181.884 126.636C181.881 126.668 181.883 126.701 181.89 126.732C181.92 126.724 181.949 126.712 181.975 126.696C182.284 126.507 182.566 126.278 182.813 126.015C184.383 124.358 185.672 122.976 186.87 121.664C187.061 121.426 187.308 121.24 187.589 121.121C187.87 121.002 188.175 120.954 188.479 120.981C188.793 121.006 192.591 120.979 195.067 120.955H195.134L195.199 120.974C195.249 120.99 195.302 120.999 195.355 121C196.978 121.017 197.935 121.002 199.043 120.986C199.268 120.982 199.498 120.979 199.738 120.976C200.231 120.969 200.91 120.961 201.796 120.959H201.817C201.988 120.971 202.16 120.953 202.325 120.906C203.804 120.259 204.637 119.224 204.8 117.832C204.815 117.703 204.828 117.556 204.839 117.383C204.893 116.534 204.875 115.43 204.86 114.543C204.86 114.513 204.86 114.484 204.859 114.454H204.837V109.548H204.873C204.898 108.177 204.492 106.511 203.686 105.814C202.97 105.195 201.869 104.88 200.417 104.876C198.278 104.871 196.078 104.868 193.791 104.868Z" fill="white"/>
<path d="M189.22 114.28C189.967 114.28 190.573 113.675 190.573 112.928C190.573 112.18 189.967 111.575 189.22 111.575C188.473 111.575 187.867 112.18 187.867 112.928C187.867 113.675 188.473 114.28 189.22 114.28Z" fill="white"/>
<path d="M184.419 114.28C185.166 114.28 185.772 113.675 185.772 112.928C185.772 112.18 185.166 111.575 184.419 111.575C183.672 111.575 183.066 112.18 183.066 112.928C183.066 113.675 183.672 114.28 184.419 114.28Z" fill="white"/>
<path d="M194.017 114.28C194.764 114.28 195.37 113.675 195.37 112.928C195.37 112.18 194.764 111.575 194.017 111.575C193.27 111.575 192.664 112.18 192.664 112.928C192.664 113.675 193.27 114.28 194.017 114.28Z" fill="white"/>
<path d="M213.805 113.587C213.823 111.804 212.536 110.212 210.867 110.088C210.406 110.054 209.945 109.983 209.484 109.983C205.662 109.974 201.84 109.974 198.018 109.983C197.054 109.985 195.954 110.151 195.186 110.815C194.369 111.52 194.085 113.225 194.136 114.401C194.139 114.401 194.139 117.62 194.136 117.62C194.126 118.352 194.094 119.489 194.147 120.324C194.155 120.458 194.166 120.584 194.179 120.7C194.338 122.051 195.177 122.912 196.359 123.429C196.538 123.49 196.729 123.514 196.918 123.501C197.569 123.502 198.089 123.507 198.556 123.514C199.68 123.529 207.212 123.546 207.569 123.517C207.758 123.501 207.949 123.531 208.124 123.607C208.298 123.682 208.451 123.8 208.569 123.95C209.637 125.12 210.717 126.279 211.809 127.425C212.028 127.659 212.278 127.861 212.551 128.028C212.878 128.222 213.169 128.051 213.146 127.662C213.114 127.273 213.037 126.889 212.916 126.517C212.62 125.538 212.297 124.568 211.987 123.594C211.954 123.493 211.936 123.387 211.905 123.257C212.062 123.131 212.206 123.009 212.359 122.897C212.813 122.579 213.181 122.153 213.432 121.658C213.682 121.163 213.807 120.614 213.794 120.059C213.809 117.656 213.781 115.988 213.805 113.587Z" fill="#304087"/>
<path d="M212.812 128.54C212.641 128.538 212.474 128.489 212.328 128.399C212.02 128.212 211.739 127.985 211.492 127.722C210.238 126.399 209.206 125.292 208.247 124.241C208.174 124.141 208.076 124.061 207.963 124.009C207.85 123.958 207.726 123.937 207.602 123.949C207.196 123.982 199.532 123.959 198.548 123.946C198.159 123.941 197.621 123.935 196.916 123.933H196.897C196.654 123.947 196.41 123.91 196.181 123.825C194.73 123.19 193.91 122.155 193.745 120.749C193.732 120.632 193.72 120.502 193.711 120.35C193.665 119.641 193.68 118.743 193.692 118.022C193.695 117.876 193.697 117.738 193.699 117.613V117.538C193.701 117.087 193.701 114.592 193.699 114.419V114.418C193.654 113.381 193.856 111.386 194.899 110.485C195.615 109.866 196.663 109.55 198.013 109.547C201.564 109.538 205.315 109.538 209.482 109.547C209.806 109.547 210.125 109.58 210.433 109.61C210.586 109.625 210.744 109.641 210.897 109.652C212.758 109.79 214.257 111.556 214.237 113.588C214.224 114.908 214.226 115.987 214.229 117.128C214.231 118.037 214.233 118.976 214.226 120.057C214.24 120.679 214.1 121.296 213.818 121.851C213.537 122.407 213.123 122.885 212.613 123.242C212.539 123.297 212.464 123.356 212.387 123.419C212.391 123.432 212.395 123.445 212.399 123.458C212.498 123.77 212.598 124.082 212.7 124.393C212.91 125.045 213.128 125.719 213.33 126.387C213.461 126.791 213.544 127.209 213.578 127.633C213.595 127.787 213.569 127.943 213.503 128.084C213.437 128.224 213.334 128.344 213.204 128.43C213.086 128.502 212.951 128.54 212.812 128.54V128.54ZM207.68 123.077C207.911 123.079 208.139 123.132 208.348 123.232C208.557 123.332 208.741 123.477 208.887 123.656C209.843 124.703 210.87 125.806 212.121 127.125C212.296 127.311 212.492 127.474 212.705 127.613C212.671 127.283 212.601 126.957 212.498 126.641C212.298 125.981 212.082 125.311 211.873 124.662C211.772 124.349 211.671 124.036 211.571 123.723C211.543 123.637 211.525 123.556 211.506 123.471C211.498 123.434 211.49 123.396 211.48 123.356L211.415 123.087L211.632 122.915C211.681 122.875 211.73 122.836 211.777 122.798C211.88 122.713 211.987 122.627 212.099 122.545C212.5 122.267 212.825 121.894 213.044 121.459C213.264 121.024 213.372 120.541 213.358 120.054C213.364 118.977 213.362 118.039 213.36 117.132C213.358 115.988 213.355 114.907 213.368 113.581C213.384 111.998 212.246 110.625 210.832 110.52C210.668 110.507 210.505 110.491 210.347 110.475C210.046 110.445 209.762 110.416 209.481 110.415C205.315 110.406 201.565 110.405 198.016 110.415C196.879 110.418 196.022 110.663 195.467 111.142C194.816 111.704 194.517 113.23 194.567 114.381H194.566C194.567 114.397 194.568 114.414 194.568 114.432V114.538C194.568 114.627 194.568 114.754 194.568 114.907C194.568 115.212 194.568 115.618 194.568 116.023C194.568 116.423 194.568 116.823 194.568 117.122C194.568 117.271 194.568 117.395 194.568 117.484V117.587C194.568 117.6 194.567 117.612 194.566 117.624C194.565 117.751 194.562 117.89 194.56 118.037C194.548 118.743 194.533 119.621 194.577 120.295C194.585 120.432 194.595 120.548 194.607 120.648C194.735 121.742 195.364 122.521 196.529 123.03C196.65 123.062 196.775 123.074 196.899 123.066H196.916C197.625 123.067 198.166 123.073 198.558 123.079C199.788 123.096 207.174 123.11 207.531 123.084C207.582 123.079 207.631 123.077 207.68 123.077V123.077Z" fill="white"/>
<path d="M198.039 115.826V112.647H198.557V115.403H200.028V115.826H198.039Z" fill="white"/>
<path d="M200.75 114.817V114.826C200.744 114.906 200.755 114.987 200.782 115.062C200.809 115.138 200.852 115.207 200.907 115.265C200.963 115.324 201.03 115.369 201.105 115.4C201.179 115.431 201.259 115.446 201.339 115.443C201.448 115.444 201.555 115.418 201.65 115.367C201.746 115.316 201.828 115.243 201.889 115.153L202.152 115.416C202.057 115.56 201.925 115.676 201.77 115.753C201.616 115.83 201.443 115.864 201.271 115.852C200.713 115.852 200.254 115.498 200.254 114.731C200.254 114 200.612 113.609 201.253 113.609C201.916 113.609 202.12 114.068 202.12 114.336C202.12 114.781 201.803 114.899 201.299 114.899C201.113 114.902 200.927 114.874 200.75 114.817V114.817ZM201.226 114.572C201.472 114.572 201.667 114.535 201.667 114.358C201.662 114.306 201.646 114.256 201.621 114.211C201.596 114.165 201.563 114.125 201.522 114.092C201.482 114.06 201.435 114.036 201.385 114.021C201.335 114.007 201.283 114.002 201.231 114.008C201.169 114.005 201.107 114.014 201.049 114.035C200.991 114.057 200.938 114.09 200.893 114.133C200.849 114.176 200.814 114.228 200.791 114.286C200.768 114.343 200.757 114.405 200.759 114.467C200.902 114.543 201.064 114.579 201.226 114.572V114.572Z" fill="white"/>
<path d="M204.192 115.621C204.038 115.768 203.834 115.851 203.62 115.853C203.031 115.853 202.794 115.535 202.794 114.954V114.027H202.457V113.637H202.794V112.956H203.289V113.637H204.084V114.027H203.289V114.935C203.289 115.267 203.407 115.426 203.675 115.426C203.812 115.426 203.943 115.374 204.043 115.28L204.192 115.621Z" fill="white"/>
<path d="M204.794 112.57C204.841 112.569 204.887 112.578 204.93 112.597C204.973 112.615 205.012 112.642 205.044 112.676C205.075 112.711 205.1 112.751 205.115 112.796C205.13 112.84 205.135 112.887 205.131 112.933C205.131 113.587 204.667 113.746 204.667 113.746L204.531 113.528C204.531 113.528 204.795 113.392 204.795 113.183C204.715 113.181 204.639 113.148 204.583 113.091C204.527 113.033 204.496 112.957 204.496 112.877C204.496 112.797 204.527 112.72 204.583 112.663C204.639 112.606 204.715 112.572 204.795 112.57H204.794Z" fill="white"/>
<path d="M206.761 114.436C206.774 114.381 206.78 114.324 206.779 114.267C206.779 114.118 206.67 114 206.366 114C206.094 114 205.958 114.105 205.958 114.277C205.958 114.781 207.247 114.367 207.247 115.194C207.247 115.594 206.956 115.852 206.348 115.852C205.581 115.852 205.367 115.407 205.367 115.407L205.649 115.112C205.727 115.218 205.829 115.304 205.947 115.364C206.064 115.424 206.194 115.456 206.325 115.457C206.607 115.457 206.734 115.367 206.734 115.217C206.734 114.795 205.471 115.14 205.471 114.29C205.471 113.941 205.707 113.609 206.356 113.609C207.023 113.609 207.228 113.923 207.228 114.227C207.228 114.298 207.216 114.369 207.191 114.436L206.761 114.436Z" fill="white"/>
<path d="M199.769 119.737C199.674 119.881 199.542 119.997 199.387 120.074C199.233 120.15 199.06 120.184 198.888 120.172C198.33 120.172 197.871 119.818 197.871 119.051C197.871 118.334 198.225 117.929 198.893 117.929C199.469 117.929 199.728 118.261 199.728 118.629C199.73 118.713 199.718 118.798 199.692 118.878H199.256C199.273 118.827 199.282 118.774 199.283 118.719C199.287 118.668 199.279 118.617 199.26 118.569C199.242 118.521 199.213 118.478 199.175 118.443C199.138 118.408 199.093 118.382 199.044 118.366C198.996 118.35 198.944 118.345 198.893 118.352C198.561 118.352 198.353 118.556 198.353 119.046C198.353 119.6 198.693 119.75 198.956 119.75C199.064 119.751 199.17 119.726 199.266 119.677C199.362 119.628 199.444 119.557 199.506 119.469L199.769 119.737Z" fill="white"/>
<path d="M202.287 120.141C202.216 120.158 202.143 120.166 202.069 120.164C201.774 120.164 201.611 120 201.611 119.637V118.793C201.616 118.735 201.608 118.677 201.589 118.623C201.57 118.568 201.54 118.518 201.5 118.477C201.46 118.435 201.411 118.402 201.357 118.381C201.304 118.359 201.246 118.35 201.188 118.352C201.056 118.362 200.932 118.424 200.844 118.524C200.757 118.624 200.712 118.755 200.721 118.888V120.146H200.23V116.85H200.721V118.285C200.775 118.172 200.862 118.077 200.971 118.014C201.079 117.951 201.204 117.922 201.329 117.931C201.883 117.931 202.101 118.317 202.101 118.794V119.57C202.101 119.702 202.142 119.779 202.287 119.779L202.287 120.141Z" fill="white"/>
<path d="M204.796 120.144C204.724 120.16 204.651 120.168 204.578 120.167C204.333 120.167 204.174 120.035 204.174 119.813V119.79C204.112 119.916 204.013 120.02 203.891 120.089C203.768 120.157 203.628 120.188 203.488 120.176C203.057 120.176 202.621 119.839 202.621 119.063C202.621 118.251 203.039 117.933 203.516 117.933C203.64 117.931 203.763 117.957 203.877 118.008C203.991 118.059 204.092 118.134 204.174 118.228V117.96H204.61V119.571C204.61 119.703 204.651 119.78 204.796 119.78V120.144ZM204.119 118.764C204.097 118.647 204.034 118.543 203.942 118.468C203.85 118.393 203.734 118.353 203.616 118.355C203.325 118.355 203.102 118.582 203.102 119.059C203.102 119.54 203.352 119.754 203.62 119.754C203.74 119.747 203.855 119.701 203.945 119.622C204.036 119.543 204.097 119.436 204.12 119.318L204.119 118.764Z" fill="white"/>
<path d="M206.833 119.941C206.679 120.089 206.474 120.171 206.261 120.173C205.671 120.173 205.435 119.855 205.435 119.274V118.347H205.098V117.957H205.435V117.276H205.93V117.957H206.724V118.347H205.93V119.256C205.93 119.587 206.048 119.746 206.315 119.746C206.452 119.747 206.584 119.695 206.683 119.601L206.833 119.941Z" fill="white"/>
<path d="M207.461 119.562C207.542 119.563 207.62 119.596 207.677 119.653C207.734 119.711 207.765 119.789 207.765 119.87C207.763 119.95 207.73 120.026 207.673 120.082C207.615 120.138 207.539 120.169 207.459 120.169C207.379 120.169 207.302 120.138 207.245 120.082C207.188 120.026 207.154 119.95 207.152 119.87C207.152 119.789 207.185 119.71 207.243 119.652C207.301 119.594 207.379 119.562 207.461 119.562V119.562Z" fill="white"/>
<path d="M208.574 119.562C208.655 119.563 208.733 119.596 208.79 119.654C208.847 119.711 208.879 119.789 208.879 119.87C208.876 119.95 208.843 120.026 208.786 120.082C208.729 120.138 208.652 120.169 208.572 120.169C208.492 120.169 208.415 120.138 208.358 120.082C208.301 120.026 208.268 119.95 208.266 119.87C208.266 119.789 208.298 119.71 208.356 119.652C208.414 119.594 208.492 119.562 208.574 119.562V119.562Z" fill="white"/>
<path d="M209.684 119.562C209.765 119.563 209.842 119.596 209.899 119.653C209.956 119.711 209.988 119.789 209.988 119.87C209.988 119.952 209.956 120.03 209.898 120.087C209.841 120.145 209.763 120.177 209.681 120.177C209.6 120.177 209.522 120.145 209.465 120.087C209.407 120.03 209.375 119.952 209.375 119.87C209.375 119.789 209.408 119.71 209.465 119.652C209.523 119.594 209.602 119.562 209.684 119.562Z" fill="white"/>
</g>
<defs>
<filter id="filter0_d_1_2" x="0" y="97" width="169" height="55" filterUnits="userSpaceOnUse" color-interpolation-filters="sRGB">
<feFlood flood-opacity="0" result="BackgroundImageFix"/>
<feColorMatrix in="SourceAlpha" type="matrix" values="0 0 0 0 0 0 0 0 0 0 0 0 0 0 0 0 0 0 127 0" result="hardAlpha"/>
<feOffset dy="2"/>
<feGaussianBlur stdDeviation="4"/>
<feComposite in2="hardAlpha" operator="out"/>
<feColorMatrix type="matrix" values="0 0 0 0 0 0 0 0 0 0 0 0 0 0 0 0 0 0 0.4 0"/>
<feBlend mode="normal" in2="BackgroundImageFix" result="effect1_dropShadow_1_2"/>
<feBlend mode="normal" in="SourceGraphic" in2="effect1_dropShadow_1_2" result="shape"/>
</filter>
<filter id="filter1_d_1_2" x="157" y="84" width="80" height="80" filterUnits="userSpaceOnUse" color-interpolation-filters="sRGB">
<feFlood flood-opacity="0" result="BackgroundImageFix"/>
<feColorMatrix in="SourceAlpha" type="matrix" values="0 0 0 0 0 0 0 0 0 0 0 0 0 0 0 0 0 0 127 0" result="hardAlpha"/>
<feOffset dy="2"/>
<feGaussianBlur stdDeviation="4"/>
<feComposite in2="hardAlpha" operator="out"/>
<feColorMatrix type="matrix" values="0 0 0 0 0 0 0 0 0 0 0 0 0 0 0 0 0 0 0.4 0"/>
<feBlend mode="normal" in2="BackgroundImageFix" result="effect1_dropShadow_1_2"/>
<feBlend mode="normal" in="SourceGraphic" in2="effect1_dropShadow_1_2" result="shape"/>
</filter>
<linearGradient id="paint0_linear_1_2" x1="164" y1="23.7763" x2="228" y2="23.7763" gradientUnits="userSpaceOnUse">
<stop stop-color="#ED3338"/>
<stop offset="1" stop-color="#304087"/>
</linearGradient>
<linearGradient id="paint1_linear_1_2" x1="8" y1="117.489" x2="161" y2="117.489" gradientUnits="userSpaceOnUse">
<stop stop-color="#ED3338"/>
<stop offset="1" stop-color="#304087"/>
</linearGradient>
<linearGradient id="paint2_linear_1_2" x1="8" y1="117.489" x2="161" y2="117.489" gradientUnits="userSpaceOnUse">
<stop stop-color="#ED3338"/>
<stop offset="1" stop-color="#304087"/>
</linearGradient>
<linearGradient id="paint3_linear_1_2" x1="165" y1="113.776" x2="229" y2="113.776" gradientUnits="userSpaceOnUse">
<stop stop-color="#ED3338"/>
<stop offset="1" stop-color="#304087"/>
</linearGradient>
<linearGradient id="paint4_linear_1_2" x1="165" y1="113.776" x2="229" y2="113.776" gradientUnits="userSpaceOnUse">
<stop stop-color="#ED3338"/>
<stop offset="1" stop-color="#304087"/>
</linearGradient>
<clipPath id="clip0_1_2">
<rect width="39.8363" height="36.2609" fill="white" transform="translate(176.297 14)"/>
</clipPath>
<clipPath id="clip1_1_2">
<rect width="39.8363" height="36.2609" fill="white" transform="translate(177.297 104)"/>
</clipPath>
</defs>
</svg>
