<svg width="21" height="21" viewBox="0 0 21 21" fill="none" xmlns="http://www.w3.org/2000/svg">
<path d="M10 0.0878906C4.486 0.0878906 0 4.57389 0 10.0879C0 15.6019 4.486 20.0879 10 20.0879C15.514 20.0879 20 15.6019 20 10.0879C20 8.96189 19.804 7.88209 19.459 6.87109L17.8398 8.49023C17.9448 9.00623 18 9.54089 18 10.0879C18 14.4989 14.411 18.0879 10 18.0879C5.589 18.0879 2 14.4989 2 10.0879C2 5.67689 5.589 2.08789 10 2.08789C11.633 2.08789 13.1519 2.58178 14.4199 3.42578L15.8516 1.99414C14.2036 0.800141 12.185 0.0878906 10 0.0878906ZM19.293 1.38086L9 11.6738L5.70703 8.38086L4.29297 9.79492L9 14.502L20.707 2.79492L19.293 1.38086Z" fill="#000000" fill-opacity="1"/>
</svg>
