<svg width="70" height="70" viewBox="0 0 70 70" fill="none" xmlns="http://www.w3.org/2000/svg">
<g clip-path="url(#clip0_3857_9001)">
<path opacity="0.08" d="M35 70C54.33 70 70 54.33 70 35C70 15.67 54.33 0 35 0C15.67 0 0 15.67 0 35C0 54.33 15.67 70 35 70Z" fill="black"/>
<mask id="path-2-outside-1_3857_9001" maskUnits="userSpaceOnUse" x="12" y="12" width="46" height="43" fill="black">
<rect fill="white" x="12" y="12" width="46" height="43"/>
<path d="M16.4657 53.8505C15.5471 53.8485 14.6667 53.4828 14.0172 52.8333C13.3677 52.1838 13.0019 51.3034 13 50.3848V20.8899C13.0019 19.9713 13.3677 19.091 14.0172 18.4415C14.6667 17.7919 15.5471 17.4262 16.4657 17.4242H20.3737V15.7283C20.3737 15.0047 20.6612 14.3107 21.1728 13.7991C21.6845 13.2874 22.3784 13 23.102 13C23.8256 13 24.5196 13.2874 25.0312 13.7991C25.5429 14.3107 25.8303 15.0047 25.8303 15.7283V17.4242H32.1717V15.7283C32.1717 15.0047 32.4592 14.3107 32.9708 13.7991C33.4825 13.2874 34.1764 13 34.9 13C35.6236 13 36.3175 13.2874 36.8292 13.7991C37.3408 14.3107 37.6283 15.0047 37.6283 15.7283V17.4242H43.9697V15.7283C43.9697 15.0047 44.2571 14.3107 44.7688 13.7991C45.2804 13.2874 45.9744 13 46.698 13C47.4216 13 48.1155 13.2874 48.6272 13.7991C49.1388 14.3107 49.4263 15.0047 49.4263 15.7283V17.4242H53.3343C54.2529 17.4262 55.1333 17.7919 55.7828 18.4415C56.4323 19.091 56.798 19.9713 56.8 20.8899V37.1121C56.8 37.249 56.7456 37.3803 56.6488 37.4771C56.552 37.5739 56.4207 37.6283 56.2838 37.6283C56.1469 37.6283 56.0157 37.5739 55.9189 37.4771C55.8221 37.3803 55.7677 37.249 55.7677 37.1121V27.305H14.0323V50.3848C14.0381 51.0284 14.2963 51.644 14.7514 52.0991C15.2065 52.5542 15.8221 52.8124 16.4657 52.8182H35.6374C35.7743 52.8182 35.9056 52.8726 36.0024 52.9694C36.0992 53.0662 36.1535 53.1974 36.1535 53.3343C36.1535 53.4712 36.0992 53.6025 36.0024 53.6993C35.9056 53.7961 35.7743 53.8505 35.6374 53.8505H16.4657ZM16.4657 18.4566C15.8221 18.4623 15.2065 18.7206 14.7514 19.1757C14.2963 19.6307 14.0381 20.2463 14.0323 20.8899V26.2727H55.7677V20.8899C55.7619 20.2463 55.5037 19.6307 55.0486 19.1757C54.5935 18.7206 53.9779 18.4623 53.3343 18.4566H49.4263V20.1525C49.4263 20.8761 49.1388 21.5701 48.6272 22.0817C48.1155 22.5934 47.4216 22.8808 46.698 22.8808C45.9744 22.8808 45.2804 22.5934 44.7688 22.0817C44.2571 21.5701 43.9697 20.8761 43.9697 20.1525V18.4566H37.6283V20.1525C37.6283 20.8761 37.3408 21.5701 36.8292 22.0817C36.3175 22.5934 35.6236 22.8808 34.9 22.8808C34.1764 22.8808 33.4825 22.5934 32.9708 22.0817C32.4592 21.5701 32.1717 20.8761 32.1717 20.1525V18.4566H25.8303V20.1525C25.8303 20.8761 25.5429 21.5701 25.0312 22.0817C24.5196 22.5934 23.8256 22.8808 23.102 22.8808C22.3784 22.8808 21.6845 22.5934 21.1728 22.0817C20.6612 21.5701 20.3737 20.8761 20.3737 20.1525V18.4566H16.4657ZM46.698 14.0323C46.2482 14.0323 45.8168 14.211 45.4988 14.5291C45.1807 14.8471 45.002 15.2785 45.002 15.7283V20.1525C45.002 20.6023 45.1807 21.0337 45.4988 21.3517C45.8168 21.6698 46.2482 21.8485 46.698 21.8485C47.1478 21.8485 47.5791 21.6698 47.8972 21.3517C48.2153 21.0337 48.3939 20.6023 48.3939 20.1525V15.7283C48.3939 15.2785 48.2153 14.8471 47.8972 14.5291C47.5791 14.211 47.1478 14.0323 46.698 14.0323ZM34.9 14.0323C34.4502 14.0323 34.0188 14.211 33.7008 14.5291C33.3827 14.8471 33.204 15.2785 33.204 15.7283V20.1525C33.204 20.3752 33.2479 20.5958 33.3331 20.8015C33.4184 21.0073 33.5433 21.1943 33.7008 21.3517C33.8583 21.5092 34.0452 21.6342 34.251 21.7194C34.4567 21.8046 34.6773 21.8485 34.9 21.8485C35.1227 21.8485 35.3433 21.8046 35.549 21.7194C35.7548 21.6342 35.9417 21.5092 36.0992 21.3517C36.2567 21.1943 36.3816 21.0073 36.4669 20.8015C36.5521 20.5958 36.596 20.3752 36.596 20.1525V15.7283C36.596 15.2785 36.4173 14.8471 36.0992 14.5291C35.7812 14.211 35.3498 14.0323 34.9 14.0323ZM23.102 14.0323C22.6522 14.0323 22.2208 14.211 21.9028 14.5291C21.5847 14.8471 21.4061 15.2785 21.4061 15.7283V20.1525C21.4061 20.6023 21.5847 21.0337 21.9028 21.3517C22.2208 21.6698 22.6522 21.8485 23.102 21.8485C23.5518 21.8485 23.9832 21.6698 24.3012 21.3517C24.6193 21.0337 24.798 20.6023 24.798 20.1525V15.7283C24.798 15.2785 24.6193 14.8471 24.3012 14.5291C23.9832 14.211 23.5518 14.0323 23.102 14.0323Z"/>
</mask>
<path d="M16.4657 53.8505C15.5471 53.8485 14.6667 53.4828 14.0172 52.8333C13.3677 52.1838 13.0019 51.3034 13 50.3848V20.8899C13.0019 19.9713 13.3677 19.091 14.0172 18.4415C14.6667 17.7919 15.5471 17.4262 16.4657 17.4242H20.3737V15.7283C20.3737 15.0047 20.6612 14.3107 21.1728 13.7991C21.6845 13.2874 22.3784 13 23.102 13C23.8256 13 24.5196 13.2874 25.0312 13.7991C25.5429 14.3107 25.8303 15.0047 25.8303 15.7283V17.4242H32.1717V15.7283C32.1717 15.0047 32.4592 14.3107 32.9708 13.7991C33.4825 13.2874 34.1764 13 34.9 13C35.6236 13 36.3175 13.2874 36.8292 13.7991C37.3408 14.3107 37.6283 15.0047 37.6283 15.7283V17.4242H43.9697V15.7283C43.9697 15.0047 44.2571 14.3107 44.7688 13.7991C45.2804 13.2874 45.9744 13 46.698 13C47.4216 13 48.1155 13.2874 48.6272 13.7991C49.1388 14.3107 49.4263 15.0047 49.4263 15.7283V17.4242H53.3343C54.2529 17.4262 55.1333 17.7919 55.7828 18.4415C56.4323 19.091 56.798 19.9713 56.8 20.8899V37.1121C56.8 37.249 56.7456 37.3803 56.6488 37.4771C56.552 37.5739 56.4207 37.6283 56.2838 37.6283C56.1469 37.6283 56.0157 37.5739 55.9189 37.4771C55.8221 37.3803 55.7677 37.249 55.7677 37.1121V27.305H14.0323V50.3848C14.0381 51.0284 14.2963 51.644 14.7514 52.0991C15.2065 52.5542 15.8221 52.8124 16.4657 52.8182H35.6374C35.7743 52.8182 35.9056 52.8726 36.0024 52.9694C36.0992 53.0662 36.1535 53.1974 36.1535 53.3343C36.1535 53.4712 36.0992 53.6025 36.0024 53.6993C35.9056 53.7961 35.7743 53.8505 35.6374 53.8505H16.4657ZM16.4657 18.4566C15.8221 18.4623 15.2065 18.7206 14.7514 19.1757C14.2963 19.6307 14.0381 20.2463 14.0323 20.8899V26.2727H55.7677V20.8899C55.7619 20.2463 55.5037 19.6307 55.0486 19.1757C54.5935 18.7206 53.9779 18.4623 53.3343 18.4566H49.4263V20.1525C49.4263 20.8761 49.1388 21.5701 48.6272 22.0817C48.1155 22.5934 47.4216 22.8808 46.698 22.8808C45.9744 22.8808 45.2804 22.5934 44.7688 22.0817C44.2571 21.5701 43.9697 20.8761 43.9697 20.1525V18.4566H37.6283V20.1525C37.6283 20.8761 37.3408 21.5701 36.8292 22.0817C36.3175 22.5934 35.6236 22.8808 34.9 22.8808C34.1764 22.8808 33.4825 22.5934 32.9708 22.0817C32.4592 21.5701 32.1717 20.8761 32.1717 20.1525V18.4566H25.8303V20.1525C25.8303 20.8761 25.5429 21.5701 25.0312 22.0817C24.5196 22.5934 23.8256 22.8808 23.102 22.8808C22.3784 22.8808 21.6845 22.5934 21.1728 22.0817C20.6612 21.5701 20.3737 20.8761 20.3737 20.1525V18.4566H16.4657ZM46.698 14.0323C46.2482 14.0323 45.8168 14.211 45.4988 14.5291C45.1807 14.8471 45.002 15.2785 45.002 15.7283V20.1525C45.002 20.6023 45.1807 21.0337 45.4988 21.3517C45.8168 21.6698 46.2482 21.8485 46.698 21.8485C47.1478 21.8485 47.5791 21.6698 47.8972 21.3517C48.2153 21.0337 48.3939 20.6023 48.3939 20.1525V15.7283C48.3939 15.2785 48.2153 14.8471 47.8972 14.5291C47.5791 14.211 47.1478 14.0323 46.698 14.0323ZM34.9 14.0323C34.4502 14.0323 34.0188 14.211 33.7008 14.5291C33.3827 14.8471 33.204 15.2785 33.204 15.7283V20.1525C33.204 20.3752 33.2479 20.5958 33.3331 20.8015C33.4184 21.0073 33.5433 21.1943 33.7008 21.3517C33.8583 21.5092 34.0452 21.6342 34.251 21.7194C34.4567 21.8046 34.6773 21.8485 34.9 21.8485C35.1227 21.8485 35.3433 21.8046 35.549 21.7194C35.7548 21.6342 35.9417 21.5092 36.0992 21.3517C36.2567 21.1943 36.3816 21.0073 36.4669 20.8015C36.5521 20.5958 36.596 20.3752 36.596 20.1525V15.7283C36.596 15.2785 36.4173 14.8471 36.0992 14.5291C35.7812 14.211 35.3498 14.0323 34.9 14.0323ZM23.102 14.0323C22.6522 14.0323 22.2208 14.211 21.9028 14.5291C21.5847 14.8471 21.4061 15.2785 21.4061 15.7283V20.1525C21.4061 20.6023 21.5847 21.0337 21.9028 21.3517C22.2208 21.6698 22.6522 21.8485 23.102 21.8485C23.5518 21.8485 23.9832 21.6698 24.3012 21.3517C24.6193 21.0337 24.798 20.6023 24.798 20.1525V15.7283C24.798 15.2785 24.6193 14.8471 24.3012 14.5291C23.9832 14.211 23.5518 14.0323 23.102 14.0323Z" fill="#2F2E3D"/>
<path d="M16.4657 53.8505C15.5471 53.8485 14.6667 53.4828 14.0172 52.8333C13.3677 52.1838 13.0019 51.3034 13 50.3848V20.8899C13.0019 19.9713 13.3677 19.091 14.0172 18.4415C14.6667 17.7919 15.5471 17.4262 16.4657 17.4242H20.3737V15.7283C20.3737 15.0047 20.6612 14.3107 21.1728 13.7991C21.6845 13.2874 22.3784 13 23.102 13C23.8256 13 24.5196 13.2874 25.0312 13.7991C25.5429 14.3107 25.8303 15.0047 25.8303 15.7283V17.4242H32.1717V15.7283C32.1717 15.0047 32.4592 14.3107 32.9708 13.7991C33.4825 13.2874 34.1764 13 34.9 13C35.6236 13 36.3175 13.2874 36.8292 13.7991C37.3408 14.3107 37.6283 15.0047 37.6283 15.7283V17.4242H43.9697V15.7283C43.9697 15.0047 44.2571 14.3107 44.7688 13.7991C45.2804 13.2874 45.9744 13 46.698 13C47.4216 13 48.1155 13.2874 48.6272 13.7991C49.1388 14.3107 49.4263 15.0047 49.4263 15.7283V17.4242H53.3343C54.2529 17.4262 55.1333 17.7919 55.7828 18.4415C56.4323 19.091 56.798 19.9713 56.8 20.8899V37.1121C56.8 37.249 56.7456 37.3803 56.6488 37.4771C56.552 37.5739 56.4207 37.6283 56.2838 37.6283C56.1469 37.6283 56.0157 37.5739 55.9189 37.4771C55.8221 37.3803 55.7677 37.249 55.7677 37.1121V27.305H14.0323V50.3848C14.0381 51.0284 14.2963 51.644 14.7514 52.0991C15.2065 52.5542 15.8221 52.8124 16.4657 52.8182H35.6374C35.7743 52.8182 35.9056 52.8726 36.0024 52.9694C36.0992 53.0662 36.1535 53.1974 36.1535 53.3343C36.1535 53.4712 36.0992 53.6025 36.0024 53.6993C35.9056 53.7961 35.7743 53.8505 35.6374 53.8505H16.4657ZM16.4657 18.4566C15.8221 18.4623 15.2065 18.7206 14.7514 19.1757C14.2963 19.6307 14.0381 20.2463 14.0323 20.8899V26.2727H55.7677V20.8899C55.7619 20.2463 55.5037 19.6307 55.0486 19.1757C54.5935 18.7206 53.9779 18.4623 53.3343 18.4566H49.4263V20.1525C49.4263 20.8761 49.1388 21.5701 48.6272 22.0817C48.1155 22.5934 47.4216 22.8808 46.698 22.8808C45.9744 22.8808 45.2804 22.5934 44.7688 22.0817C44.2571 21.5701 43.9697 20.8761 43.9697 20.1525V18.4566H37.6283V20.1525C37.6283 20.8761 37.3408 21.5701 36.8292 22.0817C36.3175 22.5934 35.6236 22.8808 34.9 22.8808C34.1764 22.8808 33.4825 22.5934 32.9708 22.0817C32.4592 21.5701 32.1717 20.8761 32.1717 20.1525V18.4566H25.8303V20.1525C25.8303 20.8761 25.5429 21.5701 25.0312 22.0817C24.5196 22.5934 23.8256 22.8808 23.102 22.8808C22.3784 22.8808 21.6845 22.5934 21.1728 22.0817C20.6612 21.5701 20.3737 20.8761 20.3737 20.1525V18.4566H16.4657ZM46.698 14.0323C46.2482 14.0323 45.8168 14.211 45.4988 14.5291C45.1807 14.8471 45.002 15.2785 45.002 15.7283V20.1525C45.002 20.6023 45.1807 21.0337 45.4988 21.3517C45.8168 21.6698 46.2482 21.8485 46.698 21.8485C47.1478 21.8485 47.5791 21.6698 47.8972 21.3517C48.2153 21.0337 48.3939 20.6023 48.3939 20.1525V15.7283C48.3939 15.2785 48.2153 14.8471 47.8972 14.5291C47.5791 14.211 47.1478 14.0323 46.698 14.0323ZM34.9 14.0323C34.4502 14.0323 34.0188 14.211 33.7008 14.5291C33.3827 14.8471 33.204 15.2785 33.204 15.7283V20.1525C33.204 20.3752 33.2479 20.5958 33.3331 20.8015C33.4184 21.0073 33.5433 21.1943 33.7008 21.3517C33.8583 21.5092 34.0452 21.6342 34.251 21.7194C34.4567 21.8046 34.6773 21.8485 34.9 21.8485C35.1227 21.8485 35.3433 21.8046 35.549 21.7194C35.7548 21.6342 35.9417 21.5092 36.0992 21.3517C36.2567 21.1943 36.3816 21.0073 36.4669 20.8015C36.5521 20.5958 36.596 20.3752 36.596 20.1525V15.7283C36.596 15.2785 36.4173 14.8471 36.0992 14.5291C35.7812 14.211 35.3498 14.0323 34.9 14.0323ZM23.102 14.0323C22.6522 14.0323 22.2208 14.211 21.9028 14.5291C21.5847 14.8471 21.4061 15.2785 21.4061 15.7283V20.1525C21.4061 20.6023 21.5847 21.0337 21.9028 21.3517C22.2208 21.6698 22.6522 21.8485 23.102 21.8485C23.5518 21.8485 23.9832 21.6698 24.3012 21.3517C24.6193 21.0337 24.798 20.6023 24.798 20.1525V15.7283C24.798 15.2785 24.6193 14.8471 24.3012 14.5291C23.9832 14.211 23.5518 14.0323 23.102 14.0323Z" stroke="black" stroke-width="1.2" mask="url(#path-2-outside-1_3857_9001)"/>
<path d="M46.6979 36.1535C46.3654 36.1535 46.0466 36.0214 45.8115 35.7864C45.5764 35.5513 45.4443 35.2324 45.4443 34.9V32.6879C45.4443 32.3554 45.5764 32.0366 45.8115 31.8015C46.0466 31.5664 46.3654 31.4343 46.6979 31.4343H49.6474C49.9798 31.4343 50.2987 31.5664 50.5337 31.8015C50.7688 32.0366 50.9009 32.3554 50.9009 32.6879V34.9C50.9009 35.2324 50.7688 35.5513 50.5337 35.7864C50.2987 36.0214 49.9798 36.1535 49.6474 36.1535H46.6979ZM46.4767 35.1212H49.8686V32.4667H46.4767V35.1212Z" fill="#2F2E3D" stroke="black" stroke-width="0.5"/>
<path d="M37.8495 36.1535C37.517 36.1535 37.1982 36.0214 36.9631 35.7864C36.728 35.5513 36.5959 35.2324 36.5959 34.9V32.6879C36.5959 32.3554 36.728 32.0366 36.9631 31.8015C37.1982 31.5664 37.517 31.4343 37.8495 31.4343H40.799C41.1314 31.4343 41.4503 31.5664 41.6854 31.8015C41.9204 32.0366 42.0525 32.3554 42.0525 32.6879V34.9C42.0525 35.2324 41.9204 35.5513 41.6854 35.7864C41.4503 36.0214 41.1314 36.1535 40.799 36.1535H37.8495ZM37.6283 35.1212H41.0202V32.4667H37.6283V35.1212Z" fill="#2F2E3D" stroke="black" stroke-width="0.5"/>
<path d="M20.1525 36.1535C19.82 36.1535 19.5012 36.0214 19.2661 35.7864C19.031 35.5513 18.8989 35.2324 18.8989 34.9V32.6879C18.8989 32.3554 19.031 32.0366 19.2661 31.8015C19.5012 31.5664 19.82 31.4343 20.1525 31.4343H23.102C23.4344 31.4343 23.7533 31.5664 23.9883 31.8015C24.2234 32.0366 24.3555 32.3554 24.3555 32.6879V34.9C24.3555 35.2324 24.2234 35.5513 23.9883 35.7864C23.7533 36.0214 23.4344 36.1535 23.102 36.1535H20.1525ZM19.9312 35.1212H23.3232V32.4667H19.9312V35.1212Z" fill="#2F2E3D" stroke="black" stroke-width="0.5"/>
<path d="M29.0011 49.4263C28.6686 49.4263 28.3498 49.2942 28.1147 49.0591C27.8796 48.824 27.7476 48.5052 27.7476 48.1727V45.9606C27.7476 45.796 27.78 45.633 27.843 45.4809C27.906 45.3288 27.9983 45.1906 28.1147 45.0742C28.2311 44.9578 28.3693 44.8655 28.5214 44.8025C28.6735 44.7395 28.8365 44.7071 29.0011 44.7071H31.9506C32.1152 44.7071 32.2782 44.7395 32.4303 44.8025C32.5824 44.8655 32.7206 44.9578 32.837 45.0742C32.9534 45.1906 33.0457 45.3288 33.1087 45.4809C33.1717 45.633 33.2041 45.796 33.2041 45.9606V48.1727C33.2041 48.5052 33.0721 48.824 32.837 49.0591C32.6019 49.2942 32.283 49.4263 31.9506 49.4263H29.0011ZM28.7799 48.394H32.1718V45.7394H28.7799V48.394Z" fill="#2F2E3D" stroke="black" stroke-width="0.5"/>
<path d="M20.1525 49.4263C19.82 49.4263 19.5012 49.2942 19.2661 49.0591C19.031 48.824 18.8989 48.5052 18.8989 48.1727V45.9606C18.8989 45.796 18.9313 45.633 18.9943 45.4809C19.0573 45.3288 19.1497 45.1906 19.2661 45.0742C19.3825 44.9578 19.5207 44.8655 19.6728 44.8025C19.8248 44.7395 19.9878 44.7071 20.1525 44.7071H23.102C23.2666 44.7071 23.4296 44.7395 23.5817 44.8025C23.7337 44.8655 23.8719 44.9578 23.9883 45.0742C24.1047 45.1906 24.1971 45.3288 24.2601 45.4809C24.3231 45.633 24.3555 45.796 24.3555 45.9606V48.1727C24.3555 48.5052 24.2234 48.824 23.9883 49.0591C23.7533 49.2942 23.4344 49.4263 23.102 49.4263H20.1525ZM19.9312 48.394H23.3232V45.7394H19.9312V48.394Z" fill="#2F2E3D" stroke="black" stroke-width="0.5"/>
<path d="M29.0011 36.1535C28.6686 36.1535 28.3498 36.0214 28.1147 35.7864C27.8796 35.5513 27.7476 35.2324 27.7476 34.9V32.6879C27.7476 32.3554 27.8796 32.0366 28.1147 31.8015C28.3498 31.5664 28.6686 31.4343 29.0011 31.4343H31.9506C32.283 31.4343 32.6019 31.5664 32.837 31.8015C33.0721 32.0366 33.2041 32.3554 33.2041 32.6879V34.9C33.2041 35.2324 33.0721 35.5513 32.837 35.7864C32.6019 36.0214 32.283 36.1535 31.9506 36.1535H29.0011ZM28.7799 35.1212H32.1718V32.4667H28.7799V35.1212Z" fill="#2F2E3D" stroke="black" stroke-width="0.5"/>
<path d="M29.0011 42.7899C28.8365 42.7899 28.6735 42.7574 28.5214 42.6945C28.3693 42.6315 28.2311 42.5391 28.1147 42.4227C27.9983 42.3063 27.906 42.1681 27.843 42.016C27.78 41.864 27.7476 41.701 27.7476 41.5363V39.3242C27.7476 38.9918 27.8796 38.6729 28.1147 38.4378C28.3498 38.2027 28.6686 38.0707 29.0011 38.0707H31.9506C32.283 38.0707 32.6019 38.2027 32.837 38.4378C33.0721 38.6729 33.2041 38.9918 33.2041 39.3242V41.5363C33.2041 41.701 33.1717 41.864 33.1087 42.016C33.0457 42.1681 32.9534 42.3063 32.837 42.4227C32.7206 42.5391 32.5824 42.6315 32.4303 42.6945C32.2782 42.7574 32.1152 42.7899 31.9506 42.7899H29.0011ZM28.7799 41.7575H32.1718V39.103H28.7799V41.7575Z" fill="#2F2E3D" stroke="black" stroke-width="0.5"/>
<path d="M20.1525 42.7899C19.9878 42.7899 19.8248 42.7574 19.6728 42.6945C19.5207 42.6315 19.3825 42.5391 19.2661 42.4227C19.1497 42.3063 19.0573 42.1681 18.9943 42.016C18.9313 41.864 18.8989 41.701 18.8989 41.5363V39.3242C18.8989 38.9918 19.031 38.6729 19.2661 38.4378C19.5012 38.2027 19.82 38.0707 20.1525 38.0707H23.102C23.4344 38.0707 23.7533 38.2027 23.9883 38.4378C24.2234 38.6729 24.3555 38.9918 24.3555 39.3242V41.5363C24.3555 41.701 24.3231 41.864 24.2601 42.016C24.1971 42.1681 24.1047 42.3063 23.9883 42.4227C23.8719 42.5391 23.7337 42.6315 23.5817 42.6945C23.4296 42.7574 23.2666 42.7899 23.102 42.7899H20.1525ZM19.9312 41.7575H23.3232V39.103H19.9312V41.7575Z" fill="#2F2E3D" stroke="black" stroke-width="0.5"/>
<path d="M47.4354 56.2838C52.3223 56.2838 56.2839 52.3222 56.2839 47.4353C56.2839 42.5485 52.3223 38.5869 47.4354 38.5869C42.5485 38.5869 38.5869 42.5485 38.5869 47.4353C38.5869 52.3222 42.5485 56.2838 47.4354 56.2838Z" fill="#EC1C24"/>
<path d="M47.4355 56.8C45.5833 56.8 43.7727 56.2507 42.2327 55.2217C40.6927 54.1927 39.4924 52.7302 38.7836 51.019C38.0749 49.3079 37.8894 47.4249 38.2507 45.6084C38.6121 43.7918 39.504 42.1232 40.8136 40.8135C42.1233 39.5039 43.7919 38.612 45.6085 38.2506C47.4251 37.8893 49.308 38.0747 51.0191 38.7835C52.7303 39.4923 54.1929 40.6926 55.2219 42.2326C56.2509 43.7726 56.8001 45.5832 56.8001 47.4353C56.7962 49.9178 55.8083 52.2975 54.0529 54.0528C52.2976 55.8082 49.9179 56.7961 47.4355 56.8ZM47.4355 39.103C45.7875 39.103 44.1765 39.5917 42.8063 40.5073C41.436 41.4228 40.368 42.7242 39.7374 44.2467C39.1067 45.7692 38.9417 47.4446 39.2632 49.0609C39.5847 50.6772 40.3783 52.1619 41.5436 53.3272C42.7089 54.4925 44.1936 55.286 45.8099 55.6075C47.4262 55.9291 49.1016 55.764 50.6241 55.1334C52.1466 54.5027 53.448 53.4348 54.3635 52.0645C55.2791 50.6943 55.7678 49.0833 55.7678 47.4353C55.7658 45.2261 54.8873 43.1078 53.3251 41.5456C51.7629 39.9835 49.6447 39.105 47.4355 39.103Z" fill="#E9262A"/>
</g>
<defs>
<clipPath id="clip0_3857_9001">
<rect width="70" height="70" fill="white"/>
</clipPath>
</defs>
</svg>
