<svg id="Layer_1" data-name="Layer 1" xmlns="http://www.w3.org/2000/svg" viewBox="0 0 60 60"><defs><style>.cls-1,.cls-3{fill:#fff;}.cls-2{fill:#28387d;}.cls-3{stroke:#28387d;}.cls-3,.cls-4{stroke-linecap:round;stroke-linejoin:round;}.cls-4{fill:#fbd2c0;stroke:#e9292c;}</style></defs><title>Mobile Icons</title><rect class="cls-1" x="7.58" y="26.08" width="6.88" height="15.04" rx="0.22"/><path class="cls-2" d="M14,26.58V40.63H8.08V26.58H14m.27-1H7.8a.73.73,0,0,0-.72.73V40.9a.73.73,0,0,0,.72.73h6.43A.73.73,0,0,0,15,40.9V26.31a.73.73,0,0,0-.73-.73Z"/><path class="cls-3" d="M39.12,37.06V26.31a.73.73,0,0,1,.73-.73h6.37a.73.73,0,0,1,.73.73V35.2"/><path class="cls-1" d="M39.19,26.53a1.07,1.07,0,0,1-1.06-1.06V21.74a.22.22,0,0,1,.22-.22h9.37a.22.22,0,0,1,.22.22v3.73a1.07,1.07,0,0,1-1.06,1.06Z"/><path class="cls-2" d="M47.44,22v3.45a.56.56,0,0,1-.56.56H39.19a.56.56,0,0,1-.56-.56V22h8.81m.28-1H38.35a.72.72,0,0,0-.72.72v3.73A1.56,1.56,0,0,0,39.19,27h7.69a1.56,1.56,0,0,0,1.56-1.56V21.74a.72.72,0,0,0-.72-.72Z"/><path class="cls-1" d="M7.17,26.53a1.07,1.07,0,0,1-1.06-1.06V21.74a.22.22,0,0,1,.22-.22H15.7a.22.22,0,0,1,.22.22v3.73a1.07,1.07,0,0,1-1.06,1.06Z"/><path class="cls-2" d="M15.42,22v3.45a.56.56,0,0,1-.56.56H7.17a.56.56,0,0,1-.56-.56V22h8.81m.28-1H6.33a.72.72,0,0,0-.72.72v3.73A1.56,1.56,0,0,0,7.17,27h7.69a1.56,1.56,0,0,0,1.56-1.56V21.74A.72.72,0,0,0,15.7,21Z"/><path class="cls-1" d="M6.33,45.7a.22.22,0,0,1-.22-.23V41.74a1.07,1.07,0,0,1,1.06-1.06h7.69a1.06,1.06,0,0,1,1.06,1.07v3.72a.22.22,0,0,1-.22.23Z"/><path class="cls-2" d="M14.86,41.18a.56.56,0,0,1,.56.56V45.2H6.61V41.74a.56.56,0,0,1,.56-.56h7.69m0-1H7.17a1.56,1.56,0,0,0-1.56,1.56v3.73a.73.73,0,0,0,.72.73H15.7a.73.73,0,0,0,.72-.73V41.74a1.56,1.56,0,0,0-1.56-1.56Z"/><path class="cls-1" d="M2.23,22A.22.22,0,0,1,2,21.74V16.47a.21.21,0,0,1,.11-.19L26.54,1.53a.27.27,0,0,1,.12,0,.2.2,0,0,1,.11,0L51.21,16.28a.21.21,0,0,1,.11.19v5.27a.22.22,0,0,1-.22.22H2.23Z"/><path class="cls-2" d="M26.8,2h0m-.14.09L50.82,16.63v4.83H2.51V16.63L26.66,2.05m0-1a.69.69,0,0,0-.37.1L1.86,15.85a.72.72,0,0,0-.35.62v5.27a.72.72,0,0,0,.72.72H51.1a.72.72,0,0,0,.72-.72V16.47a.72.72,0,0,0-.35-.62L27,1.1a.69.69,0,0,0-.37-.1Z"/><path class="cls-2" d="M26.66,8.16,40,16.23H13.29L26.66,8.16m0-1.17L9.7,17.23H43.63L26.66,7Z"/><path class="cls-3" d="M22.93,51.59H2.15a.75.75,0,0,1-.78-.72v-5.4a.75.75,0,0,1,.78-.72H19.36"/><path class="cls-4" d="M23.38,47.66,27,38.53a.56.56,0,0,1,.72-.31h0l2.86,1.13a.55.55,0,0,1,.31.71h0l-3.6,9.14a.55.55,0,0,1-.71.31h0l-2.87-1.13A.56.56,0,0,1,23.38,47.66Z"/><path class="cls-4" d="M48.63,52.77l-1.88-1.44"/><path class="cls-4" d="M46.12,54.79l-1.67-1.28"/><path class="cls-4" d="M43.36,56.63l-1.19-.92"/><path class="cls-4" d="M30.84,53.61h0a1.39,1.39,0,0,1-.17-2L32,50.12a1.39,1.39,0,1,1,2.12,1.8l-1.3,1.53A1.38,1.38,0,0,1,30.84,53.61Z"/><path class="cls-4" d="M33,55.41h0a1.38,1.38,0,0,1-.16-2l1.3-1.53a1.39,1.39,0,0,1,2.13,1.8l-1.31,1.53A1.38,1.38,0,0,1,33,55.41Z"/><path class="cls-4" d="M35.09,57.21h0a1.39,1.39,0,0,1-.17-2l1.31-1.53a1.39,1.39,0,0,1,2.12,1.8l-1.3,1.53A1.38,1.38,0,0,1,35.09,57.21Z"/><path class="cls-4" d="M37.21,59h0a1.4,1.4,0,0,1-.16-2l1.3-1.53a1.39,1.39,0,0,1,2.13,1.8l-1.31,1.53A1.39,1.39,0,0,1,37.21,59Z"/><path class="cls-4" d="M51,50.57l-.7-.52L47,47.62l-.38-.27a6.71,6.71,0,0,1-6-2.06.67.67,0,0,0-.93,0c-2.92,2.62-4.61,2-5.43,1.17a.84.84,0,0,1,.13-1.31,28.13,28.13,0,0,0,4.08-3.28l-.18-.07a7.34,7.34,0,0,0-2.07-.43l-1.93-.11a6.42,6.42,0,0,0-.76,0A3,3,0,0,1,32.13,41l-1.4-.59L27.31,49.1,30,50.81l.86.61L32,50.12a1.39,1.39,0,1,1,2.12,1.8,1.39,1.39,0,0,1,2.13,1.8,1.39,1.39,0,0,1,2.12,1.8,1.39,1.39,0,0,1,2.13,1.8l-.53.62,1.16.86a1.58,1.58,0,0,0,2.25-2.17l.59.43a1.6,1.6,0,0,0,2.15-.2,1.58,1.58,0,0,0,0-2.07l.33.24a1.58,1.58,0,0,0,2.18-2.26l.49.36a1.59,1.59,0,0,0,2.19-.29A1.61,1.61,0,0,0,51,50.57Z"/><path class="cls-4" d="M43.08,40.74l-2-.32a2.13,2.13,0,0,0-1.84.6,30.69,30.69,0,0,1-4.92,4.1.84.84,0,0,0-.13,1.31c.82.78,2.51,1.45,5.43-1.17a.67.67,0,0,1,.93,0,6.72,6.72,0,0,0,6.06,2.06l4.69,3.46,2.93-1.88-3.35-8.48-2,.75a3.67,3.67,0,0,1-1.77.17l-1.55-.25"/><path class="cls-4" d="M56,42.05l-1.39-3.52a.55.55,0,0,0-.71-.31L51,39.35a.55.55,0,0,0-.31.71l3.61,9.14a.55.55,0,0,0,.71.31l2.86-1.13a.55.55,0,0,0,.31-.72h0l-1.31-3.32"/></svg>