<svg width="70" height="70" viewBox="0 0 70 70" fill="none" xmlns="http://www.w3.org/2000/svg">
<g clip-path="url(#clip0_3857_8963)">
<path opacity="0.08" d="M35 70C54.33 70 70 54.33 70 35C70 15.67 54.33 0 35 0C15.67 0 0 15.67 0 35C0 54.33 15.67 70 35 70Z" fill="black"/>
<path d="M33.7214 13.0001V52.4428" stroke="#2F2E3D" stroke-width="1.7" stroke-linecap="round" stroke-linejoin="round"/>
<path d="M36.5932 52.2404C35.6418 52.375 34.6822 52.4426 33.7214 52.4427C29.8209 52.4427 26.0079 51.2861 22.7648 49.1191C19.5216 46.9521 16.9939 43.872 15.5012 40.2684C14.0085 36.6648 13.618 32.6995 14.3789 28.8739C15.1399 25.0484 17.0182 21.5343 19.7763 18.7763C22.5343 16.0182 26.0484 14.1399 29.8739 13.3789C33.6995 12.618 37.6648 13.0085 41.2684 14.5012C44.872 15.9939 47.9521 18.5216 50.1191 21.7648C52.2861 25.0079 53.4427 28.8209 53.4427 32.7214C53.4423 33.8982 53.3381 35.0728 53.1314 36.2314" stroke="#2F2E3D" stroke-width="1.7" stroke-linecap="round" stroke-linejoin="round"/>
<path d="M33.7215 52.4428C27.8144 52.4428 23.0281 43.6172 23.0281 32.7214C23.0281 21.8256 27.8144 13.0001 33.7215 13.0001C39.6286 13.0001 44.4149 21.8334 44.4149 32.7214" stroke="#2F2E3D" stroke-width="1.7" stroke-linecap="round" stroke-linejoin="round"/>
<path d="M35.628 43.2514C31.5888 42.9713 26.6001 43.8585 20.9888 47.3996" stroke="#2F2E3D" stroke-width="1.7" stroke-linecap="round" stroke-linejoin="round"/>
<path d="M20.9888 18.0899C20.9888 18.0899 31.4721 27.507 46.4538 18.0899" stroke="#2F2E3D" stroke-width="1.7" stroke-linecap="round" stroke-linejoin="round"/>
<path d="M14.0391 32.7214H53.404" stroke="#2F2E3D" stroke-width="1.7" stroke-linecap="round" stroke-linejoin="round"/>
<path d="M48.8119 48.2246C50.0887 48.3603 51.3291 48.7324 52.4698 49.3219C53.5884 49.8506 54.5353 50.6842 55.2015 51.7268C55.9035 52.8432 56.2908 54.1285 56.3222 55.4469C53.7779 56.2997 51.1208 56.7692 48.4383 56.84H46.3448C43.6597 56.77 40.9999 56.3005 38.4531 55.4469C38.4832 54.1259 38.8704 52.8376 39.5738 51.719C40.2401 50.6764 41.1869 49.8428 42.3056 49.3142C43.4462 48.7247 44.6866 48.3525 45.9634 48.2168" fill="#EC1C24"/>
<path d="M48.8119 48.2246C50.0887 48.3603 51.3291 48.7324 52.4698 49.3219C53.5884 49.8506 54.5353 50.6842 55.2015 51.7268C55.9035 52.8432 56.2908 54.1285 56.3222 55.4469C53.7779 56.2997 51.1208 56.7692 48.4383 56.84H46.3448C43.6597 56.77 40.9999 56.3005 38.4531 55.4469C38.4832 54.1259 38.8704 52.8376 39.5738 51.719C40.2401 50.6764 41.1869 49.8428 42.3056 49.3142C43.4462 48.7247 44.6866 48.3525 45.9634 48.2168" stroke="#E9292C" stroke-linecap="round" stroke-linejoin="round"/>
<path d="M53.6216 56.2251V54.0071Z" fill="#FBD2C0"/>
<path d="M53.6216 56.2251V54.0071" stroke="#E9292C" stroke-linecap="round" stroke-linejoin="round"/>
<path d="M41.1538 56.2251V54.0071Z" fill="#FBD2C0"/>
<path d="M41.1538 56.2251V54.0071" stroke="#E9292C" stroke-linecap="round" stroke-linejoin="round"/>
<path d="M52.3298 44.3177C52.5769 44.2867 52.813 44.197 53.0182 44.056C53.2234 43.9149 53.3918 43.7267 53.5092 43.5071C53.6266 43.2875 53.6896 43.043 53.693 42.794C53.6963 42.545 53.6399 42.2989 53.5284 42.0762H52.3298" fill="#EC1C24"/>
<path d="M52.3298 44.3177C52.5769 44.2867 52.813 44.197 53.0182 44.056C53.2234 43.9149 53.3918 43.7267 53.5092 43.5071C53.6266 43.2875 53.6896 43.043 53.693 42.794C53.6963 42.545 53.6399 42.2989 53.5284 42.0762H52.3298" stroke="#E9292C" stroke-linecap="round" stroke-linejoin="round"/>
<path d="M42.3991 44.3177C42.1516 44.2894 41.9148 44.2003 41.7101 44.0583C41.5053 43.9163 41.3389 43.7259 41.2256 43.504C41.1123 43.282 41.0557 43.0355 41.0609 42.7864C41.066 42.5373 41.1327 42.2933 41.2551 42.0762H42.3836" fill="#EC1C24"/>
<path d="M42.3991 44.3177C42.1516 44.2894 41.9148 44.2003 41.7101 44.0583C41.5053 43.9163 41.3389 43.7259 41.2256 43.504C41.1123 43.282 41.0557 43.0355 41.0609 42.7864C41.066 42.5373 41.1327 42.2933 41.2551 42.0762H42.3836" stroke="#E9292C" stroke-linecap="round" stroke-linejoin="round"/>
<path d="M49.7771 39.2277L46.5083 38.6596L44.5471 39.1032L42.7415 39.9982L42.3679 42.0451V42.0918V42.6054V43.9363C42.3679 46.4112 44.8506 48.4425 47.3488 48.458C48.3714 48.4519 49.3688 48.1402 50.2129 47.563C50.8349 47.179 51.3532 46.6483 51.7223 46.0173C52.0913 45.3863 52.2999 44.6744 52.3298 43.9441V42.0762L49.7771 39.2277Z" fill="#EC1C24" stroke="#E9292C" stroke-linecap="round" stroke-linejoin="round"/>
<path d="M52.3298 42.0762C53.0069 34.4725 42.3679 35.1419 42.3679 40.94V42.0762C42.598 42.1162 42.8341 42.1039 43.0588 42.0403C43.2834 41.9766 43.4909 41.8633 43.6658 41.7085C43.8407 41.5538 43.9785 41.3617 44.0691 41.1465C44.1597 40.9313 44.2007 40.6984 44.1891 40.4652C44.7436 41.0184 45.4089 41.448 46.1413 41.7257C46.8737 42.0034 47.6565 42.1228 48.4384 42.0762H52.3298Z" fill="#EC1C24" stroke="#E9292C" stroke-linecap="round" stroke-linejoin="round"/>
</g>
<defs>
<clipPath id="clip0_3857_8963">
<rect width="70" height="70" fill="white"/>
</clipPath>
</defs>
</svg>
