<svg id="Layer_1" data-name="Layer 1" xmlns="http://www.w3.org/2000/svg" viewBox="0 0 60 60"><defs><style>.cls-1{fill:#fbd2c0;stroke:#e9292c;}.cls-1,.cls-2{stroke-linecap:round;stroke-linejoin:round;}.cls-2{fill:none;stroke:#28387d;}</style></defs><title>Mobile Icons</title><path class="cls-1" d="M54.93,17.53a11.3,11.3,0,1,1-11.3-11.3A11.29,11.29,0,0,1,54.93,17.53Z"/><path class="cls-1" d="M49.24,13.65l-8,8L37.79,16"/><path class="cls-2" d="M26.54,36.42H17.61a1.17,1.17,0,0,1-1.18-1.17v-7A1.18,1.18,0,0,1,17.61,27h8.93a1.17,1.17,0,0,1,1.17,1.18v7.05A1.17,1.17,0,0,1,26.54,36.42Z"/><path class="cls-2" d="M16.43,46.19H39.32"/><path class="cls-2" d="M16.43,49.15H27.88"/><path class="cls-2" d="M29.47,40.6v1.88"/><path class="cls-2" d="M33,40.6v1.88"/><path class="cls-2" d="M36.58,40.6v1.88"/><path class="cls-2" d="M40.14,40.6v1.88"/><path class="cls-2" d="M46.06,40.6v1.88"/><path class="cls-2" d="M49.62,40.6v1.88"/><path class="cls-2" d="M53.17,40.6v1.88"/><path class="cls-2" d="M16.43,40.6v1.88"/><path class="cls-2" d="M20,40.6v1.88"/><path class="cls-2" d="M23.54,40.6v1.88"/><path class="cls-2" d="M22.07,27v9.4"/><path class="cls-2" d="M22.07,31.72h5.64"/><path class="cls-2" d="M53.7,36.42h-8a.42.42,0,0,1-.42-.42V33.71a.42.42,0,0,1,.42-.42h8a.41.41,0,0,1,.41.41h0V36a.41.41,0,0,1-.41.42Z"/><path class="cls-2" d="M56.67,23A4.71,4.71,0,0,1,59,27.1v22a4.69,4.69,0,0,1-4.69,4.69h-39a4.69,4.69,0,0,1-4.69-4.69v-22a4.69,4.69,0,0,1,4.69-4.69H29.81"/><path class="cls-2" d="M8,42.59H5.69A4.69,4.69,0,0,1,1,37.9v-22a4.69,4.69,0,0,1,4.69-4.69h25"/><line class="cls-2" x1="1" y1="17.67" x2="29.47" y2="17.7"/><line class="cls-2" x1="1" y1="25.23" x2="8.28" y2="25.26"/></svg>