<svg width="70" height="70" viewBox="0 0 70 70" fill="none" xmlns="http://www.w3.org/2000/svg">
<g clip-path="url(#clip0_3858_9028)">
<path opacity="0.08" d="M35 70C54.33 70 70 54.33 70 35C70 15.67 54.33 0 35 0C15.67 0 0 15.67 0 35C0 54.33 15.67 70 35 70Z" fill="black"/>
<path d="M34.5601 29.2914C29.7774 29.0741 27.6035 25.5233 27.6035 22.3349C27.6035 19.1464 29.7774 15.5232 34.5601 15.3783C38.4007 15.3783 41.5167 18.4943 41.5167 22.3349C41.5167 26.1755 38.4007 29.2914 34.5601 29.2914Z" fill="#E9262A"/>
<path d="M34.5601 29.2914C29.7774 29.0741 27.6035 25.5233 27.6035 22.3349C27.6035 19.1464 29.7774 15.5232 34.5601 15.3783C38.4007 15.3783 41.5167 18.4943 41.5167 22.3349C41.5167 26.1755 38.4007 29.2914 34.5601 29.2914ZM34.5601 16.4653C31.3717 16.4653 28.7629 19.074 28.6905 22.2624C28.6905 25.5233 31.2992 28.132 34.5601 28.132C37.6761 28.2045 40.2848 25.6682 40.3572 22.5523C40.3572 22.4798 40.3572 22.4073 40.3572 22.3349C40.4297 19.2189 37.9659 16.5377 34.8499 16.4653C34.7775 16.4653 34.6326 16.4653 34.5601 16.4653Z" fill="#E9262A"/>
<path d="M15.1398 52.48C14.9949 52.48 14.8499 52.48 14.7775 52.4075C13.5456 52.1901 12.8209 51.0307 13.0383 49.8713L17.7485 37.1176C17.9659 36.1031 18.8355 35.3784 19.85 35.3784H26.2268L26.0094 35.0161C22.821 30.0885 21.2268 25.8131 21.2268 22.3348C22.0964 12.4797 28.7631 9.0014 34.1979 9.0014C39.2704 8.92893 43.9806 11.6826 46.4444 16.1029C49.198 21.3203 47.9661 27.9871 43.111 35.0161L42.8936 35.3784H49.2705C50.285 35.3784 51.1546 36.1031 51.372 37.1176L56.0821 49.9437C56.0821 50.0887 56.0821 50.2336 56.0821 50.3061C56.0821 51.538 55.1401 52.48 53.9082 52.48H15.1398ZM19.85 36.4654C19.3427 36.4654 18.9079 36.8277 18.8355 37.335L14.1253 50.0887C14.1253 50.1611 14.1253 50.2336 14.1253 50.3061C14.1253 50.8858 14.5601 51.3206 15.1398 51.3206H53.9807C54.0531 51.3206 54.1256 51.3206 54.1981 51.3206C54.7778 51.1756 55.0676 50.6684 54.9952 50.0887L50.285 37.2625C50.2125 36.7552 49.7777 36.4654 49.2705 36.4654H42.169L42.0241 36.5378C40.2849 39.0741 38.3284 41.4654 36.2269 43.7843L35.8646 44.1466H39.3429C39.6327 44.1466 39.9226 44.364 39.9226 44.7263C39.9226 45.0162 39.7052 45.306 39.3429 45.306H29.7776C29.4877 45.306 29.1979 45.0886 29.1979 44.7263C29.1979 44.4365 29.4153 44.1466 29.7776 44.1466H33.2559L32.8936 43.7843C30.7921 41.4654 28.908 39.0741 27.0964 36.5378L27.0239 36.4654H19.85ZM34.5602 10.0884C27.821 10.0884 22.3138 15.5957 22.3138 22.3348C22.3138 30.3784 31.5167 40.7408 34.4153 43.7843L34.5602 43.9292L34.7052 43.7843C37.5313 40.8132 46.8067 30.3784 46.8067 22.4073C46.8067 15.5957 41.2994 10.0884 34.5602 10.0884Z" fill="#2F2E3D" stroke="black" stroke-width="1.5"/>
</g>
<defs>
<clipPath id="clip0_3858_9028">
<rect width="70" height="70" fill="white"/>
</clipPath>
</defs>
</svg>
