<svg width="46" height="34" viewBox="0 0 46 34" fill="none" xmlns="http://www.w3.org/2000/svg">
<path d="M29.8656 34L27.6033 30.5791C36.0453 26.0892 35.8985 18.8845 35.8985 17.3331C35.114 17.4326 34.2891 17.4525 33.4692 17.3779C28.904 16.9602 25.3055 13.2758 25.3055 8.70138C25.3055 3.89822 29.2735 2.43276e-06 34.1625 2.85899e-06C36.8804 3.09593e-06 39.4768 1.21819 41.1166 2.93361C43.7231 5.64844 45.125 8.70138 45.125 13.6487C45.125 22.3501 38.9099 30.1465 29.8656 34ZM4.55984 34L2.2975 30.5791C10.7395 26.0892 10.5927 18.8845 10.5927 17.3331C9.80826 17.4326 8.98329 17.4525 8.16338 17.3779C3.59822 16.9602 -0.000261397 13.2758 -0.000260996 8.70137C-0.000260575 3.89821 3.96768 2.26598e-07 8.85676 6.52828e-07C11.5746 8.8977e-07 14.171 1.21819 15.8108 2.93361C18.4173 5.64844 19.8192 8.70138 19.8192 13.6487C19.8192 22.3501 13.6041 30.1465 4.55984 34Z" fill="#304087"/>
</svg>
