<svg width="46" height="35" viewBox="0 0 46 35" fill="none" xmlns="http://www.w3.org/2000/svg">
<path d="M15.6559 0L17.9182 3.5215C9.4762 8.14346 9.62297 15.5601 9.62297 17.1571C10.4074 17.0547 11.2324 17.0342 12.0523 17.111C16.6175 17.5409 20.216 21.3337 20.216 26.0427C20.216 30.9871 16.248 35 11.3589 35C8.64111 35 6.04473 33.746 4.40492 31.9801C1.79842 29.1854 0.396484 26.0427 0.396484 20.9498C0.396484 11.9925 6.61158 3.9668 15.6559 0ZM40.9616 0L43.224 3.5215C34.782 8.14346 34.9287 15.5601 34.9287 17.1571C35.7132 17.0547 36.5382 17.0342 37.3581 17.111C41.9233 17.5409 45.5217 21.3337 45.5217 26.0427C45.5217 30.9871 41.5538 35 36.6647 35C33.9469 35 31.3505 33.746 29.7107 31.9801C27.1042 29.1854 25.7023 26.0427 25.7023 20.9498C25.7023 11.9925 31.9174 3.9668 40.9616 0Z" fill="#304087"/>
</svg>
