<svg id="Rise_Saving_Account" data-name="Rise Saving Account" xmlns="http://www.w3.org/2000/svg" viewBox="0 0 32 32"><defs><style>.cls-1{opacity:0.08;isolation:isolate;}.cls-2,.cls-3{fill:none;stroke-linecap:round;stroke-linejoin:round;stroke-width:0.6px;}.cls-2{stroke:#2f2e3d;}.cls-3{stroke:#e9262a;}</style></defs><title>DigitalSavingAccount01</title><circle class="cls-1" cx="16" cy="16" r="16"/><path class="cls-2" d="M23.05,25.06a8.65,8.65,0,1,1,2.5-2.55"/><path class="cls-2" d="M24.42,23.92h0"/><path class="cls-2" d="M18.41,24.33a6.46,6.46,0,1,1,6.46-6.46A6.46,6.46,0,0,1,18.41,24.33Z"/><path class="cls-2" d="M16.78,7.64H20A1.07,1.07,0,0,0,21,6.55h0a1,1,0,0,0-1-1H16.78a1,1,0,0,0-1.05,1v0h0A1.14,1.14,0,0,0,16.78,7.64Z"/><path class="cls-2" d="M19.91,9.37V7.59h-3V9.37"/><path class="cls-3" d="M17.46,17.92a1,1,0,0,0,.95.95.93.93,0,0,0,1-.91v0a1,1,0,0,0-1-1h0a.93.93,0,0,0-.95.91Z"/><path class="cls-2" d="M23.14,17.92h-.41"/><path class="cls-2" d="M13.64,17.92h.41"/><path class="cls-2" d="M18.41,13.14v.41"/><path class="cls-2" d="M18.41,22.65v-.41"/><path class="cls-3" d="M17.69,17.19,16.46,16"/><path class="cls-3" d="M19.05,17.23l2.41-2.41"/><path class="cls-2" d="M10.27,20.64H6.86"/><path class="cls-2" d="M9.86,18.05H7.45"/><path class="cls-2" d="M10.14,15.46H5.09"/><path class="cls-2" d="M11.27,12.87H8.09"/><path class="cls-2" d="M5.09,20.64h0"/></svg>