<svg id="Rise_Saving_Account" data-name="Rise Saving Account" xmlns="http://www.w3.org/2000/svg" viewBox="0 0 32 32"><defs><style>.cls-1{opacity:0.08;isolation:isolate;}.cls-2{fill:none;stroke:#2f2e3d;stroke-width:0.6px;}.cls-2,.cls-5{stroke-linecap:round;stroke-linejoin:round;}.cls-3{fill:#ed1c24;}.cls-4,.cls-5,.cls-6{fill:#fff;}.cls-5{stroke:#fff;}.cls-5,.cls-6{stroke-width:0.3px;}.cls-6{stroke:#ed1c24;stroke-miterlimit:10;}</style></defs><title>DigitalSavingAccount01</title><circle class="cls-1" cx="16" cy="16" r="16"/><path class="cls-2" d="M19.34,18.6v5.75a2.21,2.21,0,0,1-2.27,2.15H9.79a2.21,2.21,0,0,1-2.27-2.15V7.65A2.21,2.21,0,0,1,9.79,5.5h7.28a2.21,2.21,0,0,1,2.27,2.15V9.46"/><line class="cls-2" x1="7.52" y1="8.41" x2="19.34" y2="8.41"/><line class="cls-2" x1="7.52" y1="23.79" x2="19.34" y2="23.79"/><line class="cls-2" x1="11.35" y1="6.86" x2="12.11" y2="6.86"/><line class="cls-2" x1="13.05" y1="6.86" x2="13.81" y2="6.86"/><line class="cls-2" x1="14.75" y1="6.86" x2="15.51" y2="6.86"/><line class="cls-2" x1="11.54" y1="24.95" x2="15.32" y2="24.95"/><path class="cls-3" d="M24,11.12,23.76,11h-8.2a1,1,0,0,0-1,1v4.48a1,1,0,0,0,1,1h8a1,1,0,0,0,.95-1V12A1,1,0,0,0,24,11.12Z"/><path class="cls-4" d="M17.86,13.85H16a.24.24,0,0,1-.24-.24V12.17a.24.24,0,0,1,.24-.24h1.82a.24.24,0,0,1,.24.24v1.44A.24.24,0,0,1,17.86,13.85Z"/><path class="cls-5" d="M15.8,16.18h2.33"/><path class="cls-5" d="M18.46,14.7v.38"/><path class="cls-5" d="M19.18,14.7v.38"/><path class="cls-5" d="M19.91,14.7v.38"/><path class="cls-5" d="M20.63,14.7v.38"/><path class="cls-5" d="M21.84,14.7v.38"/><path class="cls-5" d="M22.57,14.7v.38"/><path class="cls-5" d="M23.29,14.7v.38"/><path class="cls-5" d="M15.8,14.7v.38"/><path class="cls-5" d="M16.52,14.7v.38"/><path class="cls-5" d="M17.25,14.7v.38"/><path class="cls-6" d="M17,11.41v3"/><path class="cls-6" d="M17,12.89h1.67"/><path class="cls-4" d="M23.4,13.85H21.78a.09.09,0,0,1-.09-.09v-.47a.09.09,0,0,1,.09-.08H23.4a.09.09,0,0,1,.09.08h0v.47a.09.09,0,0,1-.09.09Z"/></svg>