<svg id="Rise_Saving_Account" data-name="Rise Saving Account" xmlns="http://www.w3.org/2000/svg" viewBox="0 0 32 32"><defs><style>.cls-1{opacity:0.08;isolation:isolate;}.cls-2,.cls-4{fill:none;stroke-linecap:round;stroke-linejoin:round;stroke-width:0.6px;}.cls-2{stroke:#2f2e3d;}.cls-3{fill:#ed1c24;}.cls-4{stroke:#fff;}</style></defs><title>DigitalSavingAccount</title><circle class="cls-1" cx="16" cy="16" r="16"/><path class="cls-2" d="M19.38,15.45v-.84a.26.26,0,0,1,.26-.26h2.3a.26.26,0,0,1,.26.26v1.11"/><path class="cls-2" d="M22.18,14.34H19.41a.56.56,0,0,1-.56-.56V12.44a.26.26,0,0,1,.26-.26h3.37a.26.26,0,0,1,.26.26v1.34a.56.56,0,0,1-.56.56Z"/><path class="cls-2" d="M23.69,12H6.1a.26.26,0,0,1-.26-.26V9.83A.28.28,0,0,1,6,9.6l8.79-5.3a.26.26,0,0,1,.27,0l8.8,5.3a.27.27,0,0,1,.12.23v1.9A.26.26,0,0,1,23.69,12Z"/><polygon class="cls-2" points="8.79 10.1 14.9 6.42 21 10.1 8.79 10.1"/><rect class="cls-2" x="7.85" y="14.35" width="2.84" height="5.78" rx="0.26"/><path class="cls-2" d="M10.65,14.34H7.88a.56.56,0,0,1-.56-.56V12.44a.26.26,0,0,1,.26-.26H11a.26.26,0,0,1,.26.26v1.34a.56.56,0,0,1-.56.56Z"/><path class="cls-2" d="M11,22.43H7.58a.25.25,0,0,1-.26-.26V20.83a.56.56,0,0,1,.56-.56h2.77a.56.56,0,0,1,.56.56v1.34a.26.26,0,0,1-.26.26Z"/><path class="cls-2" d="M14.31,25H6.05a.26.26,0,0,1-.26-.26v-2a.26.26,0,0,1,.26-.26h7.67"/><circle class="cls-3" cx="20.57" cy="22.1" r="5.64"/><path class="cls-4" d="M22.6,21.65h1.74L23,24.8"/><path class="cls-4" d="M22.68,19.43,20.32,24.8"/><path class="cls-4" d="M20.73,21.65h-2s1.05-1.9,1.22-2.11.34-.08.36.11,0,2.93,0,2.93"/><path class="cls-4" d="M18.52,22.6h-1.6S17,22.45,18,21a2.13,2.13,0,0,0,.34-.68v-.12a.8.8,0,0,0-1.59-.16"/></svg>