<svg width="70" height="70" viewBox="0 0 70 70" fill="none" xmlns="http://www.w3.org/2000/svg">
<g clip-path="url(#clip0_3854_8500)">
<path opacity="0.08" d="M35 70C54.33 70 70 54.33 70 35C70 15.67 54.33 0 35 0C15.67 0 0 15.67 0 35C0 54.33 15.67 70 35 70Z" fill="black"/>
<path d="M34.5403 30.8776C36.1832 31.6303 38.043 31.7635 39.7764 31.2526C41.5098 30.7416 43.0001 29.6211 43.9721 28.0976C44.9442 26.5742 45.3326 24.7506 45.0655 22.9632C44.7985 21.1759 43.8942 19.5454 42.5193 18.3725C41.1444 17.1997 39.3918 16.5636 37.5847 16.5816C35.7776 16.5996 34.038 17.2705 32.6868 18.4705C31.3355 19.6705 30.4639 21.3187 30.2325 23.111C30.0012 24.9033 30.4258 26.7188 31.428 28.2226" fill="#E9292C"/>
<path d="M34.5403 30.8776C36.1832 31.6303 38.043 31.7635 39.7764 31.2526C41.5098 30.7416 43.0001 29.6211 43.9721 28.0976C44.9442 26.5742 45.3326 24.7506 45.0655 22.9632C44.7985 21.1759 43.8942 19.5454 42.5193 18.3725C41.1444 17.1997 39.3918 16.5636 37.5847 16.5816C35.7776 16.5996 34.038 17.2705 32.6868 18.4705C31.3355 19.6705 30.4639 21.3187 30.2325 23.111C30.0012 24.9033 30.4258 26.7188 31.428 28.2226" stroke="#E9292C" stroke-width="1.7" stroke-miterlimit="10"/>
<path d="M19.5164 20.0374V24.0351" stroke="#2F2E3D" stroke-width="1.7" stroke-linecap="round" stroke-linejoin="round"/>
<path d="M21.5438 22.0535H17.5" stroke="#2F2E3D" stroke-width="1.7" stroke-linecap="round" stroke-linejoin="round"/>
<path d="M44.8601 39.6226V43.6548" stroke="#2F2E3D" stroke-width="1.7" stroke-linecap="round" stroke-linejoin="round"/>
<path d="M46.8796 41.5923H42.8474" stroke="#2F2E3D" stroke-width="1.7" stroke-linecap="round" stroke-linejoin="round"/>
<path d="M51.7864 15.4292V19.473" stroke="#2F2E3D" stroke-width="1.7" stroke-linecap="round" stroke-linejoin="round"/>
<path d="M53.8011 17.4452H49.7573" stroke="#2F2E3D" stroke-width="1.7" stroke-linecap="round" stroke-linejoin="round"/>
<path d="M22.8026 56.9406H32.1128C32.2299 56.9406 32.3458 56.9174 32.4539 56.8724C32.562 56.8274 32.6601 56.7615 32.7427 56.6785C32.8252 56.5954 32.8905 56.4968 32.9347 56.3885C32.979 56.2801 33.0014 56.164 33.0006 56.0469V55.1124C33.0006 54.8769 32.9071 54.6511 32.7406 54.4846C32.5741 54.3181 32.3483 54.2246 32.1128 54.2246H22.8026C22.5666 54.2246 22.3402 54.3179 22.1727 54.4843C22.0053 54.6506 21.9105 54.8764 21.9089 55.1124V56.0469C21.9089 56.2839 22.0031 56.5112 22.1707 56.6788C22.3383 56.8464 22.5656 56.9406 22.8026 56.9406Z" stroke="#2F2E3D" stroke-width="1.7" stroke-linecap="round" stroke-linejoin="round"/>
<path d="M20.9568 48.4947V48.7633C20.9541 49.5367 21.1112 50.3023 21.4182 51.012L22.6331 53.8857C22.6799 53.9967 22.7207 54.1135 22.7616 54.2303" stroke="#2F2E3D" stroke-width="1.7" stroke-linecap="round" stroke-linejoin="round"/>
<path d="M32.9351 52.295C33.1136 51.9083 33.333 51.542 33.5896 51.2021L34.2441 50.3068C35.0384 49.2649 35.4718 47.9926 35.479 46.6825V42.2863C35.4777 41.8868 35.3222 41.5032 35.0449 41.2156C34.7677 40.928 34.3901 40.7586 33.9909 40.7427C33.8321 40.7436 33.6742 40.7664 33.5217 40.8106C33.4635 40.8301 33.4016 40.8355 33.341 40.8265C33.2804 40.8175 33.2227 40.7943 33.1728 40.7588C33.1228 40.7233 33.082 40.6765 33.0535 40.6222C33.0251 40.5679 33.0099 40.5076 33.0092 40.4463V31.9504C33.0129 31.5556 32.8641 31.1747 32.5937 30.8871C32.3234 30.5995 31.9524 30.4274 31.5582 30.4068C31.3557 30.3993 31.1538 30.4327 30.9646 30.5051C30.7754 30.5774 30.6027 30.6872 30.4568 30.8279C30.311 30.9685 30.195 31.1371 30.1159 31.3236C30.0367 31.5101 29.996 31.7107 29.9961 31.9133V39.2176C29.9962 39.015 29.9555 38.8145 29.8763 38.6279C29.7972 38.4414 29.6812 38.2728 29.5354 38.1322C29.3895 37.9915 29.2168 37.8817 29.0276 37.8094C28.8383 37.737 28.6364 37.7036 28.434 37.7111C28.0403 37.7302 27.6694 37.901 27.3989 38.1876C27.1284 38.4742 26.9793 38.8544 26.983 39.2485V40.7056C26.9831 40.503 26.9424 40.3025 26.8632 40.116C26.7841 39.9295 26.6681 39.7609 26.5223 39.6202C26.3764 39.4796 26.2037 39.3698 26.0145 39.2974C25.8252 39.2251 25.6233 39.1916 25.4209 39.1991C25.0272 39.2182 24.6563 39.389 24.3858 39.6756C24.1153 39.9622 23.9662 40.3424 23.9699 40.7365V41.5639C23.9699 41.366 23.9309 41.1701 23.8552 40.9874C23.7795 40.8046 23.6685 40.6385 23.5286 40.4986C23.3887 40.3587 23.2227 40.2477 23.0399 40.172C22.8571 40.0963 22.6612 40.0573 22.4633 40.0573C22.2655 40.0573 22.0696 40.0963 21.8868 40.172C21.704 40.2477 21.5379 40.3587 21.398 40.4986C21.2581 40.6385 21.1472 40.8046 21.0715 40.9874C20.9958 41.1701 20.9568 41.366 20.9568 41.5639V43.6632" stroke="#2F2E3D" stroke-width="1.7" stroke-linecap="round" stroke-linejoin="round"/>
<path d="M36.8439 36.1663C37.0863 36.1663 37.3362 36.1663 37.6013 36.1663C40.1566 36.1648 42.6389 35.3138 44.6577 33.7472C46.6764 32.1806 48.1171 29.9873 48.7529 27.5124C49.3888 25.0374 49.1837 22.4213 48.1701 20.0757C47.1565 17.73 45.3917 15.7879 43.1536 14.5549C40.9154 13.3219 38.3308 12.868 35.8065 13.2646C33.2821 13.6612 30.9613 14.8859 29.2091 16.7458C27.4569 18.6057 26.3727 20.9954 26.1273 23.5389C25.8818 26.0824 26.4889 28.6354 27.8531 30.7961" stroke="#2F2E3D" stroke-width="1.7" stroke-linecap="round" stroke-linejoin="round"/>
</g>
<defs>
<clipPath id="clip0_3854_8500">
<rect width="70" height="70" fill="white"/>
</clipPath>
</defs>
</svg>
