<svg width="18" height="18" viewBox="0 0 18 18" fill="none" xmlns="http://www.w3.org/2000/svg">
<path fill-rule="evenodd" clip-rule="evenodd" d="M9 0C4.02919 0 0 4.02919 0 9C0 13.9703 4.02919 18 9 18C13.9703 18 18 13.9708 18 9C18 4.02919 13.9703 0 9 0ZM9 16.875C4.65075 16.875 1.125 13.3492 1.125 9C1.125 4.65075 4.65075 1.125 9 1.125C13.3492 1.125 16.875 4.65075 16.875 9C16.875 13.3492 13.3492 16.875 9 16.875Z" fill="white"/>
<path fill-rule="evenodd" clip-rule="evenodd" d="M12.785 11.9639L9.82177 9.00013L12.7681 6.07794C12.9903 5.858 12.9903 5.50194 12.7681 5.28256C12.5465 5.06319 12.1865 5.06319 11.9649 5.28256L9.02246 8.20081L6.03615 5.21394C5.81452 4.99119 5.45452 4.99119 5.2329 5.21394C5.01127 5.43613 5.01127 5.79725 5.2329 6.01944L8.21471 9.00181L5.21602 11.9757C4.9944 12.1957 4.9944 12.5517 5.21602 12.7711C5.43765 12.9911 5.79765 12.9911 6.01984 12.7711L9.01459 9.80113L11.9823 12.7689C12.204 12.9916 12.564 12.9916 12.7856 12.7689C13.0066 12.5472 13.0066 12.1867 12.785 11.9639Z" fill="white"/>
</svg>
