<?xml version="1.0" encoding="UTF-8"?>
<svg id="Layer_1" data-name="Layer 1" xmlns="http://www.w3.org/2000/svg" xmlns:xlink="http://www.w3.org/1999/xlink" viewBox="0 0 32 32">
  <defs>
    <style>
      .cls-1 {
        fill: url(#linear-gradient-2);
      }

      .cls-2 {
        opacity: .08;
      }

      .cls-3 {
        fill: #d2ab67;
        stroke: #d2ab67;
        stroke-width: .5px;
      }

      .cls-3, .cls-4 {
        stroke-linecap: round;
        stroke-linejoin: round;
      }

      .cls-4 {
        fill: none;
        stroke: #143268;
        stroke-width: .6px;
      }

      .cls-5 {
        fill: url(#linear-gradient-3);
      }

      .cls-6 {
        fill: url(#linear-gradient);
      }
    </style>
    <linearGradient id="linear-gradient" x1="10.93" y1="11.42" x2="21.19" y2="1.15" gradientUnits="userSpaceOnUse">
      <stop offset="0" stop-color="#d2ae6d"/>
      <stop offset=".21" stop-color="#d2ae6d"/>
      <stop offset=".54" stop-color="#fff8af"/>
      <stop offset=".9" stop-color="#d2ae6d"/>
      <stop offset="1" stop-color="#d2ae6d"/>
    </linearGradient>
    <linearGradient id="linear-gradient-2" x1="13.18" y1="13.33" x2="22.47" y2="4.03" xlink:href="#linear-gradient"/>
    <linearGradient id="linear-gradient-3" x1="13.7" y1="14.1" x2="23.07" y2="4.73" xlink:href="#linear-gradient"/>
  </defs>
  <circle class="cls-2" cx="16" cy="16" r="16"/>
  <g>
    <path class="cls-4" d="m10.86,23.71l-2.74-2.16m12.08-6.68l-1.82.95m-3.19.81c-.26-.5-.59-.8-1.41-1.04l-2.04-.6m4.78,11.68h0c.47.21,1.02,0,1.22-.47l.46-.98c.21-.47,0-1.02-.47-1.22h0c-.47-.21-1.02,0-1.22.47l-.46.98c-.21.47,0,1.02.47,1.22Z"/>
    <path class="cls-4" d="m14.49,26.68h0c.47.21,1.02,0,1.22-.47l.8-1.74c.21-.47,0-1.02-.47-1.22h0c-.47-.21-1.02,0-1.22.47l-.8,1.74c-.21.47,0,1.02.47,1.22h0Z"/>
    <path class="cls-4" d="m12.79,25.92h0c.47.21,1.02,0,1.22-.47l.8-1.74c.21-.47,0-1.02-.47-1.22h0c-.47-.21-1.02,0-1.22.47l-.8,1.74c-.21.47,0,1.02.47,1.22Z"/>
    <path class="cls-4" d="m11.4,24.49h0c.47.21,1.02,0,1.22-.47l.5-1.06c.21-.47,0-1.02-.47-1.22h0c-.47-.21-1.02,0-1.22.47l-.5,1.06c-.21.47,0,1.02.47,1.22Zm10.33-1.63l2.25-1.13m-5.6-5.91h-1.57c-.91,0-1.71.61-1.95,1.49l-.51,1.91c-.15.56.18,1.13.74,1.28h0c.51.13,1.04-.14,1.23-.64l.65-1.71.98.38c.68.26,1.41.09,1.91-.38m-1.62,6.44l.82.32c.48.18.72.72.54,1.2-.18.48-.72.72-1.2.54l-.75-.29"/>
    <path class="cls-4" d="m15.65,21.62l4.86,1.86c.48.18.72.72.54,1.2-.14.37-.49.6-.87.6-.11,0-.22-.02-.33-.06l-.78-.3"/>
    <path class="cls-4" d="m16.31,19.89l4.86,1.86c.48.18.72.72.54,1.2h0c-.18.48-.72.72-1.2.54l-4.86-1.86"/>
    <path class="cls-4" d="m16.98,18.15l4.17,1.6c.48.18.72.72.54,1.2h0c-.18.48-.72.72-1.2.54l-4.17-1.6"/>
    <rect class="cls-4" x="21.77" y="12.2" width="5.45" height="9.65" rx=".88" ry=".88" transform="translate(-5.18 13.96) rotate(-28.9)"/>
    <path class="cls-4" d="m5.83,14.41l-2.62,4.75c-.24.43-.08.97.35,1.2l3.22,1.78c.43.24.97.08,1.2-.35l3.81-6.9c.24-.43.08-.97-.35-1.2l-3.22-1.78c-.43-.24-.97-.08-1.2.35l-.3.54"/>
  </g>
  <line class="cls-3" x1="20.24" y1="5.76" x2="21.11" y2="5.76"/>
  <line class="cls-3" x1="19.78" y1="3.77" x2="20.54" y2="3.37"/>
  <line class="cls-3" x1="19.78" y1="7.76" x2="20.54" y2="8.16"/>
  <line class="cls-3" x1="11.76" y1="5.76" x2="10.89" y2="5.76"/>
  <line class="cls-3" x1="12.22" y1="3.77" x2="11.46" y2="3.37"/>
  <line class="cls-3" x1="12.22" y1="7.76" x2="11.46" y2="8.16"/>
  <g>
    <path class="cls-6" d="m15.96,2.8c-1.62.02-2.93,1.34-2.93,2.97,0,.68.23,1.31.61,1.81.49.64.82,1.38.96,2.17h2.78c.14-.78.46-1.52.96-2.16.39-.5.62-1.13.62-1.82,0-1.64-1.37-2.99-3-2.97Z"/>
    <path class="cls-1" d="m17.55,10.08h-3.17c-.25,0-.45.2-.45.45s.2.45.45.45h3.17c.25,0,.45-.2.45-.45s-.2-.45-.45-.45Z"/>
    <path class="cls-5" d="m17.04,11.35h-2.07c-.25,0-.45.2-.45.45s.2.45.45.45h2.07c.25,0,.45-.2.45-.45s-.2-.45-.45-.45Z"/>
  </g>
</svg>