<?xml version="1.0" encoding="UTF-8"?>
<svg id="Layer_1" data-name="Layer 1" xmlns="http://www.w3.org/2000/svg" xmlns:xlink="http://www.w3.org/1999/xlink" viewBox="0 0 32 32">
  <defs>
    <style>
      .cls-1 {
        fill: #fff;
      }

      .cls-2 {
        fill: #bb8c38;
      }

      .cls-3 {
        fill: none;
        stroke: #143268;
        stroke-linecap: round;
        stroke-linejoin: round;
        stroke-width: .5px;
      }

      .cls-4 {
        opacity: .08;
      }

      .cls-5 {
        fill: url(#linear-gradient);
      }
    </style>
    <linearGradient id="linear-gradient" x1="12.84" y1="19.16" x2="25.26" y2="6.74" gradientUnits="userSpaceOnUse">
      <stop offset="0" stop-color="#d2ae6d"/>
      <stop offset=".21" stop-color="#d2ae6d"/>
      <stop offset=".54" stop-color="#fff8af"/>
      <stop offset=".9" stop-color="#d2ae6d"/>
      <stop offset="1" stop-color="#d2ae6d"/>
    </linearGradient>
  </defs>
  <circle class="cls-4" cx="16" cy="16" r="16"/>
  <path class="cls-3" d="m12.68,21.88l-4.47,4.47c-.71.71-1.86.71-2.56,0h0c-.71-.71-.71-1.86,0-2.56l4.47-4.47,2.56,2.56Z"/>
  <path class="cls-3" d="m11.98,17.46l-1.86,1.86,2.56,2.56,1.86-1.86"/>
  <path class="cls-5" d="m24.82,13.01c0,3.22-2.61,5.84-5.84,5.84s-5.84-2.61-5.84-5.84,2.61-5.84,5.84-5.84,5.84,2.61,5.84,5.84Z"/>
  <path class="cls-3" d="m14.68,6.34c3.07-1.94,7.19-1.57,9.86,1.11,3.11,3.11,3.11,8.15,0,11.25-3.11,3.11-8.15,3.11-11.25,0-2.68-2.68-3.05-6.79-1.11-9.86"/>
  <path class="cls-3" d="m13.29,7.45h0"/>
  <g>
    <g>
      <path class="cls-2" d="m18.34,16.65h-1.68l.14-1.35-.3-.03-.14,1.38h-1.05l.28-1.66c.08-.5.43-.91.92-1.07l1.26-.42.34,1.35.34-.41.18.27-.28,1.94Z"/>
      <polygon class="cls-2" points="19.51 16.65 18.65 16.65 18.93 14.64 18.64 14.2 19 13.76 19.16 13.76 19.52 14.2 19.22 14.64 19.51 16.65"/>
      <path class="cls-2" d="m21.8,16.65l-.14-1.38-.3.03.14,1.35h-1.68l-.28-1.94.18-.27.34.41.34-1.35,1.26.42c.48.16.83.57.92,1.07l.28,1.66h-1.05Z"/>
      <path class="cls-2" d="m20.75,11.69c0,.37-.14.71-.4.97l-.59.59c-.08.08-.2.13-.32.13h-.71c-.12,0-.24-.05-.32-.13l-.59-.59c-.26-.26-.4-.6-.4-.97v-.74h.6c.67,0,1.3-.24,1.8-.67l.05.08c.19.32.53.54.9.58v.75h0Z"/>
      <path class="cls-2" d="m21.36,11.41c0,.2-.13.37-.31.43,0-.05,0-.1,0-.15v-.71c.18.06.3.23.3.43Z"/>
      <path class="cls-2" d="m17.1,10.35c0-1.09.89-1.97,1.97-1.97h.11c.58,0,1.1.39,1.26.95l.03.11h.11c.25,0,.46.2.46.46v.77s-.1-.02-.15-.02c-.32,0-.62-.17-.79-.45l-.24-.41-.14.14c-.46.46-1.07.71-1.73.71h-.75c-.05,0-.1,0-.15.02v-.32Z"/>
      <path class="cls-2" d="m17.1,10.98v.71s0,.1,0,.15c-.18-.06-.31-.23-.31-.43s.13-.36.3-.43Z"/>
    </g>
    <g>
      <path class="cls-1" d="m18.25,16.58h-1.68l.14-1.35-.3-.03-.14,1.38h-1.05l.28-1.66c.08-.5.43-.91.92-1.07l1.26-.42.34,1.35.34-.41.18.27-.28,1.94Z"/>
      <polygon class="cls-1" points="19.42 16.58 18.55 16.58 18.84 14.57 18.55 14.13 18.91 13.7 19.07 13.7 19.43 14.13 19.13 14.57 19.42 16.58"/>
      <path class="cls-1" d="m21.71,16.58l-.14-1.38-.3.03.14,1.35h-1.68l-.28-1.94.18-.27.34.41.34-1.35,1.26.42c.48.16.83.57.92,1.07l.28,1.66h-1.05Z"/>
      <path class="cls-1" d="m20.66,11.63c0,.37-.14.71-.4.97l-.59.59c-.08.08-.2.13-.32.13h-.71c-.12,0-.24-.05-.32-.13l-.59-.59c-.26-.26-.4-.6-.4-.97v-.74h.6c.67,0,1.3-.24,1.8-.67l.05.08c.19.32.53.54.9.58v.75h0Z"/>
      <path class="cls-1" d="m21.27,11.35c0,.2-.13.37-.31.43,0-.05,0-.1,0-.15v-.71c.18.06.3.23.3.43Z"/>
      <path class="cls-1" d="m17.01,10.28c0-1.09.89-1.97,1.97-1.97h.11c.58,0,1.1.39,1.26.95l.03.11h.11c.25,0,.46.2.46.46v.77s-.1-.02-.15-.02c-.32,0-.62-.17-.79-.45l-.24-.41-.14.14c-.46.46-1.07.71-1.73.71h-.75c-.05,0-.1,0-.15.02v-.32Z"/>
      <path class="cls-1" d="m17.01,10.92v.71s0,.1,0,.15c-.18-.06-.31-.23-.31-.43s.13-.36.3-.43Z"/>
    </g>
  </g>
</svg>