<?xml version="1.0" encoding="UTF-8"?>
<svg id="Layer_1" data-name="Layer 1" xmlns="http://www.w3.org/2000/svg" xmlns:xlink="http://www.w3.org/1999/xlink" viewBox="0 0 32 32">
  <defs>
    <style>
      .cls-1 {
        fill: #fff;
      }

      .cls-2 {
        fill: #bb8c38;
      }

      .cls-3 {
        fill: none;
        stroke: #143268;
        stroke-linecap: round;
        stroke-linejoin: round;
        stroke-width: .5px;
      }

      .cls-4 {
        opacity: .08;
      }

      .cls-5 {
        fill: url(#linear-gradient);
      }
    </style>
    <linearGradient id="linear-gradient" x1="16.99" y1="25.13" x2="27.6" y2="14.52" gradientUnits="userSpaceOnUse">
      <stop offset="0" stop-color="#d2ae6d"/>
      <stop offset=".21" stop-color="#d2ae6d"/>
      <stop offset=".54" stop-color="#fff8af"/>
      <stop offset=".9" stop-color="#d2ae6d"/>
      <stop offset="1" stop-color="#d2ae6d"/>
    </linearGradient>
  </defs>
  <circle class="cls-4" cx="16" cy="16" r="16"/>
  <line class="cls-3" x1="6.74" y1="7.64" x2="6.74" y2="7.64"/>
  <line class="cls-3" x1="8.43" y1="7.64" x2="8.43" y2="7.64"/>
  <path class="cls-5" d="m22.13,16.06c-.89,0-1.73.24-2.45.65l-1.8-.53.34,1.79c-.66.84-1.06,1.91-1.06,3.07,0,2.32,1.59,4.27,3.75,4.82.8.2,1.65.2,2.45,0,2.15-.54,3.75-2.5,3.75-4.82,0-2.75-2.22-4.97-4.97-4.97h0Z"/>
  <path class="cls-3" d="m23.15,7.19c0-.65-.53-1.19-1.19-1.19H6.08c-.65,0-1.19.53-1.19,1.19v2.05h18.25v-2.05Z"/>
  <path class="cls-3" d="m23.15,14.75v-5.51H4.9v12.98c0,.65.53,1.19,1.19,1.19h3.7"/>
  <path class="cls-3" d="m13.75,23.4h2.59"/>
  <circle class="cls-3" cx="9.7" cy="12.34" r="1.03"/>
  <circle class="cls-3" cx="12.87" cy="15.84" r="1.03"/>
  <path class="cls-3" d="m7.36,12.34h1.32m-1.32,3.5h4.49m2.05,0h2.1m-5.27-3.5h9.88m-13.25,6.49h7.59v2.22h-7.59v-2.22Zm4.44,4.58h0"/>
  <g>
    <g>
      <path class="cls-2" d="m21.53,24.02h-1.44l.12-1.17-.26-.03-.12,1.19h-.91l.24-1.43c.07-.43.37-.79.79-.92l1.08-.36.29,1.16.3-.35.16.23-.24,1.67Z"/>
      <polygon class="cls-2" points="22.55 24.02 21.8 24.02 22.05 22.29 21.79 21.91 22.1 21.53 22.24 21.53 22.55 21.91 22.3 22.29 22.55 24.02"/>
      <path class="cls-2" d="m24.52,24.02l-.12-1.19-.26.03.12,1.17h-1.44l-.24-1.67.16-.23.3.35.29-1.16,1.08.36c.42.14.72.49.79.92l.24,1.43h-.91Z"/>
      <path class="cls-2" d="m23.61,19.75c0,.32-.12.61-.35.83l-.51.51c-.07.07-.17.12-.28.12h-.61c-.1,0-.2-.04-.28-.12l-.51-.51c-.22-.22-.35-.52-.35-.83v-.64h.51c.58,0,1.12-.2,1.55-.58l.04.07c.17.28.46.46.78.5v.65h0Z"/>
      <path class="cls-2" d="m24.14,19.5c0,.17-.11.32-.27.37,0-.04,0-.08,0-.13v-.61c.15.05.26.2.26.37Z"/>
      <path class="cls-2" d="m20.47,18.59c0-.94.76-1.7,1.7-1.7h.09c.5,0,.95.34,1.09.82l.03.09h.1c.22,0,.39.18.39.39v.67s-.09-.01-.13-.01c-.28,0-.54-.15-.68-.39l-.21-.35-.12.12c-.4.4-.93.62-1.49.62h-.65s-.09,0-.13.01v-.28Z"/>
      <path class="cls-2" d="m20.47,19.14v.61s0,.09,0,.13c-.16-.05-.27-.2-.27-.37s.11-.31.26-.37Z"/>
    </g>
    <g>
      <path class="cls-1" d="m21.46,23.97h-1.44l.12-1.17-.26-.03-.12,1.19h-.91l.24-1.43c.07-.43.37-.79.79-.92l1.08-.36.29,1.16.3-.35.16.23-.24,1.67Z"/>
      <polygon class="cls-1" points="22.47 23.97 21.72 23.97 21.97 22.23 21.71 21.85 22.02 21.48 22.16 21.48 22.47 21.85 22.22 22.23 22.47 23.97"/>
      <path class="cls-1" d="m24.44,23.97l-.12-1.19-.26.03.12,1.17h-1.44l-.24-1.67.16-.23.3.35.29-1.16,1.08.36c.42.14.72.49.79.92l.24,1.43h-.91Z"/>
      <path class="cls-1" d="m23.53,19.69c0,.32-.12.61-.35.83l-.51.51c-.07.07-.17.12-.28.12h-.61c-.1,0-.2-.04-.28-.12l-.51-.51c-.22-.22-.35-.52-.35-.83v-.64h.51c.58,0,1.12-.2,1.55-.58l.04.07c.17.28.46.46.78.5v.65h0Z"/>
      <path class="cls-1" d="m24.06,19.45c0,.17-.11.32-.27.37,0-.04,0-.08,0-.13v-.61c.15.05.26.2.26.37Z"/>
      <path class="cls-1" d="m20.39,18.53c0-.94.76-1.7,1.7-1.7h.09c.5,0,.95.34,1.09.82l.03.09h.1c.22,0,.39.18.39.39v.67s-.09-.01-.13-.01c-.28,0-.54-.15-.68-.39l-.21-.35-.12.12c-.4.4-.93.62-1.49.62h-.65s-.09,0-.13.01v-.28Z"/>
      <path class="cls-1" d="m20.39,19.08v.61s0,.09,0,.13c-.16-.05-.27-.2-.27-.37s.11-.31.26-.37Z"/>
    </g>
  </g>
</svg>