<svg width="23" height="40" viewBox="0 0 23 40" fill="none" xmlns="http://www.w3.org/2000/svg">
<g clip-path="url(#clip0_15_2)">
<path d="M22.2095 39.2095C22.7365 38.6825 23 38.0585 23 37.3375C23 36.618 22.7365 35.9947 22.2095 35.4677L6.7681 20.0263L22.2622 4.53228C22.7541 4.0404 23 3.42556 23 2.68775C23 1.94993 22.7365 1.31752 22.2095 0.790514C21.6825 0.263505 21.0585 0 20.3375 0C19.618 0 18.9947 0.263505 18.4677 0.790514L0.760201 18.5507C0.5494 18.7615 0.399699 18.9899 0.311199 19.2358C0.224099 19.4818 0.1805 19.7453 0.1805 20.0263C0.1805 20.3074 0.224099 20.5709 0.311199 20.8169C0.399699 21.0628 0.5494 21.2912 0.760201 21.502L18.5204 39.2622C19.0123 39.7541 19.618 40 20.3375 40C21.0585 40 21.6825 39.7365 22.2095 39.2095Z" fill="white"/>
</g>
<defs>
<clipPath id="clip0_15_2">
<rect width="23" height="40" fill="white" transform="matrix(-1 0 0 1 23 0)"/>
</clipPath>
</defs>
</svg>
