<svg width="60" height="60" viewBox="0 0 60 60" fill="none" xmlns="http://www.w3.org/2000/svg">
<path d="M37.3215 31.4351C34.5336 31.4353 31.8296 30.4821 29.6582 28.7337C27.4867 26.9853 25.9786 24.5469 25.384 21.8232C24.7894 19.0995 25.1443 16.2544 26.3895 13.7602C27.6348 11.2659 29.6956 9.27257 32.23 8.11101C34.7643 6.94945 37.6196 6.68955 40.322 7.37445C43.0244 8.05935 45.4113 9.64785 47.0864 11.8763C48.7616 14.1047 49.6242 16.839 49.5312 19.6252C49.4382 22.4115 48.395 25.0822 46.575 27.1939" stroke="#28387D" stroke-linecap="round" stroke-linejoin="round"/>
<path d="M46.0851 24.4467L46.6152 24.4307L46.7116 27.0412L49.3061 26.7521L49.3624 27.2822L46.1975 27.6276L46.0851 24.4467Z" fill="#28387D"/>
<path d="M37.3215 28.214C42.2902 28.214 46.318 24.1862 46.318 19.2175C46.318 14.2489 42.2902 10.2211 37.3215 10.2211C32.3529 10.2211 28.3251 14.2489 28.3251 19.2175C28.3251 24.1862 32.3529 28.214 37.3215 28.214Z" fill="#FBD2C0" stroke="#E9292C" stroke-linecap="round" stroke-linejoin="round"/>
<path d="M37.0966 35.4353L51.3384 31.2262C52.8565 30.8969 53.2742 31.5877 53.4991 32.166C53.724 32.7444 53.5473 33.6199 52.479 34.383L37.6107 43.1064C36.8819 43.6781 35.9826 43.9891 35.0564 43.99H22.7906L17.6899 39.0901" stroke="#28387D" stroke-linecap="round" stroke-linejoin="round"/>
<path d="M16.4207 37.3711C16.9749 36.351 19.7702 31.6359 24.5898 31.6359C26.4615 31.766 28.2885 32.2685 29.9636 33.1139C30.0482 33.146 30.1381 33.1624 30.2286 33.1621H34.8634C37.7311 33.1621 37.8515 36.7928 34.7831 36.7928H25.883" stroke="#28387D" stroke-linecap="round" stroke-linejoin="round"/>
<path d="M12.557 47.1227L19.0473 53.5487C19.1746 53.6714 19.3445 53.74 19.5213 53.74C19.698 53.74 19.8679 53.6714 19.9952 53.5487L23.7464 49.7975C23.8691 49.6703 23.9377 49.5004 23.9377 49.3236C23.9377 49.1468 23.8691 48.9769 23.7464 48.8497L23.2644 48.3677L24.6701 47.0022C24.7328 46.9402 24.7825 46.8664 24.8165 46.785C24.8504 46.7037 24.8679 46.6164 24.8679 46.5283C24.8679 46.4401 24.8504 46.3529 24.8165 46.2715C24.7825 46.1902 24.7328 46.1163 24.6701 46.0543L23.2805 44.7129L16.4769 37.8772L14.7178 36.11C14.5905 35.9873 14.4206 35.9188 14.2439 35.9188C14.0671 35.9188 13.8972 35.9873 13.7699 36.11L12.3723 37.4836L11.8903 37.0016C11.8283 36.939 11.7545 36.8892 11.6732 36.8553C11.5918 36.8213 11.5045 36.8039 11.4164 36.8039C11.3283 36.8039 11.241 36.8213 11.1596 36.8553C11.0783 36.8892 11.0045 36.939 10.9425 37.0016L7.19127 40.777C7.06856 40.9042 7 41.0741 7 41.2509C7 41.4277 7.06856 41.5975 7.19127 41.7248L10.4846 45.0181" stroke="#28387D" stroke-linecap="round" stroke-linejoin="round"/>
<path d="M12.3723 37.5157L23.2645 48.3998" stroke="#28387D" stroke-linecap="round" stroke-linejoin="round"/>
<path d="M34.6707 17.1612H40.6308" stroke="#E9292C" stroke-linecap="round" stroke-linejoin="round"/>
<path d="M34.7992 14.7996H36.47C37.0084 14.7989 37.5286 14.9942 37.9336 15.3489C38.3386 15.7037 38.6007 16.1936 38.6709 16.7274V17.2817C38.6297 17.8293 38.3769 18.3393 37.966 18.7037C37.5552 19.0681 37.0186 19.2581 36.47 19.2336H34.7992C34.7261 19.2357 34.6566 19.2662 34.6056 19.3187C34.5546 19.3712 34.5261 19.4415 34.5261 19.5147C34.5262 19.5525 34.534 19.5898 34.5493 19.6244C34.5645 19.659 34.5867 19.69 34.6145 19.7156L38.7834 23.6595" stroke="#E9292C" stroke-linecap="round" stroke-linejoin="round"/>
<path d="M40.6309 14.7836H34.0201" stroke="#E9292C" stroke-linecap="round" stroke-linejoin="round"/>
</svg>
