<svg id="Layer_1" data-name="Layer 1" xmlns="http://www.w3.org/2000/svg" viewBox="0 0 60 60"><defs><style>.cls-1{fill:#fbd2c0;}.cls-2{fill:#1b3280;}.cls-3{fill:#e9262a;}</style></defs><title>CC_FilterIcon</title><circle class="cls-1" cx="37.5" cy="17.5" r="12"/><path class="cls-2" d="M15.06,60a2.65,2.65,0,0,1-1.88-.78L2,48.05a2.67,2.67,0,0,1,0-3.77l3.34-3.34a2.65,2.65,0,0,1,1.88-.78,2.61,2.61,0,0,1,1.36.38l.18.1,7.49-6.25A9.15,9.15,0,0,1,18.55,33a12.33,12.33,0,0,1,4.75-.92,16.07,16.07,0,0,1,5.52,1,8.09,8.09,0,0,0,2.82.5h7.48a5.07,5.07,0,0,1,4.13,2.09l.19.28,7.32-6.67a5.43,5.43,0,0,1,7.07-.18A2.57,2.57,0,0,1,58,32.91l-12,12c-3.33,3.33-12.15,3.69-15.8,3.69h0c-1.17,0-2.34,0-3.39-.1l-.48,0A7.64,7.64,0,0,0,21,50.74l-1,1,.33.33a2.67,2.67,0,0,1,0,3.77L17,59.22A2.65,2.65,0,0,1,15.06,60ZM7.24,41.44a1.38,1.38,0,0,0-1,.4L2.91,45.19a1.4,1.4,0,0,0,0,2L14.08,58.32a1.4,1.4,0,0,0,2,0L19.39,55a1.38,1.38,0,0,0,0-2L8.22,41.84A1.38,1.38,0,0,0,7.24,41.44Zm16.07-8.11a11.2,11.2,0,0,0-4.27.82,7.78,7.78,0,0,0-2,1.22L9.75,41.5l9.31,9.37,1-1a9,9,0,0,1,6.32-2.66h.53c1,.07,2.09.1,3.24.1,3.51,0,12-.32,15-3.32l12-12A1.3,1.3,0,0,0,57,30.09a4.13,4.13,0,0,0-5.4.13l-7.63,7,0,.17a4.69,4.69,0,0,1,.17,1.34,2.67,2.67,0,0,1-2.68,2.64H24.71a.64.64,0,0,1-.64-.64.64.64,0,0,1,.64-.64H41.53a1.39,1.39,0,0,0,1.4-1.37,3.81,3.81,0,0,0-3.81-3.83H31.64a9.49,9.49,0,0,1-3.27-.57A14.81,14.81,0,0,0,23.31,33.33Z"/><path class="cls-3" d="M44.54,2.21a.6.6,0,0,1-.6-.61V.6a.61.61,0,0,1,1.21,0v1A.61.61,0,0,1,44.54,2.21Z"/><path class="cls-3" d="M44.54,6.22a.6.6,0,0,1-.6-.6v-2a.61.61,0,0,1,1.21,0v2A.6.6,0,0,1,44.54,6.22Z"/><path class="cls-3" d="M37.52,4.21a.6.6,0,0,1-.6-.6V.6a.6.6,0,0,1,.6-.6.62.62,0,0,1,.61.6v3a.62.62,0,0,1-.61.6Z"/><path class="cls-3" d="M41,4.71a.6.6,0,0,1-.6-.6V.6a.61.61,0,0,1,1.21,0V4.11A.6.6,0,0,1,41,4.71Z"/><path class="cls-3" d="M41.24,24.78a1.54,1.54,0,0,1-.76-.2l-2.77-1.51a.41.41,0,0,0-.19-.05.41.41,0,0,0-.18.05l-2.77,1.51a1.55,1.55,0,0,1-1.68-.1,1.72,1.72,0,0,1-.69-1.68l.52-3.15a.52.52,0,0,0-.13-.45L30.39,17a1.7,1.7,0,0,1-.4-1.75,1.61,1.61,0,0,1,1.3-1.12l3.07-.47a.43.43,0,0,0,.32-.25l1.38-2.91a1.64,1.64,0,0,1,.8-.8,1.51,1.51,0,0,1,.66-.14,1.62,1.62,0,0,1,1.47.94l1.38,2.91a.43.43,0,0,0,.32.25l3.06.47a1.61,1.61,0,0,1,1.31,1.12,1.71,1.71,0,0,1-.4,1.75l-2.2,2.23a.52.52,0,0,0-.14.44l.52,3.17a1.69,1.69,0,0,1-.68,1.67,1.6,1.6,0,0,1-.92.3Zm-3.71-14a.39.39,0,0,0-.38.25L35.77,13.9a1.63,1.63,0,0,1-1.23.92l-3.07.47a.43.43,0,0,0-.34.3.53.53,0,0,0,.12.54l2.2,2.22a1.74,1.74,0,0,1,.46,1.49L33.39,23a.5.5,0,0,0,.19.5.42.42,0,0,0,.41,0L36.76,22a1.56,1.56,0,0,1,.76-.19,1.53,1.53,0,0,1,.76.19l2.77,1.51a.32.32,0,0,0,.19.05.34.34,0,0,0,.22-.07.51.51,0,0,0,.2-.5l-.52-3.16a1.71,1.71,0,0,1,.46-1.49l2.2-2.23a.5.5,0,0,0,.12-.52.43.43,0,0,0-.35-.31l-3.06-.46a1.66,1.66,0,0,1-1.23-.93L37.9,11a.4.4,0,0,0-.22-.22Z"/><path class="cls-3" d="M37.53,30.3A12.64,12.64,0,0,1,26.4,11.66V3.11a.6.6,0,1,1,1.2,0V9.84A13,13,0,0,1,30,7.53,12.64,12.64,0,0,1,47.45,9.84V3.11a.61.61,0,0,1,1.21,0V11.7a12.38,12.38,0,0,1,1.5,6A12.62,12.62,0,0,1,37.53,30.3Zm0-24.08A11.44,11.44,0,1,0,49,17.66,11.45,11.45,0,0,0,37.52,6.22Z"/><path class="cls-3" d="M34,4.71a.6.6,0,0,1-.6-.6V.6a.6.6,0,0,1,1.2,0V4.11A.6.6,0,0,1,34,4.71Z"/><path class="cls-3" d="M30.5,2.21a.6.6,0,0,1-.6-.61V.6a.6.6,0,0,1,1-.42A.59.59,0,0,1,31.1.6v1A.6.6,0,0,1,30.5,2.21Z"/><path class="cls-3" d="M30.5,6.22a.6.6,0,0,1-.6-.6v-2a.6.6,0,0,1,1-.42.59.59,0,0,1,.17.42v2a.6.6,0,0,1-.6.6Z"/></svg>