<svg id="Layer_1" data-name="Layer 1" xmlns="http://www.w3.org/2000/svg" viewBox="0 0 60 60"><defs><style>.cls-1{fill:#fbd2c0;}.cls-2{fill:#1b3280;}.cls-3{fill:#e9262a;}</style></defs><title>CC_FilterIcon</title><path class="cls-1" d="M38.78,31.9a.53.53,0,0,1,.46.56L37.81,47.41l.11.07a1.38,1.38,0,0,0,.74.21,1.24,1.24,0,0,0,.27,0c.56-.14,1-.76,1.41-1.82l5.81-17.3a.51.51,0,0,1,.49-.35.45.45,0,0,1,.16,0,.52.52,0,0,1,.33.65l-.65,1.91,8.56-4a5.43,5.43,0,0,0,2.32-2,2.42,2.42,0,0,0,.32-2.35,2.39,2.39,0,0,0-1.88-1.23,4.74,4.74,0,0,0-.75-.06,5.47,5.47,0,0,0-2.38.56l-23.47,11a.54.54,0,0,1-.21,0l-.12,0-7.38-1.83L20.08,33.4l6.53,2.7a.51.51,0,0,1,.3.46.5.5,0,0,1-.31.46l-2.17,1,1.16,2.49L38,34.74l.23-2.38a.5.5,0,0,1,.5-.46Z"/><path class="cls-1" d="M27.86,21.94a1.41,1.41,0,0,0-.83.23,1.45,1.45,0,0,0-.51.9l0,.13,8.37,5.72,5.24-2.45-10.77-4.2A4.3,4.3,0,0,0,27.86,21.94Z"/><path class="cls-2" d="M8.17,19.93a.77.77,0,0,0-.76.77V44.84a.76.76,0,0,0,.76.76.77.77,0,0,0,.77-.76V20.7A.78.78,0,0,0,8.17,19.93Z"/><path class="cls-2" d="M13.08,25.1a.76.76,0,0,0-.76.76V50a.76.76,0,1,0,1.52,0V25.86A.76.76,0,0,0,13.08,25.1Z"/><path class="cls-3" d="M38.68,48.68A2.86,2.86,0,0,1,36.94,48a.51.51,0,0,1-.16-.41L37.9,35.89,25.58,41.64a.54.54,0,0,1-.21,0,.57.57,0,0,1-.18,0,.53.53,0,0,1-.28-.27L23.33,38a.5.5,0,0,1,.24-.65l1.62-.75-6-2.47a.5.5,0,0,1-.3-.3.53.53,0,0,1,0-.41L20.8,30a.52.52,0,0,1,.44-.25h.12l7.58,1.93,4.86-2.3-8.11-5.58a.47.47,0,0,1-.21-.39,2.65,2.65,0,0,1,1-2.12,2.34,2.34,0,0,1,1.4-.41,5.34,5.34,0,0,1,1.84.39l11.68,4.57,10.88-5.1A6.44,6.44,0,0,1,55,20.14a6,6,0,0,1,1,.07A3.35,3.35,0,0,1,58.6,22a3.1,3.1,0,0,1,0,2.45,6,6,0,0,1-3.18,3.2L46,32.08,41.29,46.14a3.42,3.42,0,0,1-2.11,2.48A2.07,2.07,0,0,1,38.68,48.68Zm.1-16.78a.53.53,0,0,1,.46.56L37.81,47.41l.11.07a1.38,1.38,0,0,0,.74.21,1.24,1.24,0,0,0,.27,0c.56-.14,1-.76,1.41-1.82l5.81-17.3a.51.51,0,0,1,.49-.35.45.45,0,0,1,.16,0,.52.52,0,0,1,.33.65l-.65,1.91,8.56-4a5.43,5.43,0,0,0,2.32-2,2.42,2.42,0,0,0,.32-2.35,2.39,2.39,0,0,0-1.88-1.23,4.74,4.74,0,0,0-.75-.06,5.47,5.47,0,0,0-2.38.56l-23.47,11a.54.54,0,0,1-.21,0l-.12,0-7.38-1.83L20.08,33.4l6.53,2.7a.51.51,0,0,1,.3.46.5.5,0,0,1-.31.46l-2.17,1,1.16,2.49L38,34.74l.23-2.38a.5.5,0,0,1,.5-.46Zm-10.92-10a1.41,1.41,0,0,0-.83.23,1.45,1.45,0,0,0-.51.9l0,.13,8.37,5.72,5.24-2.45-10.77-4.2A4.3,4.3,0,0,0,27.86,21.94Z"/><path class="cls-2" d="M35.33,51.24v.25a3.59,3.59,0,0,1-3.59,3.59H6.23a3.59,3.59,0,0,1-3.58-3.59V19A3.59,3.59,0,0,1,6.23,15.4H31.74A3.59,3.59,0,0,1,35.33,19v2.29h1.52V19a5.13,5.13,0,0,0-5.11-5.11H24.67V1.53h3a.77.77,0,0,0,.76-.77A.76.76,0,0,0,27.71,0H10.3a.76.76,0,0,0-.76.76.77.77,0,0,0,.76.77h3V13.88H6.24A5.12,5.12,0,0,0,1.13,19v32.5a5.12,5.12,0,0,0,5.1,5.11H7.78L9,58.75a2.54,2.54,0,0,0,4.37,0l1.19-2.16h6.93l1.24,2.15A2.55,2.55,0,0,0,25,60h0a2.52,2.52,0,0,0,2.17-1.25l1.25-2.15h3.33a5.13,5.13,0,0,0,5.11-5.11v-.25ZM14.83,1.53h8.32V13.88H14.83ZM12,58a1,1,0,0,1-.88.5,1,1,0,0,1-.87-.5L9.5,56.6h3.35Zm13.71,0a1.14,1.14,0,0,1-.29.29,1,1,0,0,1-.56.17A1,1,0,0,1,24,58l-.78-1.37h3.27Z"/></svg>