<svg id="Layer_1" data-name="Layer 1" xmlns="http://www.w3.org/2000/svg" viewBox="0 0 60 60"><defs><style>.cls-1{fill:#fbd2c0;}.cls-2{fill:#1b3280;}.cls-3{fill:#e9262a;}</style></defs><title>CC_FilterIcon</title><ellipse class="cls-1" cx="45.86" cy="45.71" rx="14.14" ry="14.28"/><path class="cls-2" d="M54.6,20.87a.63.63,0,0,1-.22-.05c-.21-.08-5.16-2.12-5.16-6a3.23,3.23,0,0,1,3.09-3.36,3,3,0,0,1,2.08.87l.21.21.22-.21a2.91,2.91,0,0,1,4.18,0,3.44,3.44,0,0,1,1,2.47c-.05,3.83-5,5.91-5.16,6a.63.63,0,0,1-.22.05Zm-2.29-8.24a2.07,2.07,0,0,0-1.92,2.19c0,2.49,2.85,4.16,4.08,4.76l.13.06.14-.06c1.21-.6,4-2.27,4.08-4.76a2.32,2.32,0,0,0-.65-1.65,1.73,1.73,0,0,0-1.27-.54,1.92,1.92,0,0,0-1.75,1.29.6.6,0,0,1-1.09,0A1.92,1.92,0,0,0,52.31,12.63Z"/><path class="cls-2" d="M49,6.43a.59.59,0,0,1-.22,0c-.14,0-3.42-1.41-3.42-4A2.28,2.28,0,0,1,47.56,0a2.05,2.05,0,0,1,1.27.45L49,.6,49.2.46A2,2,0,0,1,52,.65a2.44,2.44,0,0,1,.7,1.73c0,2.57-3.28,3.94-3.42,4A.59.59,0,0,1,49,6.43ZM47.56,1.18a1.11,1.11,0,0,0-1,1.19c0,1.35,1.46,2.31,2.33,2.76L49,5.2l.14-.07c.54-.28,2.31-1.31,2.33-2.77a1.1,1.1,0,0,0-1-1.17h0a1,1,0,0,0-1,.68.57.57,0,0,1-.54.36.57.57,0,0,1-.54-.36A1,1,0,0,0,47.56,1.18Z"/><path class="cls-2" d="M46.36,27.91a.64.64,0,0,1-.23-.05c-.13-.05-3.41-1.41-3.41-4a2.27,2.27,0,0,1,2.18-2.36,2.05,2.05,0,0,1,1.27.45l.19.14.18-.14a2,2,0,0,1,2.75.19A2.45,2.45,0,0,1,50,23.86c0,2.57-3.28,3.94-3.42,4A.59.59,0,0,1,46.36,27.91ZM44.9,22.66a1.11,1.11,0,0,0-1,1.19c0,1.35,1.46,2.31,2.33,2.76l.14.07.14-.07c.54-.28,2.31-1.31,2.33-2.77a1.1,1.1,0,0,0-1-1.17h0a1,1,0,0,0-1,.68.59.59,0,0,1-1.09,0A1,1,0,0,0,44.9,22.66Z"/><path class="cls-3" d="M50,45.71a4.16,4.16,0,1,0-4.16,4.2A4.18,4.18,0,0,0,50,45.71Zm-4.16,3a3,3,0,1,1,3-3A3,3,0,0,1,45.86,48.74Z"/><path class="cls-3" d="M48.23,37.05a2.39,2.39,0,1,0-2.39,2.41A2.4,2.4,0,0,0,48.23,37.05Zm-3.61,0a1.22,1.22,0,1,1,1.22,1.25A1.24,1.24,0,0,1,44.62,37.05Z"/><path class="cls-3" d="M51.9,37.16a2.42,2.42,0,0,0-1.7,4.12,2.43,2.43,0,0,0,3.39,0,2.43,2.43,0,0,0,0-3.41A2.34,2.34,0,0,0,51.9,37.16Zm.84,3.32a1.35,1.35,0,0,1-.84.34,1.39,1.39,0,0,1-.87-.36,1.26,1.26,0,0,1,0-1.79,1.33,1.33,0,0,1,.84-.34,1.36,1.36,0,0,1,.86.36A1.27,1.27,0,0,1,52.74,40.48Z"/><path class="cls-3" d="M52,45.69a2.4,2.4,0,1,0,2.39-2.41A2.42,2.42,0,0,0,52,45.69Zm2.39-1.24a1.25,1.25,0,1,1-1.22,1.24A1.24,1.24,0,0,1,54.41,44.45Z"/><path class="cls-3" d="M53.62,50.12a2.38,2.38,0,0,0-1.7-.7,2.34,2.34,0,0,0-1.69.7,2.42,2.42,0,0,0,0,3.4,2.38,2.38,0,0,0,3.39,0A2.44,2.44,0,0,0,53.62,50.12Zm-.86,2.6a1.28,1.28,0,0,1-.84.34,1.29,1.29,0,0,1-.86-.36,1.26,1.26,0,0,1,0-1.78,1.28,1.28,0,0,1,.84-.34,1.29,1.29,0,0,1,.86.36A1.26,1.26,0,0,1,52.76,52.72Z"/><path class="cls-3" d="M43.49,54.37A2.39,2.39,0,1,0,45.88,52,2.4,2.4,0,0,0,43.49,54.37Zm3.61,0a1.22,1.22,0,1,1-1.22-1.25A1.24,1.24,0,0,1,47.1,54.37Z"/><path class="cls-3" d="M39.82,54.26a2.37,2.37,0,0,0,1.7-.71,2.43,2.43,0,0,0,0-3.41,2.36,2.36,0,0,0-1.69-.71,2.39,2.39,0,0,0-1.7.71,2.43,2.43,0,0,0,0,3.41A2.34,2.34,0,0,0,39.82,54.26ZM39,50.94a1.35,1.35,0,0,1,.84-.34,1.37,1.37,0,0,1,.87.36,1.26,1.26,0,0,1,0,1.77,1.21,1.21,0,0,1-.86.33,1.23,1.23,0,0,1-.86-.33A1.27,1.27,0,0,1,39,50.94Z"/><path class="cls-3" d="M34.91,45.73a2.4,2.4,0,1,0,2.4-2.42A2.41,2.41,0,0,0,34.91,45.73Zm3.62,0a1.23,1.23,0,1,1-1.22-1.25A1.24,1.24,0,0,1,38.53,45.73Z"/><path class="cls-3" d="M41.49,41.3a2.42,2.42,0,0,0,0-3.4,2.34,2.34,0,0,0-1.69-.71,2.38,2.38,0,0,0-1.69.71,2.42,2.42,0,0,0,0,3.4,2.37,2.37,0,0,0,3.38,0ZM39,38.7a1.28,1.28,0,0,1,.84-.34,1.29,1.29,0,0,1,.86.36,1.26,1.26,0,0,1,0,1.78,1.28,1.28,0,0,1-.84.34,1.29,1.29,0,0,1-.86-.36A1.26,1.26,0,0,1,39,38.7Z"/><path class="cls-3" d="M45.86,31.44A14.16,14.16,0,0,0,32,43.19l-.06.35-.05.36,0,.36,0,.24,0,.49,0,.72c0,.13,0,.26,0,.49v.29l0,.39,0,.38.05.38.06.4.12.67A14.24,14.24,0,0,0,45.86,60a14.08,14.08,0,0,0,3.93-.55.57.57,0,0,0,.23-.66.53.53,0,0,0-.5-.44l-.18,0a12.76,12.76,0,0,1-3.48.48,13.13,13.13,0,1,1,13-13.13,13.21,13.21,0,0,1-5.48,10.72.52.52,0,0,0-.2.61.64.64,0,0,0,.56.46h.13a14.29,14.29,0,0,0,5-6.12l.08-.19.18-.46A14.52,14.52,0,0,0,59.94,47l0-.44v-.31s0-.37,0-.51A14.22,14.22,0,0,0,45.86,31.44Z"/><path class="cls-2" d="M22.35,58.29a1.7,1.7,0,0,1-1.7-1.7V52.72H10.06A3.15,3.15,0,0,1,7,50L2.78,17.29l-.24,0a2.71,2.71,0,0,1-1.6-4.76l.16-.13L1,12.19a3.25,3.25,0,0,1-.17-.93,3.51,3.51,0,0,1,1-2.57A3.64,3.64,0,0,1,4.35,7.54h.16a3.69,3.69,0,0,1,.58,0l.33,0,0-.33A5.33,5.33,0,0,1,6.92,3.93a5.67,5.67,0,0,1,3.89-1.78h.25A5.7,5.7,0,0,1,14.13,3l.2.13L14.5,3a3.6,3.6,0,0,1,2.28-.92h.16a3.66,3.66,0,0,1,3.4,2.3l.08.22.24,0a6,6,0,0,1,.74,0,5.76,5.76,0,0,1,1.18.12l.27.06.08-.26A3.64,3.64,0,0,1,26.24,2h.16a3.69,3.69,0,0,1,1.66.4l.29.14.13-.29A3.64,3.64,0,0,1,31.69,0h.16a3.64,3.64,0,0,1,3.62,3.27l0,.26h.27a5.58,5.58,0,0,1,5.43,5.26,5.45,5.45,0,0,1-.71,2.93l-.16.27.28.15a2.71,2.71,0,0,1-1.08,5.11l-.25,0L37.73,29.44a14.33,14.33,0,0,0-1.27.72L38.1,17.28H30.28l-.86,9,.09.1a6.26,6.26,0,0,1,1.59,4.28,9.59,9.59,0,0,1-2.63,6.24l-.07.07L27.23,49.24h.92q.11.59.27,1.17H27v6.71h4v-1a19,19,0,0,0,1.8,2.22Zm0-7.88a.52.52,0,0,0-.53.52v5.66a.53.53,0,0,0,.53.53h3.48V50.41Zm-6.12,1.14h4.42v-.62a1.7,1.7,0,0,1,1.7-1.69h3.7l1.05-11-.56.46a22.75,22.75,0,0,1-5.29,3.23A.54.54,0,0,1,21,42a.57.57,0,0,1-.22,0,23.19,23.19,0,0,1-5.28-3.17L15,38.31ZM8.11,49.84a2,2,0,0,0,2,1.71h5L13.7,37.35a.33.33,0,0,1,0-.14l0-.14-.09-.1A9.5,9.5,0,0,1,11,30.61a6.35,6.35,0,0,1,1.59-4.26l.09-.09-.86-9H4ZM16.5,25.7a4.67,4.67,0,0,0-4.37,4.91c0,5.8,7.3,9.43,8.77,10.09l.13.06.12-.06c2-1,8.71-4.5,8.78-10.09A5.19,5.19,0,0,0,28.47,27a4,4,0,0,0-2.91-1.26,4.39,4.39,0,0,0-4,2.91.58.58,0,0,1-1.08,0A4.39,4.39,0,0,0,16.5,25.7Zm0-1.17a5.35,5.35,0,0,1,4.29,2.24l.24.32.24-.32a5.35,5.35,0,0,1,4.29-2.24,5.11,5.11,0,0,1,2.38.59l.4.2.77-8H13l.77,8,.4-.21A5.11,5.11,0,0,1,16.5,24.53ZM2.71,13a1.55,1.55,0,0,0,0,3.09H39.35a1.55,1.55,0,0,0,0-3.09H14.49a.59.59,0,1,1,0-1.17H39l.09-.11a4.26,4.26,0,0,0,1-2.88,4.38,4.38,0,0,0-4.44-4.14h-.2l-.47,0h0a.61.61,0,0,1-.51-.22.56.56,0,0,1-.11-.48,2.43,2.43,0,0,0,.05-.59,2.43,2.43,0,0,0-2.46-2.3h-.11a2.43,2.43,0,0,0-2.37,2.48.54.54,0,0,1-.15.41.62.62,0,0,1-.45.19.55.55,0,0,1-.44-.2,2.49,2.49,0,0,0-1.93-.92h-.11a2.44,2.44,0,0,0-2.36,2.36.6.6,0,0,1-.6.58.52.52,0,0,1-.21,0,4.54,4.54,0,0,0-3-.16.39.39,0,0,1-.15,0,.59.59,0,0,1-.59-.51,2.43,2.43,0,0,0-2.45-2.13h-.11a2.47,2.47,0,0,0-1.94,1.05.63.63,0,0,1-.46.25A.79.79,0,0,1,14,4.4a4.47,4.47,0,0,0-2.94-1.08h-.2A4.45,4.45,0,0,0,7.77,4.73,4.32,4.32,0,0,0,6.68,8.45a.58.58,0,0,1-.12.47.63.63,0,0,1-.47.22.6.6,0,0,1-.29-.08,2.43,2.43,0,0,0-1.24-.34,2.59,2.59,0,0,0-2,1,2.25,2.25,0,0,0-.44,2l.06.26.26,0,7.34,0a.59.59,0,0,1,0,1.17Z"/></svg>