<?xml version="1.0" encoding="utf-8"?>
<!-- Generator: Adobe Illustrator 27.7.0, SVG Export Plug-In . SVG Version: 6.00 Build 0)  -->
<svg version="1.1" id="Layer_1" xmlns="http://www.w3.org/2000/svg" xmlns:xlink="http://www.w3.org/1999/xlink" x="0px" y="0px"
	 viewBox="0 0 60 60" style="enable-background:new 0 0 60 60;" xml:space="preserve">
<style type="text/css">
	.st0{clip-path:url(#SVGID_00000041288536695669453340000001012733252090746030_);}
	.st1{fill:#FBD2C0;}
	.st2{fill:#E9262A;}
	.st3{fill:#1B3280;}
</style>
<g>
	<defs>
		<rect id="SVGID_1_" width="60" height="60"/>
	</defs>
	<clipPath id="SVGID_00000079481400134789171150000016010325729660639376_">
		<use xlink:href="#SVGID_1_"  style="overflow:visible;"/>
	</clipPath>
	<g style="clip-path:url(#SVGID_00000079481400134789171150000016010325729660639376_);">
		<path class="st1" d="M45.9,60C53.7,60,60,53.6,60,45.7s-6.3-14.3-14.1-14.3c-7.8,0-14.1,6.4-14.1,14.3S38,60,45.9,60z"/>
		<path class="st2" d="M50,45.7c0-0.8-0.3-1.6-0.7-2.3c-0.5-0.7-1.1-1.2-1.9-1.5c-0.8-0.3-1.6-0.4-2.4-0.2c-0.8,0.2-1.5,0.6-2.1,1.1
			c-0.6,0.6-1,1.3-1.1,2.1c-0.2,0.8-0.1,1.6,0.2,2.4c0.3,0.8,0.8,1.4,1.5,1.9c0.7,0.5,1.5,0.7,2.3,0.7c0.5,0,1.1-0.1,1.6-0.3
			s1-0.5,1.4-0.9c0.4-0.4,0.7-0.9,0.9-1.4C49.9,46.8,50,46.3,50,45.7z M45.8,48.7c-0.6,0-1.2-0.2-1.7-0.5c-0.5-0.3-0.9-0.8-1.1-1.3
			c-0.2-0.5-0.3-1.2-0.2-1.7c0.1-0.6,0.4-1.1,0.8-1.5c0.4-0.4,1-0.7,1.5-0.8c0.6-0.1,1.2-0.1,1.7,0.2c0.5,0.2,1,0.6,1.3,1.1
			c0.3,0.5,0.5,1.1,0.5,1.7c0,0.4-0.1,0.8-0.2,1.2s-0.4,0.7-0.6,1c-0.3,0.3-0.6,0.5-1,0.7C46.6,48.7,46.3,48.7,45.8,48.7L45.8,48.7z
			"/>
		<path class="st2" d="M48.2,37c0-0.5-0.1-0.9-0.4-1.3s-0.6-0.7-1.1-0.9c-0.4-0.2-0.9-0.2-1.4-0.1c-0.5,0.1-0.9,0.3-1.2,0.7
			c-0.3,0.3-0.6,0.8-0.6,1.2c-0.1,0.5,0,0.9,0.1,1.4c0.2,0.4,0.5,0.8,0.9,1.1c0.4,0.3,0.9,0.4,1.3,0.4c0.3,0,0.6-0.1,0.9-0.2
			c0.3-0.1,0.6-0.3,0.8-0.5c0.2-0.2,0.4-0.5,0.5-0.8C48.2,37.7,48.2,37.4,48.2,37z M44.6,37c0-0.2,0.1-0.5,0.2-0.7
			c0.1-0.2,0.3-0.3,0.6-0.4c0.2-0.1,0.5-0.1,0.7-0.1c0.2,0.1,0.4,0.2,0.6,0.3c0.2,0.2,0.3,0.4,0.3,0.6c0,0.2,0,0.5-0.1,0.7
			c-0.1,0.2-0.2,0.4-0.4,0.5c-0.2,0.1-0.4,0.2-0.7,0.2c-0.3,0-0.6-0.1-0.9-0.4C44.7,37.7,44.6,37.4,44.6,37z"/>
		<path class="st2" d="M51.9,37.2c-0.5,0-0.9,0.1-1.3,0.4c-0.4,0.3-0.7,0.6-0.9,1.1c-0.2,0.4-0.2,0.9-0.1,1.4
			c0.1,0.5,0.3,0.9,0.7,1.2c0.5,0.4,1.1,0.7,1.7,0.7c0.6,0,1.2-0.2,1.7-0.7c0.4-0.5,0.7-1.1,0.7-1.7s-0.3-1.3-0.7-1.7
			c-0.2-0.2-0.5-0.4-0.8-0.5C52.5,37.2,52.2,37.2,51.9,37.2z M52.7,40.5c-0.2,0.2-0.5,0.3-0.8,0.3c-0.3,0-0.6-0.1-0.9-0.4
			c-0.1-0.1-0.2-0.3-0.3-0.4c-0.1-0.2-0.1-0.3-0.1-0.5s0-0.3,0.1-0.5c0.1-0.2,0.2-0.3,0.3-0.4c0.2-0.2,0.5-0.3,0.8-0.3
			c0.3,0,0.6,0.1,0.9,0.4c0.2,0.2,0.4,0.6,0.4,0.9C53.1,39.9,53,40.2,52.7,40.5z"/>
		<path class="st2" d="M52,45.7c0,0.5,0.1,0.9,0.4,1.3c0.3,0.4,0.6,0.7,1.1,0.9c0.4,0.2,0.9,0.2,1.4,0.1c0.5-0.1,0.9-0.3,1.2-0.7
			c0.3-0.3,0.6-0.8,0.7-1.2c0.1-0.5,0-0.9-0.1-1.4c-0.2-0.4-0.5-0.8-0.9-1.1c-0.4-0.3-0.9-0.4-1.3-0.4c-0.6,0-1.2,0.3-1.7,0.7
			C52.3,44.4,52,45.1,52,45.7z M54.4,44.5c0.2,0,0.5,0.1,0.7,0.2c0.2,0.1,0.4,0.3,0.5,0.6c0.1,0.2,0.1,0.5,0.1,0.7
			c0,0.2-0.2,0.5-0.3,0.6c-0.2,0.2-0.4,0.3-0.6,0.3c-0.2,0-0.5,0-0.7-0.1c-0.2-0.1-0.4-0.3-0.6-0.5c-0.1-0.2-0.2-0.5-0.2-0.7
			c0-0.3,0.1-0.6,0.4-0.9C53.8,44.6,54.1,44.5,54.4,44.5L54.4,44.5z"/>
		<path class="st2" d="M53.6,50.1c-0.2-0.2-0.5-0.4-0.8-0.5c-0.3-0.1-0.6-0.2-0.9-0.2c-0.3,0-0.6,0.1-0.9,0.2
			c-0.3,0.1-0.6,0.3-0.8,0.5c-0.4,0.5-0.7,1.1-0.7,1.7c0,0.6,0.3,1.2,0.7,1.7c0.2,0.2,0.5,0.4,0.8,0.5c0.3,0.1,0.6,0.2,0.9,0.2
			c0.3,0,0.6-0.1,0.9-0.2c0.3-0.1,0.6-0.3,0.8-0.5c0.4-0.5,0.7-1.1,0.7-1.7S54.1,50.6,53.6,50.1z M52.8,52.7
			c-0.2,0.2-0.5,0.3-0.8,0.3c-0.3,0-0.6-0.1-0.9-0.4c-0.2-0.2-0.4-0.6-0.4-0.9c0-0.3,0.1-0.7,0.4-0.9c0.2-0.2,0.5-0.3,0.8-0.3
			c0.3,0,0.6,0.1,0.9,0.4c0.2,0.2,0.4,0.6,0.4,0.9C53.1,52.2,53,52.5,52.8,52.7z"/>
		<path class="st2" d="M43.5,54.4c0,0.5,0.1,0.9,0.4,1.3c0.3,0.4,0.6,0.7,1.1,0.9c0.4,0.2,0.9,0.2,1.4,0.1c0.5-0.1,0.9-0.3,1.2-0.6
			c0.3-0.3,0.6-0.8,0.7-1.2c0.1-0.5,0-0.9-0.1-1.4c-0.2-0.4-0.5-0.8-0.9-1.1c-0.4-0.3-0.9-0.4-1.3-0.4c-0.6,0-1.2,0.3-1.7,0.7
			C43.8,53.1,43.5,53.7,43.5,54.4z M47.1,54.4c0,0.2-0.1,0.5-0.2,0.7c-0.1,0.2-0.3,0.3-0.6,0.4c-0.2,0.1-0.5,0.1-0.7,0.1
			c-0.2-0.1-0.4-0.2-0.6-0.3c-0.2-0.2-0.3-0.4-0.3-0.6c0-0.2,0-0.5,0.1-0.7c0.1-0.2,0.2-0.4,0.4-0.5s0.4-0.2,0.7-0.2
			c0.3,0,0.6,0.1,0.9,0.4C47,53.7,47.1,54,47.1,54.4z"/>
		<path class="st2" d="M39.8,54.3c0.3,0,0.6-0.1,0.9-0.2c0.3-0.1,0.6-0.3,0.8-0.5c0.4-0.5,0.7-1.1,0.7-1.7s-0.3-1.3-0.7-1.7
			c-0.2-0.2-0.5-0.4-0.8-0.5c-0.3-0.1-0.6-0.2-0.9-0.2c-0.3,0-0.6,0.1-0.9,0.2c-0.3,0.1-0.6,0.3-0.8,0.5c-0.4,0.5-0.7,1.1-0.7,1.7
			s0.3,1.3,0.7,1.7c0.2,0.2,0.5,0.4,0.8,0.5C39.2,54.2,39.5,54.3,39.8,54.3z M39,50.9c0.2-0.2,0.5-0.3,0.8-0.3
			c0.3,0,0.6,0.1,0.9,0.4c0.2,0.2,0.4,0.6,0.4,0.9s-0.1,0.6-0.4,0.9c-0.2,0.2-0.5,0.3-0.9,0.3c-0.3,0-0.6-0.1-0.9-0.3
			c-0.2-0.2-0.4-0.6-0.4-0.9C38.6,51.5,38.8,51.2,39,50.9z"/>
		<path class="st2" d="M34.9,45.7c0,0.5,0.1,0.9,0.4,1.3c0.3,0.4,0.6,0.7,1.1,0.9c0.4,0.2,0.9,0.2,1.4,0.1c0.5-0.1,0.9-0.3,1.2-0.7
			c0.3-0.3,0.6-0.8,0.7-1.2s0-0.9-0.1-1.4c-0.2-0.4-0.5-0.8-0.9-1.1c-0.4-0.3-0.9-0.4-1.3-0.4c-0.3,0-0.6,0.1-0.9,0.2
			c-0.3,0.1-0.6,0.3-0.8,0.5c-0.2,0.2-0.4,0.5-0.5,0.8C35,45.1,34.9,45.4,34.9,45.7z M38.5,45.7c0,0.2-0.1,0.5-0.2,0.7
			c-0.1,0.2-0.3,0.4-0.6,0.4c-0.2,0.1-0.5,0.1-0.7,0.1c-0.2-0.1-0.5-0.2-0.6-0.3c-0.2-0.2-0.3-0.4-0.3-0.6s0-0.5,0.1-0.7
			s0.3-0.4,0.5-0.5c0.2-0.1,0.4-0.2,0.7-0.2c0.3,0,0.6,0.1,0.9,0.4C38.4,45.1,38.5,45.4,38.5,45.7z"/>
		<path class="st2" d="M41.5,41.3c0.4-0.5,0.7-1.1,0.7-1.7c0-0.6-0.3-1.2-0.7-1.7c-0.2-0.2-0.5-0.4-0.8-0.5
			c-0.3-0.1-0.6-0.2-0.9-0.2c-0.3,0-0.6,0.1-0.9,0.2c-0.3,0.1-0.6,0.3-0.8,0.5c-0.4,0.5-0.7,1.1-0.7,1.7c0,0.6,0.3,1.2,0.7,1.7
			c0.2,0.2,0.5,0.4,0.8,0.5c0.3,0.1,0.6,0.2,0.9,0.2c0.3,0,0.6-0.1,0.9-0.2C41,41.7,41.3,41.5,41.5,41.3z M39,38.7
			c0.2-0.2,0.5-0.3,0.8-0.3c0.3,0,0.6,0.1,0.9,0.4c0.2,0.2,0.4,0.6,0.4,0.9c0,0.3-0.1,0.7-0.4,0.9c-0.2,0.2-0.5,0.3-0.8,0.3
			c-0.3,0-0.6-0.1-0.9-0.4c-0.2-0.2-0.4-0.6-0.4-0.9S38.8,38.9,39,38.7z"/>
		<path class="st2" d="M45.9,31.4c-3.3,0-6.5,1.2-9.1,3.4c-2.5,2.1-4.2,5.1-4.8,8.4l-0.1,0.4l0,0.4v0.4v0.2V45v0.7
			c0,0.1,0,0.3,0,0.5v0.3v0.4v0.4l0,0.4L32,48l0.1,0.7c0.7,3.2,2.4,6,4.9,8.1c2.5,2.1,5.6,3.2,8.8,3.2c1.3,0,2.7-0.2,3.9-0.5
			c0.1-0.1,0.2-0.2,0.2-0.3c0-0.1,0-0.2,0-0.4c0-0.1-0.1-0.2-0.2-0.3c-0.1-0.1-0.2-0.1-0.3-0.1h-0.2c-1.1,0.3-2.3,0.5-3.5,0.5
			c-2.6,0-5.2-0.7-7.3-2.1c-2.2-1.4-3.9-3.5-4.9-5.9c-1-2.4-1.3-5-0.8-7.6c0.5-2.6,1.7-4.9,3.6-6.8c1.8-1.8,4.2-3.1,6.7-3.6
			c2.6-0.5,5.2-0.3,7.6,0.7c2.4,1,4.5,2.7,5.9,4.8c1.4,2.2,2.2,4.7,2.2,7.3c0,2.1-0.5,4.2-1.4,6c-1,1.9-2.3,3.5-4,4.7
			c-0.1,0.1-0.2,0.2-0.2,0.3c0,0.1,0,0.2,0,0.3c0,0.1,0.1,0.2,0.2,0.3c0.1,0.1,0.2,0.1,0.4,0.1h0.1c2.2-1.5,3.9-3.7,5-6.1l0.1-0.2
			l0.2-0.5c0.4-1.2,0.7-2.4,0.8-3.7v-0.4v-0.3c0,0,0-0.4,0-0.5c0-3.8-1.4-7.4-4.1-10.1C53.2,33,49.6,31.5,45.9,31.4z"/>
		<path class="st3" d="M22.3,58.3c-0.5,0-0.9-0.2-1.2-0.5c-0.3-0.3-0.5-0.8-0.5-1.2v-3.9H10.1c-0.8,0-1.5-0.3-2-0.8
			c-0.6-0.5-0.9-1.2-1-1.9L2.8,17.3H2.5c-0.5,0-1.1-0.2-1.5-0.6c-0.4-0.3-0.7-0.8-0.9-1.3s-0.2-1.1,0-1.6c0.1-0.5,0.4-1,0.8-1.3
			l0.2-0.1L1,12.2c-0.1-0.3-0.2-0.6-0.2-0.9c0-0.5,0.1-0.9,0.2-1.4C1.2,9.4,1.5,9,1.8,8.7C2.5,8,3.4,7.6,4.3,7.5h0.2
			c0.2,0,0.4,0,0.6,0h0.3V7.2C5.5,6,6.1,4.8,6.9,3.9c1-1.1,2.4-1.7,3.9-1.8h0.2c1.1,0,2.1,0.3,3.1,0.8l0.2,0.1L14.5,3
			c0.6-0.6,1.4-0.9,2.3-0.9h0.2c0.7,0,1.4,0.2,2.1,0.6c0.6,0.4,1.1,1,1.3,1.7l0.1,0.2h0.2c0.2,0,0.5,0,0.7,0c0.4,0,0.8,0,1.2,0.1
			l0.3,0.1l0.1-0.3c0.2-0.7,0.7-1.3,1.3-1.8C24.8,2.3,25.5,2,26.2,2h0.2c0.6,0,1.1,0.1,1.7,0.4l0.3,0.1l0.1-0.3
			c0.3-0.6,0.7-1.2,1.3-1.6C30.3,0.3,31,0,31.7,0h0.2c0.9,0,1.8,0.3,2.4,0.9c0.7,0.6,1.1,1.4,1.2,2.3v0.3h0.3c1.4,0,2.7,0.6,3.7,1.6
			c1,1,1.6,2.3,1.7,3.7c0,1-0.2,2-0.7,2.9L40.3,12l0.3,0.2c0.5,0.3,0.9,0.7,1.2,1.2c0.3,0.5,0.3,1.1,0.2,1.7
			c-0.1,0.6-0.4,1.1-0.9,1.5c-0.4,0.4-1,0.6-1.6,0.7h-0.2l-1.5,12.2c-0.4,0.2-0.9,0.5-1.3,0.7l1.6-12.9h-7.8l-0.9,9l0.1,0.1
			c1,1.2,1.6,2.7,1.6,4.3c-0.1,2.3-1,4.5-2.6,6.2L28.4,37l-1.2,12.3h0.9c0.1,0.4,0.2,0.8,0.3,1.2H27v6.7h4v-1
			c0.5,0.8,1.1,1.5,1.8,2.2L22.3,58.3z M22.3,50.4c-0.1,0-0.1,0-0.2,0c-0.1,0-0.1,0.1-0.2,0.1c0,0-0.1,0.1-0.1,0.2
			c0,0.1,0,0.1,0,0.2v5.7c0,0.1,0.1,0.3,0.2,0.4c0.1,0.1,0.2,0.2,0.4,0.2h3.5v-6.7H22.3z M16.2,51.5h4.4v-0.6c0-0.4,0.2-0.9,0.5-1.2
			c0.3-0.3,0.7-0.5,1.2-0.5H26l1-11l-0.6,0.5c-1.6,1.3-3.4,2.4-5.3,3.2C21.2,42,21.1,42,21,42c-0.1,0-0.1,0-0.2,0
			c-1.9-0.8-3.7-1.9-5.3-3.2L15,38.3L16.2,51.5z M8.1,49.8c0.1,0.5,0.3,0.9,0.7,1.2c0.4,0.3,0.8,0.5,1.3,0.5h5l-1.4-14.2
			c0,0,0-0.1,0-0.1v-0.1L13.6,37C12,35.3,11,33,11,30.6c0-1.6,0.6-3.1,1.6-4.3l0.1-0.1l-0.9-9H4L8.1,49.8z M16.5,25.7
			c-1.2,0.1-2.4,0.6-3.2,1.6c-0.8,0.9-1.2,2.1-1.2,3.4c0,5.8,7.3,9.4,8.8,10.1l0.1,0.1l0.1-0.1c2-1,8.7-4.5,8.8-10.1
			c0-1.3-0.5-2.6-1.5-3.6c-0.4-0.4-0.8-0.7-1.3-0.9c-0.5-0.2-1-0.3-1.6-0.3c-0.9,0-1.7,0.3-2.4,0.8c-0.7,0.5-1.3,1.2-1.6,2.1
			c0,0.1-0.1,0.2-0.2,0.3C21.3,29,21.1,29,21,29s-0.2,0-0.3-0.1c-0.1-0.1-0.2-0.2-0.2-0.3c-0.3-0.8-0.8-1.6-1.5-2.1
			C18.2,26,17.4,25.7,16.5,25.7z M16.5,24.5c0.8,0,1.7,0.2,2.4,0.6c0.7,0.4,1.4,0.9,1.9,1.6l0.2,0.3l0.2-0.3
			c0.5-0.7,1.1-1.2,1.9-1.6c0.7-0.4,1.6-0.6,2.4-0.6c0.8,0,1.6,0.2,2.4,0.6l0.4,0.2l0.8-8H13l0.8,8l0.4-0.2
			C14.9,24.7,15.7,24.5,16.5,24.5z M2.7,13c-0.4,0-0.8,0.2-1,0.5c-0.3,0.3-0.4,0.7-0.4,1.1s0.1,0.8,0.4,1.1s0.6,0.5,1,0.5h36.6
			c0.4,0,0.8-0.2,1-0.5c0.3-0.3,0.4-0.7,0.4-1.1s-0.1-0.8-0.4-1.1c-0.3-0.3-0.6-0.5-1-0.5H14.5c-0.1,0-0.2,0-0.2,0
			c-0.1,0-0.2-0.1-0.2-0.1c-0.1-0.1-0.1-0.1-0.1-0.2c0-0.1-0.1-0.2-0.1-0.2s0-0.2,0.1-0.2c0-0.1,0.1-0.1,0.1-0.2
			c0.1-0.1,0.1-0.1,0.2-0.1c0.1,0,0.2,0,0.2,0H39l0.1-0.1c0.7-0.8,1-1.8,1-2.9c-0.1-1.1-0.6-2.2-1.4-3c-0.8-0.8-1.9-1.2-3.1-1.2
			h-0.2H35c-0.1,0-0.2,0-0.3,0c-0.1,0-0.2-0.1-0.2-0.2c-0.1-0.1-0.1-0.1-0.1-0.2c0-0.1,0-0.2,0-0.3c0-0.2,0.1-0.4,0-0.6
			c0-0.6-0.3-1.2-0.8-1.6c-0.5-0.4-1.1-0.7-1.7-0.7h-0.1c-0.6,0-1.3,0.3-1.7,0.8c-0.4,0.5-0.7,1.1-0.7,1.7c0,0.1,0,0.2,0,0.2
			c0,0.1-0.1,0.1-0.1,0.2c-0.1,0.1-0.1,0.1-0.2,0.1c-0.1,0-0.2,0-0.2,0c-0.1,0-0.2,0-0.2,0c-0.1,0-0.1-0.1-0.2-0.2
			c-0.2-0.3-0.5-0.5-0.9-0.7c-0.3-0.2-0.7-0.2-1.1-0.2h-0.1c-0.6,0-1.2,0.3-1.6,0.7c-0.4,0.4-0.7,1-0.7,1.6c0,0.2-0.1,0.3-0.2,0.4
			C23.7,5.9,23.6,6,23.4,6c-0.1,0-0.1,0-0.2,0c-1-0.4-2-0.4-3-0.2c0,0-0.1,0-0.2,0c-0.1,0-0.3,0-0.4-0.1c-0.1-0.1-0.2-0.2-0.2-0.4
			c-0.1-0.6-0.4-1.1-0.8-1.5c-0.5-0.4-1-0.6-1.6-0.6h-0.1c-0.4,0-0.8,0.1-1.1,0.3c-0.3,0.2-0.6,0.4-0.8,0.8
			c-0.1,0.1-0.1,0.1-0.2,0.2c-0.1,0-0.2,0.1-0.3,0.1c-0.2,0-0.4,0-0.5-0.1c-0.8-0.7-1.9-1.1-2.9-1.1h-0.2c-1.2,0-2.3,0.5-3.1,1.4
			C7.3,5.2,7,5.8,6.8,6.5c-0.2,0.6-0.2,1.3-0.1,2c0,0.1,0,0.2,0,0.2c0,0.1-0.1,0.2-0.1,0.2C6.5,9,6.4,9,6.3,9.1
			c-0.1,0-0.2,0.1-0.3,0.1c-0.1,0-0.2,0-0.3-0.1C5.4,8.8,5,8.7,4.6,8.7C4.2,8.7,3.8,8.8,3.4,9C3.1,9.2,2.8,9.4,2.6,9.7
			c-0.2,0.3-0.4,0.6-0.5,0.9C2,11,2,11.4,2.1,11.7L2.2,12h0.3h7.3c0.1,0,0.3,0.1,0.4,0.2c0.1,0.1,0.1,0.2,0.1,0.4
			c0,0.1-0.1,0.3-0.1,0.4c-0.1,0.1-0.2,0.2-0.4,0.2L2.7,13z"/>
	</g>
</g>
</svg>
