<svg id="Layer_1" data-name="Layer 1" xmlns="http://www.w3.org/2000/svg" viewBox="0 0 32 32"><defs><style>.cls-1{fill:#1b3280;}.cls-1,.cls-2,.cls-3{fill-rule:evenodd;}.cls-2{fill:#fbd2c0;}.cls-3{fill:#ec1c24;}</style></defs><title>QuickLink_NRI</title><path class="cls-1" d="M31.92,24.78a1.87,1.87,0,0,0-2.12-1.29c-1.41.25-3,.66-4.62,1.09-.86.23-1.74.46-2.61.67a3.29,3.29,0,0,0-3.09-2.57l-.68,0a10.56,10.56,0,0,1-3.3-.79,10.32,10.32,0,0,0-3.28-.79,7.88,7.88,0,0,0-5.61,2.12,1,1,0,0,1-.61.24l-.47,0V22.19a.36.36,0,0,0-.36-.36H.36a.36.36,0,0,0-.36.36v9.58a.36.36,0,0,0,.36.36H5.17a.36.36,0,0,0,.36-.36v-1.4H7.24a8.13,8.13,0,0,1,1.7.19l5.12,1.14a6.61,6.61,0,0,0,1.4.16h.09l2.83-.05a6.26,6.26,0,0,0,2.45-.52l10-4.24a1.87,1.87,0,0,0,1.05-2.27ZM4.81,31.41H.72V22.55H4.81v8.86Zm25.77-5h0l-10,4.24a5.59,5.59,0,0,1-2.17.46l-2.83,0A5.85,5.85,0,0,1,14.22,31L9.1,29.86a8.35,8.35,0,0,0-1.86-.21H5.53V24.13l.45,0a1.73,1.73,0,0,0,1.1-.42,7.22,7.22,0,0,1,5.14-1.94,9.57,9.57,0,0,1,3,.75,11,11,0,0,0,3.52.83h0l.67,0a2.55,2.55,0,0,1,2.41,2c-3,.68-5.82,1-7.11-.18a.37.37,0,0,0-.51,0,.35.35,0,0,0,0,.51c2.06,1.9,6.66.69,11.1-.48,1.64-.43,3.18-.84,4.57-1.08a1.15,1.15,0,0,1,.65,2.19Z"/><path class="cls-1" d="M7.47,18.81a.4.4,0,0,1-.69.41,13.29,13.29,0,0,1-1.36-3.16A12.94,12.94,0,0,1,5,12.64,12.77,12.77,0,1,1,25.29,22.91a.4.4,0,1,1-.47-.64A12.06,12.06,0,0,0,28.41,18,12,12,0,1,0,6.19,15.84,12.07,12.07,0,0,0,7.47,18.81Z"/><path class="cls-2" d="M17.72,20.09a7.46,7.46,0,1,0-7.46-7.45A7.47,7.47,0,0,0,17.72,20.09Z"/><path class="cls-3" d="M17.72,4.86a7.77,7.77,0,1,1-5.5,2.27,7.76,7.76,0,0,1,5.5-2.27Zm5.05,2.73a7.13,7.13,0,1,0,2.09,5.05A7.13,7.13,0,0,0,22.77,7.59Z"/><path class="cls-3" d="M15.61,12.15a1.63,1.63,0,1,1,1.63-1.62,1.63,1.63,0,0,1-1.63,1.62Zm4.22,4.22a1.63,1.63,0,1,1,1.62-1.62,1.63,1.63,0,0,1-1.62,1.62Zm-5.42,0a.43.43,0,0,0,.3-.13l6.62-6.62A.42.42,0,0,0,20.74,9l-6.63,6.62a.42.42,0,0,0,0,.59.43.43,0,0,0,.3.13Zm1.2-6.63a.79.79,0,0,0-.78.79.79.79,0,0,0,1.57,0,.8.8,0,0,0-.79-.79ZM19.83,14a.79.79,0,1,0,.78.79A.78.78,0,0,0,19.83,14Z"/></svg>