<svg id="Layer_1" data-name="Layer 1" xmlns="http://www.w3.org/2000/svg" viewBox="0 0 60 60"><defs><style>.cls-1{fill:#1b3280;}.cls-2{fill:#fbd2c0;}.cls-2,.cls-3,.cls-4{stroke:#e9262a;stroke-miterlimit:10;}.cls-2,.cls-3{stroke-linecap:round;stroke-width:1.3px;}.cls-3,.cls-4{fill:none;}</style></defs><title>CC_FilterIcon</title><path class="cls-1" d="M56.37,22.37H46.86c-.17.45-.35.89-.56,1.32H56.37A2.32,2.32,0,0,1,58.68,26V56.37a2.32,2.32,0,0,1-2.31,2.31H7.46a2.32,2.32,0,0,1-2.32-2.31V26a2.32,2.32,0,0,1,2.32-2.31h6c-.21-.43-.39-.87-.56-1.32H7.46A3.64,3.64,0,0,0,3.82,26V56.37A3.64,3.64,0,0,0,7.46,60H56.37A3.64,3.64,0,0,0,60,56.37V26A3.64,3.64,0,0,0,56.37,22.37Z"/><path class="cls-1" d="M20.88,48.94a.66.66,0,0,1,0-1.32h5.68a.66.66,0,1,1,0,1.32Z"/><path class="cls-1" d="M9.82,40.67A.67.67,0,0,1,9.16,40V34.66A.67.67,0,0,1,9.82,34h7.4a.67.67,0,0,1,.66.66V40a.67.67,0,0,1-.66.66Zm.66-1.32h6.07v-4H10.48Z"/><path class="cls-1" d="M9.82,54.43a.66.66,0,0,1,0-1.32H30.11a.66.66,0,0,1,0,1.32Z"/><path class="cls-1" d="M9.82,48.94a.66.66,0,0,1,0-1.32H15.5a.66.66,0,1,1,0,1.32Z"/><path class="cls-1" d="M43,48.94a.66.66,0,0,1,0-1.32h5.69a.66.66,0,0,1,0,1.32Z"/><path class="cls-1" d="M31.94,48.94a.66.66,0,0,1,0-1.32h5.69a.66.66,0,1,1,0,1.32Z"/><path class="cls-2" d="M29.9,30.83A14.9,14.9,0,1,0,15,15.93,14.9,14.9,0,0,0,29.9,30.83Z"/><path class="cls-3" d="M36.94,29.19l2.61,2.6a.75.75,0,0,0,1.07,0l5.14-5.14a.75.75,0,0,0,0-1.07L43.15,23"/><path class="cls-3" d="M41.54,31.47l8.34,8.34a2.75,2.75,0,0,0,3.9,0h0a2.77,2.77,0,0,0,0-3.9l-8.34-8.34"/><path class="cls-3" d="M29.9,9.52a11.88,11.88,0,0,1,10.55,6.41,11.9,11.9,0,0,1-21.11,0A11.89,11.89,0,0,1,29.9,9.52Z"/><path class="cls-4" d="M26.06,15.93a3.84,3.84,0,1,1,3.84,3.83,3.83,3.83,0,0,1-3.84-3.83"/><path class="cls-1" d="M11.94,18.55H3.63A3.64,3.64,0,0,0,0,22.18V52.54a3.63,3.63,0,0,0,1.85,3.15V54a2.27,2.27,0,0,1-.53-1.45V22.18a2.32,2.32,0,0,1,2.31-2.31h8.54C12.07,19.43,12,19,11.94,18.55Z"/><path class="cls-1" d="M52.54,18.55H47.85c-.06.44-.13.88-.23,1.32h4.92a2.28,2.28,0,0,1,1.4.48h1.73A3.64,3.64,0,0,0,52.54,18.55Z"/></svg>