<svg id="Layer_1" data-name="Layer 1" xmlns="http://www.w3.org/2000/svg" viewBox="0 0 60 60"><defs><style>.cls-1{fill:#e9292c;}.cls-1,.cls-4,.cls-5{stroke:#28387d;}.cls-1,.cls-3,.cls-4,.cls-5{stroke-linecap:round;stroke-linejoin:round;}.cls-2,.cls-3{fill:#fbd2c0;stroke:#e9292c;}.cls-2{stroke-miterlimit:10;}.cls-4{fill:none;}.cls-5{fill:#010101;}</style></defs><title>Generic_Icon</title><path class="cls-1" d="M51,1.48V7.86"/><path class="cls-1" d="M54.14,4.67H47.76"/><path class="cls-1" d="M56.27,8.66v3.78"/><path class="cls-1" d="M58.16,10.55H54.37"/><path class="cls-2" d="M34.36,30.79a1.84,1.84,0,0,1-.47-.06,3.35,3.35,0,0,1-1.64-1.38,3.66,3.66,0,0,0-.87-.93,3.69,3.69,0,0,0-1.27-.3,3.31,3.31,0,0,1-2-.72,3.32,3.32,0,0,1-.72-2,3.48,3.48,0,0,0-.31-1.26,3.47,3.47,0,0,0-.92-.87,3.35,3.35,0,0,1-1.38-1.64,3.21,3.21,0,0,1,.37-2.06,3.79,3.79,0,0,0,.37-1.27A3.78,3.78,0,0,0,25.16,17,3.21,3.21,0,0,1,24.79,15a3.35,3.35,0,0,1,1.38-1.64,3.47,3.47,0,0,0,.92-.87,3.48,3.48,0,0,0,.31-1.26,3.32,3.32,0,0,1,.72-2,3.31,3.31,0,0,1,2-.72,3.69,3.69,0,0,0,1.27-.3,3.66,3.66,0,0,0,.87-.93,3.3,3.3,0,0,1,1.64-1.38A3.21,3.21,0,0,1,36,6.23a3.79,3.79,0,0,0,1.27.37,4,4,0,0,0,1.28-.37,3.28,3.28,0,0,1,2.06-.38A3.42,3.42,0,0,1,42.2,7.24a3.62,3.62,0,0,0,.87.92,3.7,3.7,0,0,0,1.26.31,3.29,3.29,0,0,1,2,.72,3.25,3.25,0,0,1,.72,2,3.64,3.64,0,0,0,.31,1.26,3.66,3.66,0,0,0,.92.88A3.32,3.32,0,0,1,49.66,15,3.25,3.25,0,0,1,49.29,17a3.86,3.86,0,0,0-.38,1.28,3.86,3.86,0,0,0,.38,1.28,3.25,3.25,0,0,1,.37,2.05,3.32,3.32,0,0,1-1.39,1.64,3.66,3.66,0,0,0-.92.88A3.59,3.59,0,0,0,47,25.4a3.19,3.19,0,0,1-.72,2,3.31,3.31,0,0,1-2,.72,3.7,3.7,0,0,0-1.26.31,3.47,3.47,0,0,0-.87.92,3.42,3.42,0,0,1-1.64,1.39,3.28,3.28,0,0,1-2.06-.38A3.76,3.76,0,0,0,37.22,30a3.57,3.57,0,0,0-1.27.37,4.43,4.43,0,0,1-1.59.43Z"/><line class="cls-3" x1="39.78" y1="12.44" x2="34.97" y2="23.9"/><ellipse class="cls-3" cx="32.91" cy="14.38" rx="2.12" ry="2.47"/><ellipse class="cls-3" cx="41.53" cy="22.21" rx="2.12" ry="2.47"/><path class="cls-4" d="M37.37,36.87l16.81-5c1.8-.4,2.29.41,2.55,1.1s.06,1.71-1.2,2.62L38,45.94a4.91,4.91,0,0,1-3,1H20.48l-6-5.81"/><path class="cls-4" d="M13,39.15c.64-1.2,4-6.76,9.63-6.76A16.89,16.89,0,0,1,29,34.12a.85.85,0,0,0,.31.06h5.48c3.38,0,3.52,4.29-.1,4.29H24.13"/><path class="cls-4" d="M8.4,50.62l7.67,7.67a.79.79,0,0,0,1.12,0l4.42-4.42a.79.79,0,0,0,0-1.12L21,52.18l1.65-1.65a.79.79,0,0,0,0-1.12l-1.62-1.63-8-8L11,37.67a.79.79,0,0,0-1.12,0L8.18,39.32l-.57-.57a.78.78,0,0,0-1.11,0L2.07,43.18a.78.78,0,0,0,0,1.11h0L6,48.18"/><line class="cls-5" x1="8.18" y1="39.32" x2="21.04" y2="52.18"/></svg>