<svg width="70" height="70" viewBox="0 0 70 70" fill="none" xmlns="http://www.w3.org/2000/svg">
<g filter="url(#filter0_d_5_11947)">
<circle cx="32.8034" cy="31.0973" r="18.1882" fill="white"/>
<path d="M35.2277 0.783946C43.2673 0.783945 50.9777 3.97769 56.6626 9.66259C62.3475 15.3475 65.5412 23.0579 65.5412 31.0975C65.5412 39.1372 62.3475 46.8476 56.6626 52.5325C50.9777 58.2174 43.2673 61.4111 35.2277 61.4111C27.188 61.4111 19.4776 58.2174 13.7927 52.5325C8.10781 46.8476 4.91406 39.1372 4.91406 31.0975C4.91406 23.0579 8.10781 15.3475 13.7927 9.66259C19.4776 3.97769 27.188 0.783946 35.2277 0.783946ZM21.9655 29.2029C21.463 29.2029 20.9811 29.4025 20.6258 29.7579C20.2705 30.1132 20.0709 30.5951 20.0709 31.0975C20.0709 31.6 20.2705 32.0819 20.6258 32.4372C20.9811 32.7925 21.463 32.9921 21.9655 32.9921L43.9163 32.9921L35.7809 41.1238C35.4251 41.4795 35.2253 41.962 35.2253 42.4651C35.2253 42.9682 35.4251 43.4508 35.7809 43.8065C36.1366 44.1623 36.6191 44.3621 37.1223 44.3621C37.6254 44.3621 38.1079 44.1623 38.4636 43.8065L49.8312 32.4389C50.0077 32.2629 50.1476 32.0539 50.2432 31.8237C50.3387 31.5935 50.3878 31.3467 50.3878 31.0975C50.3878 30.8483 50.3387 30.6016 50.2432 30.3714C50.1476 30.1412 50.0077 29.9322 49.8312 29.7562L38.4636 18.3886C38.1079 18.0328 37.6254 17.8329 37.1223 17.8329C36.6191 17.8329 36.1366 18.0328 35.7809 18.3886C35.4251 18.7443 35.2253 19.2268 35.2253 19.7299C35.2253 20.2331 35.4251 20.7156 35.7809 21.0713L43.9163 29.2029L21.9655 29.2029Z" fill="#304087"/>
</g>
<defs>
<filter id="filter0_d_5_11947" x="0.914062" y="0.78418" width="68.627" height="68.627" filterUnits="userSpaceOnUse" color-interpolation-filters="sRGB">
<feFlood flood-opacity="0" result="BackgroundImageFix"/>
<feColorMatrix in="SourceAlpha" type="matrix" values="0 0 0 0 0 0 0 0 0 0 0 0 0 0 0 0 0 0 127 0" result="hardAlpha"/>
<feOffset dy="4"/>
<feGaussianBlur stdDeviation="2"/>
<feComposite in2="hardAlpha" operator="out"/>
<feColorMatrix type="matrix" values="0 0 0 0 0 0 0 0 0 0 0 0 0 0 0 0 0 0 0.25 0"/>
<feBlend mode="normal" in2="BackgroundImageFix" result="effect1_dropShadow_5_11947"/>
<feBlend mode="normal" in="SourceGraphic" in2="effect1_dropShadow_5_11947" result="shape"/>
</filter>
</defs>
</svg>
