<svg width="16" height="16" viewBox="0 0 16 16" fill="none" xmlns="http://www.w3.org/2000/svg">
<circle cx="8" cy="8" r="7.5" transform="rotate(-180 8 8)" stroke="#304087"/>
<path d="M4 7.5C3.72386 7.5 3.5 7.72386 3.5 8C3.5 8.27614 3.72386 8.5 4 8.5L4 7.5ZM12.3536 8.35355C12.5488 8.15829 12.5488 7.84171 12.3536 7.64645L9.17157 4.46447C8.97631 4.2692 8.65973 4.2692 8.46447 4.46447C8.2692 4.65973 8.2692 4.97631 8.46447 5.17157L11.2929 8L8.46447 10.8284C8.2692 11.0237 8.2692 11.3403 8.46447 11.5355C8.65973 11.7308 8.97631 11.7308 9.17157 11.5355L12.3536 8.35355ZM4 8.5L12 8.5L12 7.5L4 7.5L4 8.5Z" fill="#304087"/>
</svg>
