<svg width="21" height="17" viewBox="0 0 21 17" fill="none" xmlns="http://www.w3.org/2000/svg">
<path d="M16.2734 7.3313V9.3313H20.2734V7.3313H16.2734ZM14.2734 13.9413C15.2334 14.6513 16.4834 15.5913 17.4734 16.3313C17.8734 15.8013 18.2734 15.2613 18.6734 14.7313C17.6834 13.9913 16.4334 13.0513 15.4734 12.3313C15.0734 12.8713 14.6734 13.4113 14.2734 13.9413ZM18.6734 1.9313C18.2734 1.4013 17.8734 0.861299 17.4734 0.331299C16.4834 1.0713 15.2334 2.0113 14.2734 2.7313C14.6734 3.2613 15.0734 3.8013 15.4734 4.3313C16.4334 3.6113 17.6834 2.6813 18.6734 1.9313ZM2.27344 5.3313C1.17344 5.3313 0.273438 6.2313 0.273438 7.3313V9.3313C0.273438 10.4313 1.17344 11.3313 2.27344 11.3313H3.27344V15.3313H5.27344V11.3313H6.27344L11.2734 14.3313V2.3313L6.27344 5.3313H2.27344ZM13.7734 8.3313C13.7734 7.0013 13.1934 5.8013 12.2734 4.9813V11.6713C13.1934 10.8613 13.7734 9.6613 13.7734 8.3313Z" fill="#304087"/>
</svg>
