<svg id="Layer_1" data-name="Layer 1" xmlns="http://www.w3.org/2000/svg" viewBox="0 0 32 32"><defs><style>.cls-1{opacity:0.08;}.cls-2{fill:#2f2e3d;}.cls-3{fill:#fff;}.cls-4{fill:#ed1c24;}</style></defs><title>NRI</title><circle class="cls-1" cx="16" cy="16" r="16"/><path class="cls-2" d="M18.33,18a6.72,6.72,0,1,0-6.72-6.72A6.72,6.72,0,0,0,18.33,18Z"/><path class="cls-3" d="M18.33,5.42a5.9,5.9,0,1,1-5.9,5.9,5.91,5.91,0,0,1,5.9-5.9Z"/><path class="cls-4" d="M18.33,6.38a4.94,4.94,0,1,1-4.94,4.94,4.94,4.94,0,0,1,4.94-4.94Z"/><path class="cls-2" d="M27.4,19.38a1.28,1.28,0,0,0-1.68-.67h0l-4.39,1.9a1.44,1.44,0,0,0-1.38-1.49H17.59A15.68,15.68,0,0,1,14,18.48a6.7,6.7,0,0,0-4.67.58l-1.61.84a1,1,0,0,0-1-1H5.52a1,1,0,0,0-1,1v6.45a1,1,0,0,0,1,1h1.2a1,1,0,0,0,1-1v-.29l.89-.45a7.6,7.6,0,0,1,5.28-.6,7.34,7.34,0,0,0,1.81.35h2.17A3.5,3.5,0,0,0,19.53,25l7.31-4a1.25,1.25,0,0,0,.56-1.59Zm-20.48,7a.2.2,0,0,1-.2.19H5.52a.2.2,0,0,1-.2-.19V19.9a.2.2,0,0,1,.2-.2h1.2a.2.2,0,0,1,.2.2Zm19.52-6.1-7.31,4a2.57,2.57,0,0,1-1.24.32H15.72a7.22,7.22,0,0,1-1.6-.33,8.49,8.49,0,0,0-5.86.66l-.52.26v-4.3l2-1a5.94,5.94,0,0,1,4.1-.5l1.82.44a19.16,19.16,0,0,0,4.22.23.63.63,0,0,1,.62.63.62.62,0,0,1-.52.6l-.24,0a29.91,29.91,0,0,1-4.45.16.41.41,0,1,0,0,.82A29.72,29.72,0,0,0,20.1,22c0,.08,5.72-2.47,5.94-2.54a.44.44,0,0,1,.59.23.44.44,0,0,1-.19.56Z"/><path class="cls-3" d="M16,14.24a.41.41,0,0,0,.56-.06L20.74,9a.39.39,0,0,0-.61-.49l-4.21,5.21a.41.41,0,0,0,.06.56Z"/><path class="cls-3" d="M16.85,10.8a1.47,1.47,0,1,0-1.46-1.46A1.48,1.48,0,0,0,16.85,10.8Zm0-2.15a.68.68,0,0,1,0,1.36.68.68,0,0,1,0-1.36Z"/><path class="cls-3" d="M18.35,13.32a1.47,1.47,0,1,0,1.45-1.46A1.46,1.46,0,0,0,18.35,13.32Zm2.15,0a.69.69,0,0,1-.69.67.68.68,0,1,1,0-1.35A.69.69,0,0,1,20.5,13.32Z"/></svg>