<svg id="Layer_1" data-name="Layer 1" xmlns="http://www.w3.org/2000/svg" viewBox="0 0 32 32"><defs><style>.cls-1{opacity:0.08;}.cls-2{fill:#ed1c24;}.cls-3{fill:#fff;}.cls-4{fill:#2f2e3d;}</style></defs><title>NRI</title><circle class="cls-1" cx="16" cy="16" r="16"/><ellipse class="cls-2" cx="16" cy="20.46" rx="4.58" ry="4.64"/><path class="cls-3" d="M16.84,20H15.16a.85.85,0,0,1,0-1.69h1.68a.84.84,0,0,1,.83.85h.84a1.69,1.69,0,0,0-1.67-1.7h-.42v-.85h-.84v.85h-.42a1.7,1.7,0,0,0,0,3.39h1.68a.85.85,0,0,1,0,1.7H15.16a.84.84,0,0,1-.83-.85h-.84a1.68,1.68,0,0,0,1.67,1.69h.42v.85h.84v-.85h.42a1.7,1.7,0,0,0,0-3.39Z"/><path class="cls-4" d="M21.19,5.24A6.33,6.33,0,0,0,16,8a6.3,6.3,0,1,0-5.73,9.85,6.2,6.2,0,0,0-.58,2.62,6.3,6.3,0,0,0,10,5.13l-.43-.6a5.58,5.58,0,1,1,1-.92l.56.48a6.24,6.24,0,0,0,.94-6.71,6.25,6.25,0,0,0,3.12-1.15l-.43-.61a5.45,5.45,0,0,1-3.08,1,6.32,6.32,0,0,0-4.8-2.94,6.37,6.37,0,0,0,.57-2.62,6.26,6.26,0,0,0-.69-2.86,5.56,5.56,0,1,1,9,6.47l.57.48a6.31,6.31,0,0,0-4.8-10.4Zm-5.47,8.92a6.3,6.3,0,0,0-5.06,2.95,5.57,5.57,0,1,1,5.71-5.56A5.64,5.64,0,0,1,15.72,14.16Z"/><path class="cls-4" d="M21.19,14.15A1.12,1.12,0,0,1,20.08,13v-.37h.74v-.74h-.74v-.74h.74v-.74h-.74v-.38a1.12,1.12,0,0,1,2.23,0h.74a1.86,1.86,0,0,0-3.71,0v.38H18.6v.74h.74v.74H18.6v.74h.74V13a1.86,1.86,0,1,0,3.71,0h-.74A1.12,1.12,0,0,1,21.19,14.15Z"/><polygon class="cls-4" points="11.18 10.94 13.31 8.45 12.75 7.97 10.81 10.24 8.86 7.97 8.3 8.45 10.44 10.94 10.44 11.92 9.69 11.92 9.69 12.66 10.44 12.66 10.44 13.4 9.69 13.4 9.69 14.14 10.44 14.14 10.44 14.52 11.18 14.52 11.18 14.14 11.92 14.14 11.92 13.4 11.18 13.4 11.18 12.66 11.92 12.66 11.92 11.92 11.18 11.92 11.18 10.94"/></svg>