<svg id="Layer_1" data-name="Layer 1" xmlns="http://www.w3.org/2000/svg" viewBox="0 0 32 32"><defs><style>.cls-1{opacity:0.08;}.cls-2{fill:#2f2e3d;}.cls-3{fill:#ed1c24;}</style></defs><title>NRI</title><circle class="cls-1" cx="16" cy="16" r="16"/><path class="cls-2" d="M5.09,16A10.91,10.91,0,0,1,22.76,7.44H21.1a.55.55,0,0,0-.54.55.54.54,0,0,0,.54.54h3.08A.55.55,0,0,0,24.73,8V4.9a.55.55,0,0,0-.54-.55.53.53,0,0,0-.55.54h0V6.74A12,12,0,0,0,7.52,24.49a.54.54,0,0,0,.78-.76h0A10.81,10.81,0,0,1,5.09,16Z"/><path class="cls-2" d="M11.23,25.82c-.31-.15-.61-.32-.91-.5a.55.55,0,0,0-.57.93h0c.33.2.67.38,1,.55a.54.54,0,1,0,.47-1Z"/><path class="cls-2" d="M25.82,11.24a.55.55,0,0,0,.73.26.55.55,0,0,0,.26-.73h0c-.17-.34-.35-.68-.55-1a.55.55,0,0,0-.75-.19.54.54,0,0,0-.18.75C25.51,10.63,25.67,10.94,25.82,11.24Z"/><path class="cls-2" d="M17.3,26.84c-.35,0-.7.06-1,.07a.55.55,0,0,0,0,1.09h0c.37,0,.76,0,1.13-.08a.55.55,0,0,0,.48-.61.53.53,0,0,0-.6-.47Z"/><path class="cls-2" d="M14.19,26.76a8.65,8.65,0,0,1-1-.22.55.55,0,0,0-.67.39.54.54,0,0,0,.39.67c.36.09.74.18,1.11.24a.55.55,0,1,0,.18-1.08Z"/><path class="cls-2" d="M27.47,15.74a.55.55,0,0,0-.56.53,9.1,9.1,0,0,1-.08,1,.54.54,0,0,0,.48.6h.07a.56.56,0,0,0,.54-.48c0-.38.07-.76.08-1.14a.55.55,0,0,0-.53-.56Z"/><path class="cls-2" d="M25.79,22a.53.53,0,0,0-.75.14c-.2.29-.41.57-.63.83a.55.55,0,0,0,.06.77.54.54,0,0,0,.77-.06h0c.24-.29.47-.6.69-.91a.55.55,0,0,0-.15-.76Z"/><path class="cls-2" d="M26.54,13.19a8.65,8.65,0,0,1,.22,1,.56.56,0,0,0,.54.46h.09a.55.55,0,0,0,.45-.63h0a10.44,10.44,0,0,0-.24-1.11.55.55,0,0,0-.67-.39.54.54,0,0,0-.38.67Z"/><path class="cls-2" d="M22.94,24.42a8.53,8.53,0,0,1-.83.62.55.55,0,0,0-.14.76.56.56,0,0,0,.76.15c.31-.22.62-.45.91-.69a.55.55,0,1,0-.7-.84Z"/><path class="cls-2" d="M27.08,19a.55.55,0,0,0-.69.35,8.87,8.87,0,0,1-.36,1,.55.55,0,1,0,1,.44v0a9.79,9.79,0,0,0,.4-1.07.54.54,0,0,0-.35-.68Z"/><path class="cls-2" d="M20.29,26c-.31.13-.64.25-1,.36a.55.55,0,0,0,.33,1,11.27,11.27,0,0,0,1.07-.4.54.54,0,1,0-.43-1Z"/><path class="cls-3" d="M11.39,14.89a1.86,1.86,0,0,0-1.5-1.83,2.28,2.28,0,0,0-2.56,1.21.55.55,0,0,0,1,.48,1.18,1.18,0,0,1,1.33-.63.8.8,0,0,1,.66.77c0,.57-.66,1-1.36,1.47s-1.67,1.12-1.67,2.1a.55.55,0,0,0,.55.54h3a.55.55,0,1,0,0-1.09H8.68a6.33,6.33,0,0,1,.87-.64c.86-.58,1.84-1.23,1.84-2.38Z"/><path class="cls-3" d="M16.55,16.68a.55.55,0,0,0-.55-.54h-.44v-2.9a.55.55,0,0,0-.55-.55.54.54,0,0,0-.42.21l-2.76,3.44a.55.55,0,0,0,.08.77.54.54,0,0,0,.34.12h2.22v1.53a.54.54,0,0,0,.54.55.53.53,0,0,0,.55-.54h0V17.23H16A.55.55,0,0,0,16.55,16.68Zm-2.08-.54H13.39l1.08-1.35Z"/><path class="cls-3" d="M19.34,12.4a.54.54,0,0,0-.64.42h0L17.47,19a.55.55,0,0,0,.43.65H18a.55.55,0,0,0,.53-.44L19.77,13a.54.54,0,0,0-.43-.64Z"/><path class="cls-3" d="M22.14,19a.54.54,0,0,0,.5-.33l2.05-4.91a.56.56,0,0,0-.3-.72.65.65,0,0,0-.21,0H21.42a.55.55,0,0,0,0,1.09h1.95l-1.73,4.16a.53.53,0,0,0,.29.71.52.52,0,0,0,.21,0Z"/></svg>