<svg id="Layer_1" data-name="Layer 1" xmlns="http://www.w3.org/2000/svg" viewBox="0 0 60 60"><defs><style>.cls-1,.cls-5{fill:none;}.cls-1,.cls-4{stroke:#28387d;}.cls-1,.cls-3,.cls-4,.cls-5{stroke-linecap:round;stroke-linejoin:round;}.cls-2{fill:#28387d;}.cls-3{fill:#fbd2c0;}.cls-3,.cls-5{stroke:#e9292c;}.cls-4{fill:#010101;}</style></defs><title>Mobile Icons</title><path class="cls-1" d="M38.75,31.47a15.21,15.21,0,1,1,11.52-5.28"/><polygon class="cls-2" points="49.66 22.77 50.32 22.75 50.44 26 53.67 25.64 53.74 26.3 49.8 26.73 49.66 22.77"/><circle class="cls-3" cx="38.75" cy="16.26" r="11.2"/><path class="cls-1" d="M38.47,36.45,56.2,31.21c1.89-.41,2.41.45,2.69,1.17s.06,1.81-1.27,2.76L39.11,46a5.16,5.16,0,0,1-3.18,1.1H20.66L14.31,41"/><path class="cls-1" d="M12.73,38.86c.69-1.27,4.17-7.14,10.17-7.14a17.55,17.55,0,0,1,6.69,1.84.92.92,0,0,0,.33.06h5.77c3.57,0,3.72,4.52-.1,4.52H24.51"/><path class="cls-1" d="M7.92,51,16,59a.85.85,0,0,0,1.18,0l4.67-4.67a.85.85,0,0,0,0-1.18l-.6-.6L23,50.85a.83.83,0,0,0,0-1.18L21.27,48,12.8,39.49l-2.19-2.2a.85.85,0,0,0-1.18,0L7.69,39l-.6-.6a.83.83,0,0,0-1.18,0L1.24,43.1a.85.85,0,0,0,0,1.18h0l4.1,4.1"/><line class="cls-4" x1="7.69" y1="39.04" x2="21.25" y2="52.59"/><path class="cls-5" d="M35.45,13.7h7.42"/><path class="cls-5" d="M35.61,10.76h2.08a2.76,2.76,0,0,1,2.74,2.4v.69a2.63,2.63,0,0,1-2.74,2.43H35.61a.35.35,0,0,0-.34.35.34.34,0,0,0,.11.25l5.19,4.91"/><path class="cls-5" d="M42.87,10.74H34.64"/></svg>