<svg width="70" height="70" viewBox="0 0 70 70" fill="none" xmlns="http://www.w3.org/2000/svg">
<g clip-path="url(#clip0_3854_8635)">
<path opacity="0.08" d="M35 70C54.33 70 70 54.33 70 35C70 15.67 54.33 0 35 0C15.67 0 0 15.67 0 35C0 54.33 15.67 70 35 70Z" fill="black"/>
<path d="M52.712 35.488C52.712 36.3758 52.4485 37.2437 51.955 37.9817C51.4614 38.7197 50.76 39.2947 49.9395 39.6338C49.1189 39.9729 48.2162 40.0609 47.3457 39.8866C46.4751 39.7124 45.6758 39.2837 45.049 38.6549C44.4223 38.0261 43.9962 37.2255 43.8247 36.3543C43.6532 35.4832 43.7441 34.5808 44.0858 33.7614C44.4276 32.9419 45.0048 32.2423 45.7443 31.7512C46.4839 31.26 47.3526 30.9993 48.2405 31.0021C48.8289 31.0021 49.4115 31.1183 49.955 31.3439C50.4984 31.5695 50.992 31.9001 51.4074 32.3169C51.8228 32.7336 52.1519 33.2283 52.3757 33.7724C52.5996 34.3166 52.7139 34.8996 52.712 35.488Z" stroke="#2F2E3D" stroke-width="1.7" stroke-linecap="round" stroke-linejoin="round"/>
<path d="M25.6676 35.488C25.6676 36.3753 25.4045 37.2426 24.9116 37.9803C24.4186 38.718 23.718 39.2929 22.8984 39.6324C22.0787 39.972 21.1767 40.0608 20.3065 39.8877C19.4364 39.7146 18.637 39.2874 18.0097 38.66C17.3823 38.0327 16.9551 37.2334 16.782 36.3632C16.6089 35.493 16.6977 34.591 17.0373 33.7714C17.3768 32.9517 17.9518 32.2511 18.6895 31.7582C19.4272 31.2652 20.2945 31.0022 21.1817 31.0022C22.3714 31.0022 23.5124 31.4748 24.3537 32.316C25.1949 33.1573 25.6676 34.2983 25.6676 35.488Z" stroke="#2F2E3D" stroke-width="1.7" stroke-linecap="round" stroke-linejoin="round"/>
<path d="M38.2939 40.8625C38.2939 41.5711 38.0837 42.2639 37.69 42.8531C37.2963 43.4423 36.7368 43.9015 36.082 44.1727C35.4273 44.4439 34.7069 44.5149 34.0119 44.3766C33.3169 44.2384 32.6784 43.8971 32.1774 43.396C31.6763 42.895 31.335 42.2565 31.1968 41.5615C31.0585 40.8665 31.1295 40.1461 31.4007 39.4914C31.6719 38.8367 32.1311 38.2771 32.7203 37.8834C33.3095 37.4897 34.0023 37.2795 34.7109 37.2795C35.6612 37.2795 36.5725 37.657 37.2444 38.329C37.9164 39.0009 38.2939 39.9122 38.2939 40.8625Z" stroke="#2F2E3D" stroke-width="1.7" stroke-linecap="round" stroke-linejoin="round"/>
<path d="M40.1858 47.6558C40.2352 45.5196 41.1312 43.4906 42.6766 42.015C44.2221 40.5394 46.2904 39.7382 48.4266 39.7876C50.5628 39.837 52.5919 40.733 54.0675 42.2785C55.543 43.8239 56.3442 45.8923 56.2948 48.0285V52.5H40.9884" stroke="#2F2E3D" stroke-width="1.7" stroke-linecap="round" stroke-linejoin="round"/>
<path d="M29.2362 47.6558C29.1868 45.5196 28.2908 43.4905 26.7453 42.0149C25.1999 40.5394 23.1316 39.7382 20.9954 39.7876C18.8592 39.837 16.8301 40.733 15.3545 42.2784C13.879 43.8239 13.0777 45.8922 13.1272 48.0284V52.5H28.4336" stroke="#2F2E3D" stroke-width="1.7" stroke-linecap="round" stroke-linejoin="round"/>
<path d="M34.7112 44.4454C33.8875 44.4436 33.0716 44.6042 32.31 44.9181C31.5485 45.232 30.8564 45.693 30.2733 46.2748C29.6902 46.8565 29.2276 47.5476 28.912 48.3084C28.5963 49.0692 28.4338 49.8848 28.4338 50.7085V52.5H40.9742V50.7085C40.9761 49.8855 40.8154 49.0702 40.5013 48.3095C40.1873 47.5488 39.726 46.8576 39.1441 46.2756C38.5621 45.6937 37.8709 45.2324 37.1102 44.9183C36.3495 44.6043 35.5342 44.4435 34.7112 44.4454Z" stroke="#2F2E3D" stroke-width="1.7" stroke-linecap="round" stroke-linejoin="round"/>
<path d="M17.5127 28.7377C19.0348 25.4589 21.4624 22.6836 24.5095 20.7387C27.5566 18.7938 31.0961 17.7605 34.711 17.7605C38.3258 17.7605 41.8653 18.7938 44.9124 20.7387C47.9595 22.6836 50.3871 25.4589 51.9092 28.7377" stroke="#2F2E3D" stroke-width="1.7" stroke-linecap="round" stroke-linejoin="round"/>
<path d="M37.9646 11.2671L37.7927 10.9375H31.6299L31.458 11.2671C31.0446 12.0951 30.4084 12.7913 29.621 13.2774C28.8336 13.7635 27.9261 14.0203 27.0007 14.0189V20.6259C26.9981 22.9549 27.747 25.2226 29.1361 27.092C30.5253 28.9614 32.4805 30.3327 34.7113 31.0021C36.9421 30.3327 38.8973 28.9614 40.2865 27.092C41.6756 25.2226 42.4245 22.9549 42.4219 20.6259V14.0189C41.4965 14.0203 40.589 13.7635 39.8016 13.2774C39.0142 12.7913 38.378 12.0951 37.9646 11.2671Z" fill="#E9292C" stroke="#E9262A" stroke-width="1.7" stroke-linecap="round" stroke-linejoin="round"/>
<path d="M37.9787 18.82L33.6791 23.1196L31.4434 20.9698" fill="#E9292C"/>
<path d="M37.9787 18.82L33.6791 23.1196L31.4434 20.9698" stroke="#E9262A" stroke-width="1.7" stroke-linecap="round" stroke-linejoin="round"/>
</g>
<defs>
<clipPath id="clip0_3854_8635">
<rect width="70" height="70" fill="white"/>
</clipPath>
</defs>
</svg>
