<svg id="Layer_1" data-name="Layer 1" xmlns="http://www.w3.org/2000/svg" viewBox="0 0 60 60"><defs><style>.cls-1,.cls-3{fill:#fff;}.cls-2{fill:#28387d;}.cls-3,.cls-4,.cls-5{stroke:#28387d;}.cls-3,.cls-4,.cls-5,.cls-6{stroke-linecap:round;stroke-linejoin:round;}.cls-4,.cls-6{fill:#fbd2c0;}.cls-5{fill:none;}.cls-6{stroke:#e9292c;}</style></defs><title>Mobile Icons</title><rect class="cls-1" x="7.86" y="26.65" width="6.88" height="15.04" rx="0.22"/><path class="cls-2" d="M14.24,27.15v14H8.36v-14h5.88m.28-1H8.08a.72.72,0,0,0-.72.72v14.6a.72.72,0,0,0,.72.72h6.44a.72.72,0,0,0,.72-.72V26.87a.72.72,0,0,0-.72-.72Z"/><path class="cls-3" d="M39.41,35V26.87a.72.72,0,0,1,.72-.72h6.38a.72.72,0,0,1,.72.72V31"/><path class="cls-1" d="M39.47,27.1A1.07,1.07,0,0,1,38.41,26V22.31a.22.22,0,0,1,.22-.22H48a.22.22,0,0,1,.22.22V26a1.06,1.06,0,0,1-1.06,1.06Z"/><path class="cls-2" d="M47.72,22.59V26a.57.57,0,0,1-.56.57H39.47a.57.57,0,0,1-.56-.57V22.59h8.81m.28-1H38.63a.72.72,0,0,0-.72.72V26a1.57,1.57,0,0,0,1.56,1.57h7.69A1.57,1.57,0,0,0,48.72,26V22.31a.72.72,0,0,0-.72-.72Z"/><path class="cls-1" d="M7.45,27.1A1.07,1.07,0,0,1,6.39,26V22.31a.22.22,0,0,1,.23-.22H16a.22.22,0,0,1,.23.22V26a1.08,1.08,0,0,1-1.07,1.06Z"/><path class="cls-2" d="M15.71,22.59V26a.58.58,0,0,1-.57.57H7.46A.58.58,0,0,1,6.89,26V22.59h8.82m.27-1H6.62a.73.73,0,0,0-.73.72V26A1.57,1.57,0,0,0,7.45,27.6h7.69A1.58,1.58,0,0,0,16.71,26V22.31a.73.73,0,0,0-.73-.72Z"/><path class="cls-1" d="M6.62,46.26A.22.22,0,0,1,6.39,46V42.31a1.07,1.07,0,0,1,1.06-1.06h7.7a1.07,1.07,0,0,1,1.06,1.06V46a.22.22,0,0,1-.23.22Z"/><path class="cls-2" d="M15.14,41.75a.57.57,0,0,1,.57.56v3.45H6.89V42.31a.57.57,0,0,1,.56-.56h7.69m0-1H7.45a1.56,1.56,0,0,0-1.56,1.56V46a.73.73,0,0,0,.73.72H16a.73.73,0,0,0,.73-.72V42.31a1.57,1.57,0,0,0-1.57-1.56Z"/><path class="cls-1" d="M2.51,22.53a.22.22,0,0,1-.22-.22V17a.21.21,0,0,1,.11-.19L26.83,2.1a.2.2,0,0,1,.11,0,.27.27,0,0,1,.12,0L51.49,16.85a.21.21,0,0,1,.11.19v5.27a.22.22,0,0,1-.22.22H2.51Z"/><path class="cls-2" d="M27.09,2.53h0m-.15.08L51.1,17.19V22H2.79V17.19L26.94,2.61m0-1a.69.69,0,0,0-.37.1L2.14,16.42a.71.71,0,0,0-.35.62v5.27a.72.72,0,0,0,.72.72H51.38a.72.72,0,0,0,.72-.72V17a.71.71,0,0,0-.35-.62L27.32,1.67a.75.75,0,0,0-.38-.1Z"/><path class="cls-2" d="M26.94,8.73,40.32,16.8H13.57L26.94,8.73m0-1.17L10,17.8H43.91l-17-10.24Z"/><path class="cls-3" d="M32.21,52.16H2.43a.76.76,0,0,1-.78-.73V46a.75.75,0,0,1,.78-.72h34"/><path class="cls-4" d="M24.22,31.62h9.11"/><path class="cls-5" d="M24.41,28H27A3.4,3.4,0,0,1,30.34,31v.85a3.24,3.24,0,0,1-3.37,3H24.42a.43.43,0,0,0-.43.43.45.45,0,0,0,.14.31l6.37,6"/><path class="cls-4" d="M33.33,28H23.22"/><path class="cls-6" d="M49.49,48.27a12.33,12.33,0,0,1,4.31,1.3A7.73,7.73,0,0,1,57,52.41a8.68,8.68,0,0,1,1.33,4.39A31.66,31.66,0,0,1,49,58.43H46.58a31.65,31.65,0,0,1-9.3-1.63,8.58,8.58,0,0,1,1.32-4.39,7.73,7.73,0,0,1,3.22-2.84,12.39,12.39,0,0,1,4.32-1.3"/><path class="cls-6" d="M55.16,57.67V55.09"/><path class="cls-6" d="M40.47,57.67V55.09"/><path class="cls-6" d="M53.64,43.67A1.81,1.81,0,0,0,55.05,41H53.66"/><path class="cls-6" d="M41.94,43.68A1.79,1.79,0,0,1,40.58,41h1.33"/><path class="cls-6" d="M50.63,37.67,46.78,37l-2.29.57-2.12,1L41.92,41h0v.06l0,0,0,.61v1.57c0,2.92,2.93,5.31,5.88,5.33a6.12,6.12,0,0,0,3.37-1.05,5.26,5.26,0,0,0,2.5-4.28V41Z"/><path class="cls-6" d="M53.66,41c.79-9-11.75-8.17-11.75-1.34V41a1.83,1.83,0,0,0,2.15-1.9A6.53,6.53,0,0,0,49,41Z"/></svg>