<svg width="60" height="60" viewBox="0 0 60 60" fill="none" xmlns="http://www.w3.org/2000/svg">
<path d="M17.1403 44.7878L11.7957 40.5745M35.3591 27.5444L31.809 29.3975M25.5865 30.9775C25.0793 30.0021 24.4356 29.417 22.8361 28.9488L18.8569 27.7784M28.1808 50.5616C29.0976 50.9713 30.1705 50.5616 30.5606 49.6449L31.4579 47.7332C31.8675 46.8165 31.4579 45.7436 30.5411 45.3535C29.6243 44.9439 28.5514 45.3535 28.1613 46.2703L27.264 48.1819C26.8544 49.0987 27.264 50.1715 28.1808 50.5616Z" stroke="#143268" stroke-linecap="round" stroke-linejoin="round"/>
<path d="M24.221 50.5812C25.1378 50.9908 26.2107 50.5812 26.6008 49.6644L28.1613 46.2703C28.5709 45.3535 28.1613 44.2807 27.2445 43.8906C26.3277 43.4809 25.2549 43.8906 24.8648 44.8074L23.3043 48.2014C22.8946 49.1182 23.3043 50.1911 24.221 50.5812Z" stroke="#143268" stroke-linecap="round" stroke-linejoin="round"/>
<path d="M20.905 49.0986C21.8218 49.5083 22.8946 49.0986 23.2848 48.1818L24.8453 44.7878C25.2549 43.871 24.8453 42.7981 23.9285 42.408C23.0117 41.9984 21.9388 42.408 21.5487 43.3248L19.9882 46.7189C19.5786 47.6357 19.9882 48.7085 20.905 49.0986Z" stroke="#143268" stroke-linecap="round" stroke-linejoin="round"/>
<path d="M38.3434 43.1298L42.7323 40.9256M31.8089 29.3975H28.7464C26.9714 29.3975 25.4109 30.5873 24.9427 32.3039L23.9479 36.0296C23.6553 37.1219 24.299 38.2338 25.3914 38.5263C26.3862 38.7799 27.42 38.2533 27.7906 37.278L29.0585 33.9424L30.9701 34.6836C32.2965 35.1908 33.7205 34.8592 34.6958 33.9424M31.5358 46.5044L33.1353 47.1286C34.0716 47.4797 34.5397 48.533 34.1886 49.4693C33.8375 50.4056 32.7842 50.8737 31.8479 50.5226L30.3849 49.957M18.1936 46.3093C19.1104 46.7189 20.1832 46.3093 20.5733 45.3925L21.5486 43.3249C21.9583 42.4081 21.5486 41.3352 20.6319 40.9451C19.7151 40.5355 18.6422 40.9451 18.2521 41.8619L17.2768 43.9295C16.8672 44.8463 17.2768 45.9192 18.1936 46.3093Z" stroke="#143268" stroke-linecap="round" stroke-linejoin="round"/>
<path d="M26.4838 40.711L35.9638 44.3391C36.9001 44.6903 37.3682 45.7436 37.0171 46.6799C36.744 47.4016 36.0613 47.8503 35.3201 47.8503C35.1055 47.8503 34.8909 47.8112 34.6764 47.7332L33.1549 47.148" stroke="#143268" stroke-linecap="round" stroke-linejoin="round"/>
<path d="M27.7712 37.3364L37.2512 40.9646C38.1875 41.3157 38.6556 42.369 38.3045 43.3053C37.9534 44.2416 36.9001 44.7098 35.9638 44.3586L26.4838 40.7305" stroke="#143268" stroke-linecap="round" stroke-linejoin="round"/>
<path d="M29.0781 33.9424L37.2121 37.0634C38.1484 37.4145 38.6166 38.4678 38.2655 39.4041C37.9143 40.3404 36.861 40.8086 35.9247 40.4574L27.7906 37.3365" stroke="#143268" stroke-linecap="round" stroke-linejoin="round"/>
<path d="M42.3339 21.7725L36.0326 25.2511C35.2026 25.7092 34.9012 26.7534 35.3594 27.5834L42.7972 41.0571C43.2554 41.8871 44.2996 42.1885 45.1296 41.7303L51.431 38.2518C52.2609 37.7936 52.5623 36.7494 52.1042 35.9194L44.6663 22.4457C44.2081 21.6157 43.1639 21.3143 42.3339 21.7725Z" stroke="#143268" stroke-linecap="round" stroke-linejoin="round"/>
<path d="M7.32868 26.6471L2.21807 35.9125C1.74992 36.7513 2.06202 37.8046 2.90078 38.2533L9.18177 41.7254C10.0205 42.1935 11.0739 41.8814 11.5225 41.0426L18.9544 27.5834C19.4225 26.7446 19.1104 25.6913 18.2716 25.2427L11.9907 21.7706C11.1519 21.3024 10.0986 21.6145 9.64991 22.4533L9.06473 23.5066" stroke="#143268" stroke-linecap="round" stroke-linejoin="round"/>
<path d="M35.437 9.77423H37.134" stroke="#D2AB67" stroke-width="0.5" stroke-linecap="round" stroke-linejoin="round"/>
<path d="M34.5398 5.89249L36.0223 5.11224" stroke="#D2AB67" stroke-width="0.5" stroke-linecap="round" stroke-linejoin="round"/>
<path d="M34.5398 13.6755L36.0223 14.4557" stroke="#D2AB67" stroke-width="0.5" stroke-linecap="round" stroke-linejoin="round"/>
<path d="M18.8959 9.77423H17.1989" stroke="#D2AB67" stroke-width="0.5" stroke-linecap="round" stroke-linejoin="round"/>
<path d="M19.7933 5.89249L18.3108 5.11224" stroke="#D2AB67" stroke-width="0.5" stroke-linecap="round" stroke-linejoin="round"/>
<path d="M19.7933 13.6755L18.3108 14.4557" stroke="#D2AB67" stroke-width="0.5" stroke-linecap="round" stroke-linejoin="round"/>
<path d="M27.0885 4.00043C23.9285 4.03944 21.3732 6.61425 21.3732 9.79376C21.3732 11.1202 21.8218 12.3491 22.563 13.3244C23.5188 14.5728 24.1626 16.0162 24.4356 17.5572H29.8583C30.1314 16.0357 30.7556 14.5923 31.7309 13.3439C32.4917 12.3686 32.9403 11.1397 32.9403 9.79376C32.9403 6.59475 30.268 3.96142 27.0885 4.00043Z" fill="url(#paint0_linear_3863_9425)"/>
<path d="M30.19 18.2009H24.0066C23.5189 18.2009 23.1288 18.591 23.1288 19.0786C23.1288 19.5663 23.5189 19.9564 24.0066 19.9564H30.19C30.6777 19.9564 31.0678 19.5663 31.0678 19.0786C31.0678 18.591 30.6777 18.2009 30.19 18.2009Z" fill="url(#paint1_linear_3863_9425)"/>
<path d="M29.1951 20.6782H25.1573C24.6697 20.6782 24.2795 21.0683 24.2795 21.556C24.2795 22.0437 24.6697 22.4338 25.1573 22.4338H29.1951C29.6827 22.4338 30.0729 22.0437 30.0729 21.556C30.0729 21.0683 29.6827 20.6782 29.1951 20.6782Z" fill="url(#paint2_linear_3863_9425)"/>
<defs>
<linearGradient id="paint0_linear_3863_9425" x1="17.2769" y1="20.8147" x2="37.2902" y2="0.781917" gradientUnits="userSpaceOnUse">
<stop stop-color="#D2AE6D"/>
<stop offset="0.21" stop-color="#D2AE6D"/>
<stop offset="0.54" stop-color="#FFF8AF"/>
<stop offset="0.9" stop-color="#D2AE6D"/>
<stop offset="1" stop-color="#D2AE6D"/>
</linearGradient>
<linearGradient id="paint1_linear_3863_9425" x1="21.6658" y1="24.5404" x2="39.787" y2="6.39964" gradientUnits="userSpaceOnUse">
<stop stop-color="#D2AE6D"/>
<stop offset="0.21" stop-color="#D2AE6D"/>
<stop offset="0.54" stop-color="#FFF8AF"/>
<stop offset="0.9" stop-color="#D2AE6D"/>
<stop offset="1" stop-color="#D2AE6D"/>
</linearGradient>
<linearGradient id="paint2_linear_3863_9425" x1="22.68" y1="26.0424" x2="40.9573" y2="7.76515" gradientUnits="userSpaceOnUse">
<stop stop-color="#D2AE6D"/>
<stop offset="0.21" stop-color="#D2AE6D"/>
<stop offset="0.54" stop-color="#FFF8AF"/>
<stop offset="0.9" stop-color="#D2AE6D"/>
<stop offset="1" stop-color="#D2AE6D"/>
</linearGradient>
</defs>
</svg>
