<svg id="Layer_1" data-name="Layer 1" xmlns="http://www.w3.org/2000/svg" viewBox="0 0 60 60"><defs><style>.cls-1{fill:#fff;stroke:#28387d;stroke-linecap:round;stroke-linejoin:round;}.cls-2{fill:#fbd2c0;}.cls-2,.cls-3{stroke:#e9292c;stroke-miterlimit:10;}.cls-3{fill:none;}</style></defs><title>Mobile Icons</title><path class="cls-1" d="M43.5,14.26l7.8-.91a3.66,3.66,0,0,1,4.06,3.22l3,25.47a3.67,3.67,0,0,1-3.21,4.07l-2.18.25"/><path class="cls-1" d="M5.24,19.74a3.62,3.62,0,0,1,2.39-1.3l5.56-.65"/><path class="cls-1" d="M42.93,23.4h6.34a3.67,3.67,0,0,1,3.67,3.67V40.81"/><path class="cls-1" d="M52.94,44.47v8.24a3.67,3.67,0,0,1-3.67,3.67h-44a3.67,3.67,0,0,1-3.67-3.67V27.07A3.67,3.67,0,0,1,5.31,23.4h7.48"/><line class="cls-1" x1="7.14" y1="45.39" x2="14.47" y2="45.39"/><line class="cls-1" x1="7.14" y1="49.97" x2="25.46" y2="49.97"/><line class="cls-1" x1="18.13" y1="45.39" x2="25.46" y2="45.39"/><line class="cls-1" x1="29.12" y1="45.39" x2="36.45" y2="45.39"/><line class="cls-1" x1="40.11" y1="45.39" x2="47.44" y2="45.39"/><rect class="cls-1" x="7.14" y="33.48" width="9.16" height="7.33" rx="1.83"/><line class="cls-1" x1="10.8" y1="37.14" x2="12.64" y2="37.14"/><path class="cls-1" d="M44.63,38.06a9.15,9.15,0,0,0,0-8.24m-3.28,6.59a5.38,5.38,0,0,0,0-4.94m-3.27,3.29a1.91,1.91,0,0,0,.2-.82,1.84,1.84,0,0,0-.2-.82"/><path class="cls-2" d="M25.45,28.62a1.84,1.84,0,0,1-.47-.06,3.35,3.35,0,0,1-1.64-1.38,3.66,3.66,0,0,0-.87-.93A3.69,3.69,0,0,0,21.2,26a3.31,3.31,0,0,1-2-.72,3.32,3.32,0,0,1-.72-2,3.69,3.69,0,0,0-.3-1.26,3.66,3.66,0,0,0-.93-.87,3.35,3.35,0,0,1-1.38-1.64,3.21,3.21,0,0,1,.37-2.06,3.78,3.78,0,0,0,.37-1.28,3.79,3.79,0,0,0-.37-1.27,3.21,3.21,0,0,1-.37-2.06,3.35,3.35,0,0,1,1.38-1.64,3.66,3.66,0,0,0,.93-.87A3.69,3.69,0,0,0,18.49,9a3.32,3.32,0,0,1,.72-2,3.33,3.33,0,0,1,2-.72A3.69,3.69,0,0,0,22.47,6a3.66,3.66,0,0,0,.87-.93A3.35,3.35,0,0,1,25,3.69,3.21,3.21,0,0,1,27,4.06a3.79,3.79,0,0,0,1.27.37,4,4,0,0,0,1.28-.37,3.28,3.28,0,0,1,2.06-.38,3.42,3.42,0,0,1,1.64,1.39,3.62,3.62,0,0,0,.87.92,3.7,3.7,0,0,0,1.26.31,3.32,3.32,0,0,1,2,.72,3.3,3.3,0,0,1,.71,2,3.64,3.64,0,0,0,.31,1.26,3.66,3.66,0,0,0,.92.88,3.32,3.32,0,0,1,1.39,1.64,3.25,3.25,0,0,1-.37,2.05A3.56,3.56,0,0,0,40,16.12a3.62,3.62,0,0,0,.37,1.28,3.25,3.25,0,0,1,.37,2.05,3.32,3.32,0,0,1-1.39,1.64,3.66,3.66,0,0,0-.92.88,3.59,3.59,0,0,0-.31,1.26,3.24,3.24,0,0,1-.71,2,3.34,3.34,0,0,1-2,.72,3.7,3.7,0,0,0-1.26.31,3.47,3.47,0,0,0-.87.92,3.42,3.42,0,0,1-1.64,1.39,3.28,3.28,0,0,1-2.06-.38,3.76,3.76,0,0,0-1.28-.36,3.57,3.57,0,0,0-1.27.37,4.43,4.43,0,0,1-1.59.43Z"/><path class="cls-3" d="M28.31,23.37a7.42,7.42,0,0,1-7.57-7.25,7.41,7.41,0,0,1,7.57-7.24,7.41,7.41,0,0,1,7.58,7.24h0A7.44,7.44,0,0,1,28.31,23.37Z"/><path class="cls-3" d="M30.21,19A.33.33,0,0,1,30,19l-1.73-.87L26.59,19a.35.35,0,0,1-.47-.14.3.3,0,0,1,0-.21l.33-1.84L25,15.49A.32.32,0,0,1,25,15a.35.35,0,0,1,.2-.1l1.93-.26L28,13a.37.37,0,0,1,.49-.12.49.49,0,0,1,.13.12l.86,1.68,1.93.26a.35.35,0,0,1,.3.38.37.37,0,0,1-.11.19l-1.39,1.3.33,1.84a.35.35,0,0,1-.29.39Z"/></svg>