<svg width="16" height="16" viewBox="0 0 16 16" fill="none" xmlns="http://www.w3.org/2000/svg">
<circle cx="8" cy="8" r="7.5" stroke="#304087"/>
<path d="M12 8.5C12.2761 8.5 12.5 8.27614 12.5 8C12.5 7.72386 12.2761 7.5 12 7.5L12 8.5ZM3.64645 7.64645C3.45118 7.84171 3.45118 8.15829 3.64645 8.35355L6.82843 11.5355C7.02369 11.7308 7.34027 11.7308 7.53553 11.5355C7.7308 11.3403 7.7308 11.0237 7.53553 10.8284L4.70711 8L7.53553 5.17157C7.7308 4.97631 7.7308 4.65973 7.53553 4.46447C7.34027 4.2692 7.02369 4.2692 6.82843 4.46447L3.64645 7.64645ZM12 7.5L4 7.5L4 8.5L12 8.5L12 7.5Z" fill="#304087"/>
</svg>
