<svg width="34" height="31" viewBox="0 0 34 31" fill="none" xmlns="http://www.w3.org/2000/svg">
<g clip-path="url(#clip0_6165_20545)">
<path d="M31.3614 22.1395H2.63528C1.69762 22.1395 0.9375 22.9194 0.9375 23.8815V28.9543C0.9375 29.9164 1.69762 30.6963 2.63528 30.6963H31.3614C32.299 30.6963 33.0591 29.9164 33.0591 28.9543V23.8815C33.0591 22.9194 32.299 22.1395 31.3614 22.1395Z" fill="white"/>
<path d="M6.86599 28.9094C6.70253 28.9467 6.53527 28.9636 6.36786 28.9597C4.90115 28.9597 5.30234 27.0381 4.27841 27.0381H3.76635V28.9237H2.81152V23.8864H4.51338C5.70335 23.8864 6.33985 24.3393 6.33985 25.4696C6.34863 25.7462 6.27255 26.0187 6.12235 26.2485C5.97214 26.4784 5.75539 26.654 5.50267 26.7507C6.0008 27.1752 6.02898 28.1541 6.66497 28.1541H6.86548L6.86599 28.9094ZM4.40302 26.2901C4.97721 26.2901 5.39928 26.0166 5.39928 25.4984C5.39928 24.9946 5.05972 24.6924 4.47908 24.6924H3.76602V26.2901H4.40302Z" fill="#304087"/>
<path d="M7.32227 28.9239V23.8862H9.15586C10.1453 23.8862 10.7195 24.2749 10.7195 25.2176C10.7195 26.1101 10.2075 26.2611 9.96537 26.2611V26.2755C10.2682 26.2936 10.5518 26.4339 10.754 26.6659C10.9563 26.8979 11.0608 27.2026 11.0446 27.5134C11.0446 28.5642 10.2489 28.9244 9.35637 28.9244L7.32227 28.9239ZM9.045 25.9878C9.56384 25.9878 9.73684 25.7214 9.73684 25.3328C9.73684 24.9297 9.48082 24.6923 8.91359 24.6923H8.2771V25.9878H9.045ZM9.14891 28.1179C9.62632 28.1179 9.98608 27.9595 9.98608 27.4054C9.98608 26.8872 9.61936 26.6858 9.12819 26.6858H8.2771V28.1179H9.14891Z" fill="#304087"/>
<path d="M11.6465 28.9239V23.8862H12.6013V28.1179H14.7392V28.9239H11.6465Z" fill="#304087"/>
<path d="M19.4571 28.0377C19.2684 28.3295 19.0109 28.5676 18.7085 28.7299C18.4061 28.8922 18.0686 28.9734 17.7274 28.966C16.4201 28.966 15.4863 28.1312 15.4863 26.4183C15.4863 24.7054 16.3303 23.6534 17.6104 23.6534C19.2848 23.6534 19.4371 25.3172 19.4371 25.5548L18.6345 25.6987C18.6345 25.6987 18.6006 24.4445 17.6175 24.4445C16.9257 24.4445 16.386 25.1655 16.386 26.4178C16.386 27.6844 17.0571 28.1737 17.7697 28.1737C18.5031 28.1737 18.9459 27.4829 18.9459 27.4829L19.4571 28.0377Z" fill="#ED3338"/>
<path d="M22.9095 28.9093C22.7898 28.9413 22.6663 28.9558 22.5427 28.9525C22.1553 28.9525 21.8993 28.7435 21.8993 28.3839V28.3695C21.8439 28.4914 21.6018 28.9668 20.8684 28.9668C20.2181 28.9668 19.54 28.4268 19.54 27.2036C19.54 25.9082 20.1905 25.4116 20.9168 25.4116C21.1017 25.4123 21.2844 25.4523 21.4535 25.5291C21.6225 25.6059 21.7743 25.7177 21.8991 25.8577V25.4546H22.6251V27.9519C22.6251 28.1609 22.6942 28.2757 22.9088 28.2757L22.9095 28.9093ZM21.8025 26.7719C21.775 26.5985 21.688 26.4409 21.5573 26.3274C21.4266 26.2139 21.2607 26.1521 21.0894 26.153C20.6674 26.153 20.356 26.4912 20.356 27.1893C20.356 27.916 20.7158 28.2256 21.0962 28.2256C21.7051 28.2256 21.795 27.5563 21.802 27.5779L21.8025 26.7719Z" fill="#ED3338"/>
<path d="M23.3042 28.9226V26.4253C23.3042 26.2238 23.2419 26.1015 23.0205 26.1015V25.4683C23.135 25.4343 23.2542 25.4197 23.3733 25.4251C23.7331 25.4251 24.0098 25.6266 24.0098 25.9999V26.0647C24.1066 25.748 24.3833 25.4099 25.013 25.4099C25.1915 25.4006 25.3689 25.4428 25.5251 25.5318L25.1855 26.2947C25.0641 26.2156 24.9215 26.1779 24.778 26.1868C24.3146 26.1868 24.1346 26.6258 24.1276 26.9425V28.9216L23.3042 28.9226Z" fill="#ED3338"/>
<path d="M26.1409 27.3387V27.3532C26.1356 27.4721 26.1541 27.5908 26.1955 27.702C26.2368 27.8133 26.3 27.9146 26.3811 27.9996C26.4622 28.0847 26.5596 28.1517 26.667 28.1965C26.7745 28.2413 26.8898 28.263 27.0058 28.2601C27.1687 28.2597 27.329 28.2181 27.4726 28.1391C27.6161 28.0602 27.7386 27.9461 27.829 27.8071L28.2581 28.2601C28.2581 28.2601 27.8983 28.9652 26.8881 28.9652C26.0095 28.9652 25.3105 28.3752 25.3105 27.1884C25.3105 26.0585 25.8503 25.4116 26.8672 25.4116C27.8842 25.4116 28.2025 26.1456 28.2025 26.5703C28.2025 27.2757 27.7183 27.4628 26.9433 27.4628C26.6711 27.4656 26.4002 27.4237 26.1409 27.3387ZM26.819 26.9206C27.1718 26.9206 27.4418 26.863 27.4418 26.604C27.4418 26.4096 27.2618 26.093 26.826 26.093C26.7371 26.0885 26.6482 26.103 26.5651 26.1357C26.482 26.1684 26.4065 26.2185 26.3433 26.2829C26.2801 26.3472 26.2308 26.4244 26.1983 26.5094C26.1659 26.5945 26.1511 26.6855 26.1549 26.7768C26.3602 26.8835 26.5891 26.9333 26.819 26.9213V26.9206Z" fill="#ED3338"/>
<path d="M30.3815 26.7285C30.4005 26.6435 30.4097 26.5566 30.4092 26.4695C30.4092 26.2463 30.2564 26.0737 29.828 26.0737C29.4475 26.0737 29.2606 26.2249 29.2606 26.4839C29.2606 27.2396 31.1979 26.6135 31.1979 27.9017C31.1979 28.5494 30.7412 28.9668 29.7866 28.9668C28.5966 28.9668 28.2715 28.2472 28.2715 28.2472L28.735 27.7577C28.8537 27.9201 29.0071 28.0526 29.1834 28.1449C29.3597 28.2372 29.5542 28.2869 29.7521 28.2902C30.1465 28.2902 30.3195 28.1606 30.3195 27.9448C30.3195 27.3258 28.4307 27.8296 28.4307 26.5054C28.4307 25.9441 28.7975 25.4116 29.8144 25.4116C30.8453 25.4116 31.1567 25.9082 31.1567 26.3975C31.1577 26.5104 31.1389 26.6225 31.1014 26.7285H30.3815Z" fill="#ED3338"/>
<path d="M23.5073 8.70399H23.4961V5.36477H23.5073C23.6104 4.12378 23.2714 2.37656 22.4461 1.6451C21.6698 0.957192 20.5576 0.784038 19.5828 0.781599C15.7186 0.771844 11.8544 0.772195 7.99015 0.782646C7.52411 0.783692 7.05841 0.856681 6.59237 0.892217C4.90478 1.02078 3.60428 2.67201 3.62126 4.52165C3.6452 7.01269 3.61786 8.74249 3.63212 11.2337C3.61976 11.809 3.74574 12.3786 3.99892 12.892C4.2521 13.4055 4.62468 13.8471 5.08373 14.1777C5.23653 14.2932 5.38287 14.4203 5.54212 14.5506C5.51038 14.6862 5.49119 14.7957 5.45911 14.9008C5.14536 15.9111 4.8187 16.9178 4.51938 17.9332C4.39702 18.3186 4.3189 18.7173 4.28662 19.1213C4.2637 19.5242 4.55826 19.702 4.88831 19.5C5.16502 19.3276 5.41759 19.1174 5.63907 18.8751C6.74025 17.6831 7.83209 16.4815 8.91459 15.2702C9.03333 15.1149 9.18802 14.9925 9.36458 14.9142C9.54115 14.8358 9.734 14.804 9.92562 14.8215C10.2862 14.8515 15.2697 14.8008 15.2697 14.8008C15.3425 14.824 15.4181 14.8363 15.4943 14.8374C17.0782 14.8548 17.9009 14.8332 19.0379 14.8175C19.5101 14.8111 20.0359 14.8053 20.6936 14.8039C20.8851 14.8178 21.0773 14.7926 21.2591 14.7297C22.4535 14.1937 23.3023 13.2999 23.4622 11.8986C23.4758 11.7791 23.4866 11.6476 23.4953 11.5091C23.5505 10.6426 23.5169 9.46315 23.5073 8.70399Z" fill="#ED3338"/>
<path d="M4.62285 19.9434C4.49987 19.9444 4.37901 19.9105 4.27361 19.8455C4.15575 19.7659 4.06189 19.6541 4.00259 19.5227C3.94329 19.3913 3.92091 19.2455 3.93796 19.1018C3.9719 18.6695 4.05486 18.2428 4.18516 17.8302C4.38889 17.1374 4.60961 16.439 4.822 15.7636C4.92386 15.4401 5.02534 15.1164 5.12641 14.7927C5.13609 14.7615 5.14474 14.7275 5.15323 14.6904C5.0585 14.6115 4.96835 14.5368 4.87701 14.4681C4.37301 14.1053 3.96389 13.6206 3.68582 13.057C3.40774 12.4934 3.26926 11.8681 3.28262 11.2366C3.27617 10.1158 3.27821 9.14113 3.28025 8.19854C3.28262 7.01399 3.285 5.89546 3.27175 4.52591C3.26071 3.54413 3.58894 2.59007 4.19823 1.83297C4.48667 1.46327 4.84533 1.15757 5.25244 0.934449C5.65954 0.711326 6.1066 0.575429 6.56646 0.535011C6.72147 0.523166 6.88157 0.506618 7.03624 0.490417C7.34575 0.458364 7.66578 0.425093 7.98938 0.424396C12.1999 0.414641 15.9929 0.414293 19.5837 0.423351C20.9268 0.426835 21.9667 0.746664 22.6748 1.3743C23.5916 2.18677 23.9675 4.05278 23.856 5.39603L23.8459 5.51571V8.34574H23.8527L23.8571 8.70006C23.8587 8.83054 23.8611 8.97338 23.8636 9.12511C23.8758 9.8719 23.8911 10.8014 23.8453 11.5332C23.8356 11.689 23.8242 11.8226 23.8113 11.9417C23.6487 13.366 22.8378 14.4153 21.4005 15.0599C21.1804 15.1429 20.946 15.1785 20.7118 15.1644H20.6949C19.9838 15.1661 19.4385 15.1726 19.0429 15.178C18.8489 15.1806 18.664 15.1834 18.4827 15.1862C17.5842 15.1999 16.8083 15.2118 15.4907 15.1977C15.4006 15.1966 15.3109 15.1845 15.2236 15.1616C14.5238 15.1686 10.2534 15.2104 9.89733 15.1808C9.75889 15.1676 9.61946 15.1913 9.49257 15.2496C9.36567 15.3079 9.25562 15.3989 9.17306 15.5137C8.20431 16.6028 7.16204 17.7499 5.89295 19.1234C5.64925 19.3895 5.37152 19.6203 5.06733 19.8098C4.93356 19.8945 4.78002 19.9406 4.62285 19.9434ZM14.2374 1.13495C12.2476 1.13495 10.1756 1.13757 7.99073 1.14262C7.70211 1.14262 7.41264 1.17328 7.10653 1.20498C6.94728 1.2224 6.78259 1.2386 6.61808 1.25114C5.14237 1.3635 3.95511 2.82956 3.97141 4.51894C3.98465 5.89302 3.98228 7.01364 3.9799 8.20028C3.97786 9.14096 3.97599 10.1146 3.98227 11.2326C3.97095 11.7516 4.08443 12.2656 4.31267 12.729C4.54092 13.1924 4.8769 13.5909 5.29092 13.8894C5.40213 13.9731 5.50943 14.0626 5.6135 14.1492C5.66155 14.1892 5.71044 14.2298 5.76053 14.2711L5.93506 14.4136L5.88294 14.6361C5.87292 14.6789 5.86426 14.719 5.85594 14.758C5.83727 14.8451 5.81961 14.9264 5.79313 15.0118C5.69217 15.337 5.5903 15.6616 5.48752 15.9858C5.27581 16.658 5.0568 17.353 4.85459 18.0392C4.73941 18.3973 4.66612 18.7683 4.63626 19.1442C4.63406 19.1709 4.63583 19.1979 4.64152 19.2241C4.66553 19.2175 4.68843 19.2072 4.70944 19.1936C4.95849 19.038 5.18586 18.8485 5.38532 18.6303C6.65135 17.26 7.69073 16.1161 8.65643 15.0304C8.81087 14.8342 9.01007 14.68 9.23639 14.5816C9.46271 14.4831 9.70919 14.4434 9.95404 14.4659C10.207 14.4868 13.2695 14.4643 15.2664 14.4439H15.3206L15.3723 14.4603C15.4131 14.4735 15.4554 14.4805 15.4981 14.4812C16.8071 14.4953 17.5788 14.4833 18.4723 14.4697C18.6538 14.4669 18.839 14.4641 19.0326 14.4613C19.43 14.4558 19.9777 14.4493 20.6922 14.4476H20.7091C20.8471 14.4576 20.9857 14.4427 21.1186 14.4035C22.3112 13.8682 22.9826 13.0124 23.1144 11.8602C23.1266 11.7538 23.1368 11.6324 23.1458 11.4893C23.1898 10.7866 23.1748 9.87329 23.1628 9.13939C23.1628 9.11465 23.1624 9.09021 23.1616 9.06605H23.1446V5.0067H23.1733C23.1935 3.87214 22.8656 2.49388 22.2157 1.9178C21.6385 1.40566 20.7512 1.14453 19.5803 1.14157C17.8552 1.13722 16.0817 1.13495 14.2374 1.13495Z" fill="white"/>
<path d="M10.5518 8.92199C11.1542 8.92199 11.6426 8.42089 11.6426 7.80276C11.6426 7.18463 11.1542 6.68353 10.5518 6.68353C9.94932 6.68353 9.46094 7.18463 9.46094 7.80276C9.46094 8.42089 9.94932 8.92199 10.5518 8.92199Z" fill="white"/>
<path d="M6.68067 8.92199C7.28311 8.92199 7.77149 8.42089 7.77149 7.80276C7.77149 7.18463 7.28311 6.68353 6.68067 6.68353C6.07822 6.68353 5.58984 7.18463 5.58984 7.80276C5.58984 8.42089 6.07822 8.92199 6.68067 8.92199Z" fill="white"/>
<path d="M14.4199 8.92199C15.0224 8.92199 15.5108 8.42089 15.5108 7.80276C15.5108 7.18463 15.0224 6.68353 14.4199 6.68353C13.8175 6.68353 13.3291 7.18463 13.3291 7.80276C13.3291 8.42089 13.8175 8.92199 14.4199 8.92199Z" fill="white"/>
<path d="M30.3753 8.34819C30.3895 6.8729 29.3518 5.55613 28.0058 5.45352C27.634 5.42513 27.2627 5.36642 26.8911 5.36642C23.809 5.35922 20.727 5.35922 17.6451 5.36642C16.8677 5.36834 15.9813 5.50578 15.3614 6.05521C14.7032 6.6386 14.474 8.04891 14.5149 9.02181C14.518 9.02181 14.518 11.685 14.5149 11.685C14.5075 12.2905 14.481 13.2312 14.5239 13.9224C14.5309 14.0328 14.5394 14.1377 14.5502 14.233C14.6779 15.3506 15.3546 16.0635 16.3073 16.4911C16.4523 16.5412 16.6057 16.5614 16.7584 16.5503C17.283 16.5516 17.7025 16.5559 18.0789 16.5611C18.9859 16.5737 25.0592 16.5881 25.3466 16.5643C25.4994 16.5503 25.6532 16.5756 25.794 16.6381C25.9348 16.7006 26.0582 16.7982 26.1529 16.9221C27.014 17.8903 27.8848 18.8487 28.7654 19.7972C28.9421 19.9905 29.1435 20.1581 29.3642 20.2956C29.6279 20.4567 29.8623 20.3148 29.844 19.9935C29.8183 19.6714 29.756 19.3534 29.6584 19.0461C29.4197 18.2362 29.1591 17.4335 28.9089 16.6275C28.8829 16.5439 28.868 16.4564 28.8427 16.3488C28.97 16.2443 29.0861 16.1434 29.2087 16.0513C29.5748 15.7876 29.872 15.4354 30.0739 15.0258C30.2759 14.6162 30.3763 14.1619 30.3664 13.7031C30.378 11.7146 30.3561 10.3351 30.3753 8.34819Z" fill="#304087"/>
<path d="M29.5748 20.7198C29.4367 20.7176 29.3018 20.6772 29.1843 20.6029C28.9361 20.4484 28.7095 20.2601 28.5106 20.043C27.4987 18.9478 26.6672 18.0326 25.8935 17.163C25.8349 17.0797 25.7561 17.0136 25.665 16.9711C25.5738 16.9287 25.4735 16.9114 25.3738 16.921C25.0461 16.9482 18.866 16.9299 18.0734 16.919C17.7589 16.9146 17.3253 16.9094 16.7567 16.9081H16.742C16.5456 16.9198 16.349 16.8893 16.1647 16.8188C14.9941 16.2934 14.3333 15.437 14.2004 14.2736C14.1893 14.1772 14.1802 14.0694 14.1724 13.944C14.1355 13.3575 14.1478 12.6145 14.1576 12.0175C14.1595 11.8968 14.1613 11.7829 14.1627 11.6789V11.6169C14.1647 11.2441 14.1646 9.17982 14.1627 9.03698V9.03576C14.1265 8.17766 14.2897 6.5273 15.1304 5.7819C15.7077 5.26975 16.5533 5.00863 17.6419 5.00585C20.5049 4.99853 23.5298 4.99888 26.8896 5.00585C27.151 5.00585 27.4081 5.03302 27.6566 5.0581C27.7795 5.07082 27.9067 5.08406 28.0301 5.09295C29.5313 5.20739 30.7396 6.66805 30.7235 8.34924C30.713 9.44147 30.7148 10.3337 30.7169 11.2784C30.7184 12.0301 30.7201 12.8072 30.715 13.7011C30.7259 14.2162 30.6129 14.7261 30.3861 15.1858C30.1592 15.6454 29.8256 16.0407 29.4145 16.3366C29.3542 16.3819 29.2941 16.431 29.232 16.4826C29.2351 16.4939 29.2381 16.5047 29.2413 16.5148C29.3215 16.773 29.4023 17.031 29.4839 17.2888C29.6537 17.8279 29.8293 18.3854 29.9924 18.9384C30.098 19.2728 30.1651 19.6187 30.1924 19.969C30.2061 20.0967 30.1851 20.2258 30.1319 20.3421C30.0788 20.4584 29.9954 20.5575 29.8909 20.6283C29.7958 20.6882 29.6864 20.7199 29.5748 20.7198ZM25.4361 16.2002C25.6227 16.2015 25.8068 16.245 25.9751 16.3278C26.1434 16.4105 26.2918 16.5304 26.4096 16.6789C27.1802 17.5452 28.0089 18.4573 29.0176 19.549C29.1582 19.7025 29.3164 19.838 29.4887 19.9526C29.4607 19.6794 29.4047 19.4099 29.3216 19.1487C29.1605 18.6021 28.986 18.0478 28.8172 17.5112C28.7357 17.2524 28.6546 16.9934 28.5738 16.7345C28.5517 16.663 28.5371 16.5962 28.5218 16.5254C28.5154 16.4955 28.5086 16.4639 28.5006 16.4303L28.4485 16.2079L28.623 16.0655C28.6629 16.033 28.7018 16.0006 28.74 15.9687C28.8233 15.899 28.9098 15.8272 28.9997 15.7597C29.3228 15.53 29.5848 15.2212 29.7621 14.8613C29.9393 14.5014 30.0261 14.1018 30.0147 13.6987C30.0198 12.8077 30.0182 12.032 30.0165 11.2817C30.0147 10.3348 30.0126 9.44042 30.0233 8.34384C30.0359 7.03404 29.1184 5.89757 27.978 5.81064C27.8459 5.80054 27.714 5.78695 27.5867 5.77371C27.3444 5.74863 27.1154 5.72476 26.8884 5.72424C23.5298 5.7164 20.5061 5.71623 17.6441 5.72424C16.7273 5.7265 16.036 5.92892 15.5883 6.32557C15.0634 6.79086 14.8228 8.05328 14.8629 9.0051H14.8618C14.863 9.01886 14.8635 9.03297 14.8637 9.04778V9.13488C14.8637 9.20874 14.8637 9.31413 14.8637 9.44042C14.8637 9.69266 14.8637 10.0285 14.8637 10.3637C14.8637 10.6947 14.8637 11.0256 14.8637 11.2726C14.8637 11.3967 14.8637 11.4991 14.8637 11.5723V11.6576C14.8637 11.6683 14.8633 11.6786 14.8625 11.6886C14.8612 11.7932 14.8593 11.9083 14.8572 12.0301C14.8476 12.6142 14.8357 13.3409 14.8707 13.8985C14.8776 14.0112 14.8858 14.1076 14.8953 14.1905C14.9985 15.0951 15.5055 15.7398 16.445 16.1614C16.5423 16.1875 16.6431 16.1974 16.7435 16.1905H16.7567C17.3289 16.1918 17.7652 16.1969 18.081 16.2014C19.0728 16.2152 25.0285 16.2269 25.3164 16.2056C25.3573 16.2015 25.3972 16.1995 25.4361 16.1995V16.2002Z" fill="white"/>
<path d="M17.6631 10.2004V7.57086H18.0806V9.85095H19.2668V10.2004H17.6631Z" fill="white"/>
<path d="M19.8481 9.36592V9.37341C19.8433 9.43978 19.8522 9.50644 19.8741 9.56908C19.896 9.63173 19.9305 9.68896 19.9753 9.7371C20.02 9.78524 20.0742 9.82322 20.1341 9.84858C20.1941 9.87394 20.2586 9.88611 20.3235 9.88433C20.4109 9.88482 20.4971 9.86313 20.5743 9.82119C20.6516 9.77925 20.7176 9.71836 20.7664 9.64393L20.9788 9.86186C20.902 9.98104 20.7959 10.0772 20.6711 10.1406C20.5463 10.2039 20.4073 10.2322 20.2684 10.2225C19.8182 10.2225 19.4482 9.92945 19.4482 9.29466C19.4482 8.68985 19.7369 8.36688 20.2538 8.36688C20.7883 8.36688 20.9532 8.74629 20.9532 8.96804C20.9532 9.33612 20.697 9.43385 20.291 9.43385C20.1407 9.43614 19.9911 9.4132 19.8481 9.36592ZM20.2325 9.16315C20.4301 9.16315 20.5876 9.13301 20.5876 8.98651C20.5833 8.94373 20.5708 8.90225 20.5507 8.86448C20.5307 8.82671 20.5035 8.79341 20.4708 8.76649C20.4381 8.73957 20.4006 8.71959 20.3603 8.70769C20.32 8.69579 20.2778 8.69221 20.2362 8.69716C20.1863 8.69395 20.1363 8.70148 20.0894 8.71926C20.0425 8.73704 19.9998 8.76468 19.964 8.8004C19.9281 8.83613 19.8999 8.87915 19.8812 8.92671C19.8625 8.97427 19.8537 9.02532 19.8554 9.07657C19.9712 9.13972 20.1015 9.16963 20.2325 9.16315Z" fill="white"/>
<path d="M22.6249 10.0312C22.5005 10.153 22.3355 10.2215 22.1636 10.2228C21.6882 10.2228 21.4972 9.95993 21.4972 9.47896V8.71248H21.2256V8.38952H21.4972V7.82599H21.8964V8.38952H22.5371V8.71248H21.8964V9.46381C21.8964 9.738 21.9916 9.86952 22.2076 9.86952C22.3178 9.87001 22.424 9.82697 22.5042 9.74932L22.6249 10.0312Z" fill="white"/>
<path d="M23.1092 7.50719C23.1469 7.50643 23.1843 7.51386 23.2191 7.52899C23.2538 7.54412 23.285 7.56661 23.3106 7.59499C23.3363 7.62336 23.3558 7.65698 23.3679 7.69364C23.38 7.73029 23.3844 7.76916 23.3808 7.80769C23.3808 8.34858 23.0073 8.4801 23.0073 8.4801L22.8975 8.2998C22.8975 8.2998 23.1099 8.18709 23.1099 8.01429C23.0454 8.01256 22.9842 7.98508 22.9393 7.93772C22.8943 7.89036 22.8691 7.82686 22.8691 7.76074C22.8691 7.69462 22.8943 7.63112 22.9393 7.58376C22.9842 7.5364 23.0454 7.50893 23.1099 7.50719H23.1092Z" fill="white"/>
<path d="M24.6964 9.05079C24.7066 9.00509 24.7115 8.95831 24.711 8.91142C24.711 8.78757 24.623 8.68984 24.3779 8.68984C24.1582 8.68984 24.0483 8.77694 24.0483 8.91909C24.0483 9.33595 25.0881 8.99417 25.0881 9.6779C25.0881 10.0089 24.8538 10.2224 24.3631 10.2224C23.7444 10.2224 23.5723 9.85436 23.5723 9.85436L23.7993 9.61048C23.8627 9.69793 23.9449 9.76918 24.0395 9.8187C24.1341 9.86822 24.2386 9.89467 24.3448 9.896C24.5718 9.896 24.6743 9.82092 24.6743 9.69689C24.6743 9.34762 23.6556 9.63296 23.6556 8.93041C23.6556 8.64107 23.846 8.36688 24.3696 8.36688C24.9078 8.36688 25.0724 8.62609 25.0724 8.8778C25.073 8.93674 25.0631 8.99529 25.0432 9.05061L24.6964 9.05079Z" fill="white"/>
<path d="M19.0577 13.4362C18.981 13.5554 18.8748 13.6516 18.75 13.715C18.6252 13.7783 18.4863 13.8066 18.3474 13.7968C17.8971 13.7968 17.5273 13.5038 17.5273 12.8691C17.5273 12.2756 17.8129 11.9411 18.3511 11.9411C18.8161 11.9411 19.0248 12.2153 19.0248 12.5196C19.0262 12.5897 19.0164 12.6595 18.9956 12.7262H18.6441C18.6578 12.6837 18.6653 12.6394 18.6662 12.5947C18.669 12.5523 18.6627 12.5099 18.6476 12.4703C18.6325 12.4308 18.609 12.3952 18.5789 12.3661C18.5488 12.337 18.5127 12.3151 18.4734 12.302C18.434 12.2889 18.3923 12.2849 18.3513 12.2904C18.084 12.2904 17.9156 12.4593 17.9156 12.8652C17.9156 13.3235 18.1901 13.4474 18.4025 13.4474C18.4893 13.4485 18.5749 13.4279 18.6521 13.3873C18.7293 13.3467 18.7957 13.2874 18.8455 13.2145L19.0577 13.4362Z" fill="white"/>
<path d="M21.0881 13.7706C21.0305 13.7847 20.9715 13.791 20.9124 13.7895C20.6747 13.7895 20.5426 13.6543 20.5426 13.354V12.6552C20.5467 12.6076 20.5408 12.5597 20.5253 12.5146C20.5099 12.4695 20.4852 12.4283 20.453 12.3938C20.4207 12.3593 20.3817 12.3322 20.3384 12.3145C20.2952 12.2967 20.2487 12.2887 20.2022 12.2908C20.0951 12.2988 19.9954 12.3499 19.9248 12.4329C19.8542 12.5159 19.8183 12.6242 19.8251 12.7342V13.7746H19.4297V11.0481H19.8251V12.2351C19.8689 12.1415 19.9391 12.0635 20.0266 12.0113C20.1141 11.959 20.2148 11.9349 20.3158 11.9421C20.7625 11.9421 20.9382 12.2614 20.9382 12.6563V13.2986C20.9382 13.4074 20.9711 13.4714 21.0883 13.4714L21.0881 13.7706Z" fill="white"/>
<path d="M23.1111 13.7733C23.0535 13.7869 22.9944 13.7932 22.9353 13.7921C22.7377 13.7921 22.6095 13.6832 22.6095 13.4991V13.4803C22.5593 13.5843 22.4798 13.6704 22.3811 13.7274C22.2825 13.7844 22.1695 13.8095 22.0567 13.7996C21.7089 13.7996 21.3574 13.5208 21.3574 12.8793C21.3574 12.2069 21.6943 11.9438 22.0786 11.9438C22.179 11.9428 22.2785 11.964 22.3701 12.0061C22.4617 12.0482 22.5434 12.1102 22.6095 12.1877V11.9661H22.961V13.2996C22.961 13.4085 22.9939 13.4724 23.1111 13.4724V13.7733ZM22.5656 12.6314C22.5473 12.5351 22.4966 12.4484 22.4223 12.3866C22.348 12.3248 22.2549 12.2917 22.1593 12.2933C21.925 12.2933 21.7455 12.4811 21.7455 12.8754C21.7455 13.2737 21.9469 13.4503 22.163 13.4503C22.2598 13.4451 22.3521 13.4068 22.4251 13.3414C22.4981 13.276 22.5476 13.1874 22.5657 13.0897L22.5656 12.6314Z" fill="white"/>
<path d="M24.7538 13.6055C24.6294 13.7273 24.4644 13.7958 24.2925 13.7971C23.8171 13.7971 23.6261 13.5343 23.6261 13.0533V12.2868H23.3545V11.9639H23.6261V11.4003H24.0253V11.9639H24.666V12.2868H24.0253V13.0381C24.0253 13.3123 24.1205 13.4439 24.3365 13.4439C24.4467 13.4443 24.5529 13.4013 24.6331 13.3237L24.7538 13.6055Z" fill="white"/>
<path d="M25.2606 13.2914C25.3261 13.2923 25.3886 13.3196 25.4345 13.3674C25.4804 13.4153 25.5061 13.4798 25.5059 13.547C25.5042 13.6131 25.4775 13.6759 25.4313 13.722C25.3852 13.7682 25.3233 13.794 25.2588 13.794C25.1944 13.794 25.1325 13.7682 25.0863 13.722C25.0402 13.6759 25.0134 13.6131 25.0117 13.547C25.0118 13.4793 25.038 13.4143 25.0846 13.3664C25.1313 13.3185 25.1946 13.2915 25.2606 13.2914Z" fill="white"/>
<path d="M26.1581 13.2914C26.2235 13.2923 26.286 13.3196 26.3319 13.3675C26.3779 13.4153 26.4035 13.4798 26.4034 13.547C26.4017 13.6131 26.3749 13.6759 26.3288 13.722C26.2826 13.7682 26.2207 13.794 26.1563 13.794C26.0919 13.794 26.03 13.7682 25.9838 13.722C25.9377 13.6759 25.9109 13.6131 25.9092 13.547C25.9092 13.4793 25.9355 13.4143 25.9821 13.3664C26.0288 13.3185 26.0921 13.2915 26.1581 13.2914Z" fill="white"/>
<path d="M27.0526 13.2914C27.1181 13.2923 27.1806 13.3196 27.2265 13.3674C27.2725 13.4153 27.2981 13.4798 27.2979 13.547C27.2979 13.6142 27.2719 13.6787 27.2256 13.7263C27.1792 13.7738 27.1164 13.8005 27.0508 13.8005C26.9853 13.8005 26.9224 13.7738 26.8761 13.7263C26.8298 13.6787 26.8037 13.6142 26.8037 13.547C26.8038 13.4793 26.83 13.4143 26.8767 13.3664C26.9233 13.3185 26.9866 13.2915 27.0526 13.2914Z" fill="white"/>
</g>
<defs>
<clipPath id="clip0_6165_20545">
<rect width="32.1216" height="30" fill="white" transform="translate(0.9375 0.416748)"/>
</clipPath>
</defs>
</svg>
