<svg width="13" height="11" viewBox="0 0 13 11" fill="none" xmlns="http://www.w3.org/2000/svg">
<path fill-rule="evenodd" clip-rule="evenodd" d="M12.3672 5.2586C12.4635 5.35503 12.5176 5.48575 12.5176 5.62204C12.5176 5.75834 12.4635 5.88905 12.3672 5.98549L8.25273 10.0999C8.20564 10.1505 8.14886 10.191 8.08577 10.2191C8.02269 10.2472 7.95458 10.2623 7.88553 10.2635C7.81647 10.2648 7.74788 10.2521 7.68384 10.2262C7.6198 10.2003 7.56162 10.1618 7.51279 10.113C7.46395 10.0641 7.42545 10.006 7.39958 9.94193C7.37371 9.87789 7.36101 9.8093 7.36223 9.74024C7.36345 9.67119 7.37856 9.60308 7.40667 9.53999C7.43478 9.47691 7.47531 9.42013 7.52584 9.37304L10.7625 6.13635L1.03188 6.13635C0.89548 6.13635 0.764664 6.08216 0.668214 5.98571C0.571763 5.88926 0.517578 5.75845 0.517578 5.62204C0.517578 5.48564 0.571763 5.35483 0.668214 5.25838C0.764664 5.16192 0.89548 5.10774 1.03188 5.10774L10.7625 5.10774L7.52584 1.87105C7.47531 1.82396 7.43478 1.76718 7.40667 1.70409C7.37856 1.64101 7.36345 1.5729 7.36223 1.50385C7.36101 1.43479 7.37371 1.3662 7.39958 1.30216C7.42545 1.23812 7.46395 1.17994 7.51279 1.1311C7.56162 1.08227 7.6198 1.04377 7.68384 1.0179C7.74788 0.992033 7.81647 0.97933 7.88553 0.980549C7.95458 0.981767 8.02269 0.996882 8.08578 1.02499C8.14886 1.0531 8.20564 1.09363 8.25273 1.14416L12.3672 5.2586Z" fill="#3A4286"/>
</svg>
