<svg width="23" height="40" viewBox="0 0 23 40" fill="none" xmlns="http://www.w3.org/2000/svg">
<path d="M0.790514 39.2095C0.263505 38.6825 0 38.0585 0 37.3375C0 36.618 0.263505 35.9947 0.790514 35.4677L16.2319 20.0263L0.737813 4.53228C0.245937 4.0404 0 3.42556 0 2.68775C0 1.94993 0.263505 1.31752 0.790514 0.790514C1.31752 0.263505 1.9415 0 2.66245 0C3.38199 0 4.00527 0.263505 4.53228 0.790514L22.2398 18.5507C22.4506 18.7615 22.6003 18.9899 22.6888 19.2358C22.7759 19.4818 22.8195 19.7453 22.8195 20.0263C22.8195 20.3074 22.7759 20.5709 22.6888 20.8169C22.6003 21.0628 22.4506 21.2912 22.2398 21.502L4.47958 39.2622C3.9877 39.7541 3.38199 40 2.66245 40C1.9415 40 1.31752 39.7365 0.790514 39.2095Z" fill="white"/>
</svg>
