<svg width="13" height="12" viewBox="0 0 13 12" fill="none" xmlns="http://www.w3.org/2000/svg">
<path d="M7.14289 0.237037L12.3577 5.45187C12.4367 5.53088 12.4928 5.61647 12.526 5.70866C12.5592 5.80084 12.5755 5.8996 12.575 6.00495C12.575 6.1103 12.5584 6.20907 12.5252 6.30125C12.492 6.39343 12.4362 6.47903 12.3577 6.55804L7.14289 11.7729C6.99803 11.9177 6.81683 11.9933 6.59928 11.9996C6.38173 12.006 6.19421 11.9304 6.03671 11.7729C5.87869 11.628 5.79625 11.4468 5.7894 11.2293C5.78256 11.0117 5.85841 10.8242 6.01696 10.6667L9.88857 6.79508L1.05892 6.79508C0.835054 6.79508 0.647268 6.71923 0.495564 6.56752C0.34386 6.41582 0.268271 6.22829 0.268797 6.00495C0.268797 5.78108 0.344387 5.5933 0.495564 5.44159C0.646742 5.28989 0.834528 5.2143 1.05892 5.21483L9.88857 5.21483L6.01696 1.34321C5.8721 1.19836 5.79625 1.01399 5.7894 0.790124C5.78256 0.566256 5.85841 0.381894 6.01696 0.237037C6.16182 0.0790123 6.34618 -5.44542e-07 6.57005 -5.24971e-07C6.79392 -5.054e-07 6.98486 0.0790124 7.14289 0.237037Z" fill="#304087"/>
</svg>
