<svg width="70" height="70" viewBox="0 0 70 70" fill="none" xmlns="http://www.w3.org/2000/svg">
<g clip-path="url(#clip0_3855_8692)">
<path opacity="0.08" d="M35 70C54.33 70 70 54.33 70 35C70 15.67 54.33 0 35 0C15.67 0 0 15.67 0 35C0 54.33 15.67 70 35 70Z" fill="black"/>
<path d="M46.9382 15.3125L50.7481 19.1224" stroke="#2F2E3D" stroke-width="1.5" stroke-linecap="round" stroke-linejoin="round"/>
<path d="M46.8206 15.3125L43.0107 19.1224" stroke="#2F2E3D" stroke-width="1.5" stroke-linecap="round" stroke-linejoin="round"/>
<path d="M39.7554 29.4714V33.4337C39.759 34.3787 40.136 35.284 40.8043 35.9522C41.4725 36.6205 42.3778 36.9975 43.3228 37.0012C44.2672 36.9975 45.1718 36.6202 45.8389 35.9518C46.506 35.2834 46.8815 34.3781 46.8833 33.4337V16.116" stroke="#2F2E3D" stroke-width="1.5" stroke-linecap="round" stroke-linejoin="round"/>
<path d="M39.7551 31.0924V27.1231C39.7532 26.1794 39.3775 25.2748 38.7102 24.6075C38.0429 23.9402 37.1383 23.5645 36.1946 23.5626C35.2508 23.5645 34.3462 23.9402 33.6789 24.6075C33.0116 25.2748 32.6359 26.1794 32.634 27.1231V38.5528" stroke="#2F2E3D" stroke-width="1.5" stroke-linecap="round" stroke-linejoin="round"/>
<path d="M28.2979 44.3578C33.0532 44.3578 36.9082 40.5028 36.9082 35.7474C36.9082 30.992 33.0532 27.137 28.2979 27.137C23.5425 27.137 19.6875 30.992 19.6875 35.7474C19.6875 40.5028 23.5425 44.3578 28.2979 44.3578Z" fill="#E9292C" stroke="#E9292C" stroke-width="1.5" stroke-linecap="round" stroke-linejoin="round"/>
<path d="M25.1941 33.3298H32.1697" stroke="#E9292C" stroke-width="1.5" stroke-linecap="round" stroke-linejoin="round"/>
<path d="M25.34 30.5659H27.2934C27.9229 30.5661 28.5312 30.7931 29.007 31.2053C29.4828 31.6175 29.7942 32.1873 29.8841 32.8103V33.503C29.8327 34.1455 29.5339 34.7429 29.0506 35.1693C28.5673 35.5958 27.9373 35.8179 27.2934 35.7889H25.3469C25.3035 35.7889 25.2606 35.7976 25.2207 35.8144C25.1807 35.8312 25.1445 35.8558 25.1142 35.8867C25.0839 35.9177 25.06 35.9544 25.0441 35.9947C25.0281 36.035 25.0204 36.0781 25.0213 36.1214C25.0239 36.2091 25.0584 36.2929 25.1183 36.357L29.9673 40.9773" stroke="white" stroke-width="1.5" stroke-linecap="round" stroke-linejoin="round"/>
<path d="M32.1703 30.552H24.4258" stroke="white" stroke-width="1.5" stroke-linecap="round" stroke-linejoin="round"/>
<path d="M33.3616 49.1513H38.9725" stroke="#2F2E3D" stroke-width="1.5" stroke-linecap="round" stroke-linejoin="round"/>
<path d="M33.3616 47.1909H38.9725" stroke="#2F2E3D" stroke-width="1.5" stroke-linecap="round" stroke-linejoin="round"/>
<path d="M33.3616 45.2306H38.9725" stroke="#2F2E3D" stroke-width="1.5" stroke-linecap="round" stroke-linejoin="round"/>
<path d="M41.217 49.1513H46.828" stroke="#2F2E3D" stroke-width="1.5" stroke-linecap="round" stroke-linejoin="round"/>
<path d="M41.217 47.1909H46.828" stroke="#2F2E3D" stroke-width="1.5" stroke-linecap="round" stroke-linejoin="round"/>
<path d="M41.217 45.2306H46.828" stroke="#2F2E3D" stroke-width="1.5" stroke-linecap="round" stroke-linejoin="round"/>
<path d="M41.217 43.2633H46.828" stroke="#2F2E3D" stroke-width="1.5" stroke-linecap="round" stroke-linejoin="round"/>
<path d="M25.7068 49.1513H31.3108" stroke="#2F2E3D" stroke-width="1.5" stroke-linecap="round" stroke-linejoin="round"/>
<path d="M25.7068 47.1909H31.3108" stroke="#2F2E3D" stroke-width="1.5" stroke-linecap="round" stroke-linejoin="round"/>
<path d="M33.3616 51.1186H38.9725" stroke="#2F2E3D" stroke-width="1.5" stroke-linecap="round" stroke-linejoin="round"/>
<path d="M41.217 51.1186H46.828" stroke="#2F2E3D" stroke-width="1.5" stroke-linecap="round" stroke-linejoin="round"/>
<path d="M25.7068 51.1186H31.3108" stroke="#2F2E3D" stroke-width="1.5" stroke-linecap="round" stroke-linejoin="round"/>
<path d="M33.3616 53.0789H38.9725" stroke="#2F2E3D" stroke-width="1.5" stroke-linecap="round" stroke-linejoin="round"/>
<path d="M41.217 53.0789H46.828" stroke="#2F2E3D" stroke-width="1.5" stroke-linecap="round" stroke-linejoin="round"/>
<path d="M25.7068 53.0789H31.3108" stroke="#2F2E3D" stroke-width="1.5" stroke-linecap="round" stroke-linejoin="round"/>
</g>
<defs>
<clipPath id="clip0_3855_8692">
<rect width="70" height="70" fill="white"/>
</clipPath>
</defs>
</svg>
