<svg width="70" height="70" viewBox="0 0 70 70" fill="none" xmlns="http://www.w3.org/2000/svg">
<g clip-path="url(#clip0_3855_8746)">
<path opacity="0.08" d="M35 70C54.33 70 70 54.33 70 35C70 15.67 54.33 0 35 0C15.67 0 0 15.67 0 35C0 54.33 15.67 70 35 70Z" fill="black"/>
<path d="M39.6508 25.6279L46.7288 36.7335C47.8519 38.499 48.4803 40.5338 48.5482 42.6252C48.6162 44.7166 48.1211 46.7879 47.1149 48.6226C46.1087 50.4572 44.6281 51.988 42.828 53.0549C41.028 54.1218 38.9744 54.6856 36.8818 54.6875H29.1894C27.094 54.6886 25.0368 54.1262 23.2334 53.0591C21.4301 51.992 19.9469 50.4595 18.9393 48.6222C17.9317 46.785 17.4368 44.7105 17.5065 42.6163C17.5761 40.522 18.2077 38.485 19.3351 36.7187L26.413 25.6131" stroke="#2F2E3D" stroke-width="1.5" stroke-linecap="round" stroke-linejoin="round"/>
<path d="M24.2068 13.856C24.6745 13.3895 25.3082 13.1274 25.9689 13.1274C26.6295 13.1274 27.2632 13.3895 27.731 13.856C28.1974 14.3222 28.8299 14.584 29.4893 14.584C30.1488 14.584 30.7812 14.3222 31.2477 13.856C31.4782 13.6244 31.7522 13.4405 32.0539 13.315C32.3557 13.1896 32.6793 13.125 33.0061 13.125C33.3329 13.125 33.6565 13.1896 33.9582 13.315C34.26 13.4405 34.534 13.6244 34.7645 13.856C34.9956 14.088 35.2702 14.272 35.5726 14.3975C35.875 14.5231 36.1992 14.5877 36.5266 14.5877C36.854 14.5877 37.1782 14.5231 37.4805 14.3975C37.7829 14.272 38.0575 14.088 38.2886 13.856C38.7564 13.3895 39.3901 13.1274 40.0507 13.1274C40.7114 13.1274 41.3451 13.3895 41.8128 13.856L39.5917 21.5707H26.4205L24.2068 13.856Z" stroke="#2F2E3D" stroke-width="1.5" stroke-linecap="round" stroke-linejoin="round"/>
<path d="M29.234 25.6279H26.4131C25.8751 25.6279 25.3591 25.4142 24.9787 25.0338C24.5983 24.6533 24.3845 24.1373 24.3845 23.5993C24.3845 23.0613 24.5983 22.5453 24.9787 22.1649C25.3591 21.7844 25.8751 21.5707 26.4131 21.5707H39.651C39.9174 21.5707 40.1812 21.6232 40.4273 21.7251C40.6734 21.8271 40.897 21.9765 41.0854 22.1649C41.2738 22.3533 41.4232 22.5769 41.5252 22.823C41.6271 23.0691 41.6796 23.3329 41.6796 23.5993C41.6796 23.8657 41.6271 24.1295 41.5252 24.3756C41.4232 24.6218 41.2738 24.8454 41.0854 25.0338C40.897 25.2221 40.6734 25.3716 40.4273 25.4735C40.1812 25.5755 39.9174 25.6279 39.651 25.6279H36.8376" stroke="#2F2E3D" stroke-width="1.5" stroke-linecap="round" stroke-linejoin="round"/>
<path d="M29.2117 47.9649H32.7358" stroke="#2F2E3D" stroke-width="1.5" stroke-linecap="round" stroke-linejoin="round"/>
<path d="M33.3948 43.7523H32.6174C32.2793 43.7479 31.9448 43.8229 31.641 43.9713C31.3371 44.1197 31.0723 44.3372 30.8678 44.6065C30.6633 44.8758 30.5248 45.1894 30.4635 45.5219C30.4022 45.8544 30.4197 46.1967 30.5147 46.5212C30.7131 47.2012 30.7556 47.9171 30.6389 48.6157C30.5223 49.3144 30.2495 49.9777 29.841 50.5563C29.8272 50.5752 29.819 50.5975 29.8173 50.6208C29.8155 50.6442 29.8203 50.6675 29.831 50.6882C29.8418 50.709 29.8581 50.7264 29.8782 50.7383C29.8982 50.7503 29.9213 50.7565 29.9446 50.7562H33.6465" stroke="#2F2E3D" stroke-width="1.5" stroke-linecap="round" stroke-linejoin="round"/>
<path d="M25.4727 37.237V46.2621" stroke="#2F2E3D" stroke-width="1.5" stroke-linecap="round" stroke-linejoin="round"/>
<path d="M23.4961 43.9447C23.48 44.2762 23.5954 44.6006 23.8172 44.8475C24.0391 45.0943 24.3494 45.2435 24.6807 45.2626H26.2651C26.5964 45.2435 26.9068 45.0943 27.1286 44.8475C27.3505 44.6006 27.4659 44.2762 27.4497 43.9447V43.0637C27.4659 42.7322 27.3505 42.4078 27.1286 42.161C26.9068 41.9142 26.5964 41.765 26.2651 41.7458H24.6807C24.3494 41.7267 24.0391 41.5775 23.8172 41.3307C23.5954 41.0839 23.48 40.7594 23.4961 40.428V39.5543C23.48 39.2229 23.5954 38.8984 23.8172 38.6516C24.0391 38.4048 24.3494 38.2556 24.6807 38.2365H26.2651C26.5964 38.2556 26.9068 38.4048 27.1286 38.6516C27.3505 38.8984 27.4659 39.2229 27.4497 39.5543" stroke="#2F2E3D" stroke-width="1.5" stroke-linecap="round" stroke-linejoin="round"/>
<path d="M31.1516 33.0613H36.3342" stroke="#2F2E3D" stroke-width="1.5" stroke-linecap="round" stroke-linejoin="round"/>
<path d="M31.255 31.0104H32.7357C33.2049 31.01 33.6582 31.1803 34.0111 31.4896C34.3639 31.7988 34.5922 32.2259 34.6533 32.6911V33.1649C34.6191 33.6435 34.3996 34.0898 34.0416 34.4091C33.6835 34.7285 33.2151 34.8957 32.7357 34.8752H31.255C31.208 34.8775 31.1627 34.8933 31.1245 34.9208C31.0863 34.9482 31.0568 34.9861 31.0396 35.0299C31.0224 35.0736 31.0182 35.1215 31.0275 35.1676C31.0369 35.2137 31.0593 35.2561 31.0921 35.2898L34.7199 38.7251" stroke="#2F2E3D" stroke-width="1.5" stroke-linecap="round" stroke-linejoin="round"/>
<path d="M36.3414 30.9956H30.5813" stroke="#2F2E3D" stroke-width="1.5" stroke-linecap="round" stroke-linejoin="round"/>
<path d="M45.3665 33.2987H43.5007V31.4181C43.5007 30.4239 43.8952 29.4702 44.5975 28.7665C45.2999 28.0628 46.2528 27.6664 47.247 27.6645C48.2406 27.6645 49.1935 28.0592 49.896 28.7617C50.5986 29.4643 50.9933 30.4172 50.9933 31.4107V33.2913H49.1275" stroke="#E9292C" stroke-width="1.5" stroke-linecap="round" stroke-linejoin="round"/>
<path d="M52.4963 42.8268H41.9979C41.8569 42.8268 41.7173 42.799 41.587 42.745C41.4568 42.6911 41.3384 42.612 41.2387 42.5123C41.1391 42.4126 41.06 42.2943 41.006 42.1641C40.9521 42.0338 40.9243 41.8942 40.9243 41.7532V33.3278C40.9243 33.0431 41.0374 32.77 41.2387 32.5687C41.4401 32.3674 41.7131 32.2543 41.9979 32.2543H52.4963C52.6379 32.2533 52.7783 32.2803 52.9094 32.3339C53.0405 32.3874 53.1597 32.4663 53.2602 32.5661C53.3607 32.6659 53.4404 32.7845 53.4948 32.9153C53.5492 33.046 53.5773 33.1862 53.5773 33.3278V41.7532C53.5773 41.8948 53.5492 42.035 53.4948 42.1658C53.4404 42.2965 53.3607 42.4152 53.2602 42.515C53.1597 42.6147 53.0405 42.6937 52.9094 42.7472C52.7783 42.8007 52.6379 42.8277 52.4963 42.8268Z" fill="#E9292C" stroke="#E9292C" stroke-width="1.5" stroke-linecap="round" stroke-linejoin="round"/>
<path d="M48.2836 36.5929C48.2865 36.8038 48.2263 37.0108 48.1108 37.1873C47.9953 37.3638 47.8296 37.5018 47.6351 37.5835C47.4407 37.6652 47.2262 37.687 47.0192 37.646C46.8123 37.605 46.6223 37.5031 46.4737 37.3534C46.3251 37.2037 46.2245 37.013 46.185 36.8058C46.1455 36.5986 46.1688 36.3843 46.2519 36.1904C46.335 35.9965 46.4741 35.8318 46.6514 35.7175C46.8288 35.6032 47.0362 35.5445 47.2471 35.5489C47.5221 35.5528 47.7846 35.6643 47.9784 35.8594C48.1721 36.0546 48.2817 36.3179 48.2836 36.5929Z" fill="#FBD2C0" stroke="white" stroke-width="1.5" stroke-linecap="round" stroke-linejoin="round"/>
<path d="M47.2471 37.6442V39.7543Z" fill="white"/>
<path d="M47.2471 37.6442V39.7543" stroke="white" stroke-width="1.5" stroke-linecap="round" stroke-linejoin="round"/>
</g>
<defs>
<clipPath id="clip0_3855_8746">
<rect width="70" height="70" fill="white"/>
</clipPath>
</defs>
</svg>
