<svg width="70" height="70" viewBox="0 0 70 70" fill="none" xmlns="http://www.w3.org/2000/svg">
<g clip-path="url(#clip0_3855_8803)">
<path opacity="0.08" d="M35 70C54.33 70 70 54.33 70 35C70 15.67 54.33 0 35 0C15.67 0 0 15.67 0 35C0 54.33 15.67 70 35 70Z" fill="black"/>
<path d="M13.125 30.8037V46.0839C13.125 46.6288 13.2325 47.1684 13.4412 47.6717C13.65 48.1751 13.956 48.6323 14.3417 49.0173C14.7273 49.4022 15.1851 49.7073 15.6889 49.9151C16.1926 50.1229 16.7324 50.2294 17.2773 50.2284H38.5972" stroke="#2F2E3D" stroke-width="1.5" stroke-linecap="round" stroke-linejoin="round"/>
<path d="M54.0739 31.7003V25.6606C54.075 25.1167 53.9687 24.5779 53.7613 24.0751C53.5539 23.5724 53.2493 23.1154 52.8651 22.7305C52.4809 22.3455 52.0245 22.0401 51.5222 21.8317C51.0198 21.6234 50.4812 21.5161 49.9373 21.5161H17.2773C16.1781 21.5161 15.1239 21.9528 14.3467 22.73C13.5695 23.5072 13.1328 24.5614 13.1328 25.6606V30.8038C13.1328 31.9029 13.5695 32.9571 14.3467 33.7343C15.1239 34.5115 16.1781 34.9482 17.2773 34.9482H18.4569" stroke="#2F2E3D" stroke-width="1.5" stroke-linecap="round" stroke-linejoin="round"/>
<path d="M23.5686 34.9482H41.6563" stroke="#2F2E3D" stroke-width="1.5" stroke-linecap="round" stroke-linejoin="round"/>
<path d="M21.0049 38.8882C20.6689 38.8892 20.3361 38.8238 20.0255 38.6957C19.715 38.5677 19.4328 38.3794 19.1953 38.1419C18.9577 37.9044 18.7695 37.6222 18.6414 37.3116C18.5133 37.0011 18.4479 36.6682 18.449 36.3323V31.4879C18.449 31.3675 18.4728 31.2482 18.5192 31.137C18.5655 31.0258 18.6334 30.9249 18.719 30.8401C18.8045 30.7553 18.906 30.6882 19.0176 30.6429C19.1292 30.5975 19.2486 30.5747 19.3691 30.5757H22.6406C22.7617 30.5736 22.882 30.5957 22.9945 30.6406C23.107 30.6855 23.2095 30.7523 23.2959 30.8373C23.3822 30.9222 23.4509 31.0235 23.4977 31.1352C23.5445 31.2469 23.5686 31.3668 23.5686 31.4879V36.3323C23.5696 36.6689 23.504 37.0024 23.3754 37.3134C23.2468 37.6245 23.0579 37.907 22.8195 38.1447C22.5812 38.3823 22.2981 38.5704 21.9866 38.698C21.6751 38.8256 21.3414 38.8903 21.0049 38.8882Z" stroke="#2F2E3D" stroke-width="1.5" stroke-linecap="round" stroke-linejoin="round"/>
<path d="M18.4492 33.682V36.3323C18.43 36.6793 18.4817 37.0266 18.6012 37.353C18.7208 37.6794 18.9056 37.978 19.1445 38.2305C19.3833 38.4829 19.6712 38.6841 19.9904 38.8215C20.3097 38.959 20.6536 39.0299 21.0012 39.0299C21.3488 39.0299 21.6927 38.959 22.0119 38.8215C22.3312 38.6841 22.619 38.4829 22.8579 38.2305C23.0967 37.978 23.2816 37.6794 23.4011 37.353C23.5207 37.0266 23.5724 36.6793 23.5531 36.3323V33.682H18.4492Z" stroke="#2F2E3D" stroke-width="1.5" stroke-linecap="round" stroke-linejoin="round"/>
<path d="M42.0967 21.5161V17.8435C42.0967 16.5921 41.5995 15.3919 40.7146 14.507C39.8297 13.6221 38.6296 13.125 37.3781 13.125H29.8128C28.5613 13.125 27.3612 13.6221 26.4763 14.507C25.5914 15.3919 25.0942 16.5921 25.0942 17.8435V21.5161" stroke="#2F2E3D" stroke-width="1.5" stroke-linecap="round" stroke-linejoin="round"/>
<path d="M27.8782 21.5161V17.8435C27.8782 17.5894 27.9282 17.3379 28.0254 17.1032C28.1227 16.8684 28.2652 16.6552 28.4448 16.4755C28.6244 16.2959 28.8377 16.1534 29.0724 16.0562C29.3071 15.9589 29.5587 15.9089 29.8128 15.9089H37.3939C37.9015 15.9172 38.3855 16.1246 38.7416 16.4865C39.0976 16.8485 39.2971 17.3358 39.297 17.8435V21.5161" stroke="#2F2E3D" stroke-width="1.5" stroke-linecap="round" stroke-linejoin="round"/>
<path d="M53.382 40.9407L56.7243 46.1862C57.2652 47.0198 57.5703 47.9844 57.6074 48.9775C57.6444 49.9705 57.4119 50.9551 56.9346 51.8268C56.4572 52.6984 55.7528 53.4245 54.8961 53.9282C54.0394 54.4318 53.0624 54.6942 52.0686 54.6874H48.4354C47.4416 54.6942 46.4646 54.4318 45.6079 53.9282C44.7512 53.4245 44.0468 52.6984 43.5694 51.8268C43.0921 50.9551 42.8596 49.9705 42.8966 48.9775C42.9337 47.9844 43.2388 47.0198 43.7798 46.1862L47.1614 40.9407" fill="#E9292C"/>
<path d="M53.382 40.9407L56.7243 46.1862C57.2652 47.0198 57.5703 47.9844 57.6074 48.9775C57.6444 49.9705 57.4119 50.9551 56.9346 51.8268C56.4572 52.6984 55.7528 53.4245 54.8961 53.9282C54.0394 54.4318 53.0624 54.6942 52.0686 54.6874H48.4354C47.4416 54.6942 46.4646 54.4318 45.6079 53.9282C44.7512 53.4245 44.0468 52.6984 43.5694 51.8268C43.0921 50.9551 42.8596 49.9705 42.8966 48.9775C42.9337 47.9844 43.2388 47.0198 43.7798 46.1862L47.1614 40.9407" stroke="#E9292C" stroke-width="1.5" stroke-linecap="round" stroke-linejoin="round"/>
<path d="M46.0762 35.3807C46.1852 35.2704 46.315 35.1828 46.4581 35.123C46.6012 35.0632 46.7547 35.0324 46.9098 35.0324C47.0649 35.0324 47.2184 35.0632 47.3615 35.123C47.5046 35.1828 47.6344 35.2704 47.7434 35.3807C47.8522 35.4899 47.9816 35.5765 48.1239 35.6355C48.2663 35.6946 48.4189 35.725 48.5731 35.725C48.7272 35.725 48.8798 35.6946 49.0222 35.6355C49.1646 35.5765 49.2939 35.4899 49.4027 35.3807C49.5116 35.2716 49.6409 35.185 49.7833 35.1259C49.9256 35.0668 50.0783 35.0364 50.2324 35.0364C50.3866 35.0364 50.5392 35.0668 50.6816 35.1259C50.8239 35.185 50.9532 35.2716 51.0621 35.3807C51.2843 35.5997 51.5837 35.7225 51.8957 35.7225C52.2077 35.7225 52.5071 35.5997 52.7293 35.3807C52.8383 35.2704 52.9681 35.1828 53.1112 35.123C53.2543 35.0632 53.4078 35.0324 53.5629 35.0324C53.718 35.0324 53.8715 35.0632 54.0146 35.123C54.1577 35.1828 54.2875 35.2704 54.3965 35.3807L53.3506 39.0297H47.1614L46.0762 35.3807Z" fill="#E9292C" stroke="#E9292C" stroke-width="1.5" stroke-linecap="round" stroke-linejoin="round"/>
<path d="M48.4589 40.9407H47.1613C46.9069 40.9407 46.6628 40.8396 46.4829 40.6597C46.303 40.4798 46.2019 40.2358 46.2019 39.9813C46.204 39.7282 46.306 39.4862 46.4857 39.308C46.6654 39.1297 46.9082 39.0297 47.1613 39.0297H53.4527C53.7058 39.0297 53.9487 39.1297 54.1284 39.308C54.3081 39.4862 54.4101 39.7282 54.4121 39.9813C54.4121 40.2358 54.3111 40.4798 54.1311 40.6597C53.9512 40.8396 53.7072 40.9407 53.4527 40.9407H52.0529" fill="#E9292C"/>
<path d="M48.4589 40.9407H47.1613C46.9069 40.9407 46.6628 40.8396 46.4829 40.6597C46.303 40.4798 46.2019 40.2358 46.2019 39.9813C46.204 39.7282 46.306 39.4862 46.4857 39.308C46.6654 39.1297 46.9082 39.0297 47.1613 39.0297H53.4527C53.7058 39.0297 53.9487 39.1297 54.1284 39.308C54.3081 39.4862 54.4101 39.7282 54.4121 39.9813C54.4121 40.2358 54.3111 40.4798 54.1311 40.6597C53.9512 40.8396 53.7072 40.9407 53.4527 40.9407H52.0529" stroke="#E9292C" stroke-width="1.5" stroke-linecap="round" stroke-linejoin="round"/>
<path d="M48.1365 46.9804H53.0202Z" fill="#FBD2C0"/>
<path d="M48.1365 46.9804H53.0202" stroke="white" stroke-width="1.5" stroke-linecap="round" stroke-linejoin="round"/>
<path d="M48.2388 45.0458H49.6072C50.0478 45.0454 50.4736 45.2045 50.8061 45.4936C51.1386 45.7827 51.3552 46.1823 51.416 46.6187V47.0669C51.3759 47.5119 51.1652 47.9242 50.8281 48.2173C50.4909 48.5105 50.0534 48.6619 49.6072 48.6398H48.2388C48.2085 48.6397 48.1786 48.6459 48.1508 48.6579C48.123 48.67 48.098 48.6876 48.0773 48.7097C48.0566 48.7319 48.0407 48.758 48.0306 48.7866C48.0206 48.8152 48.0165 48.8455 48.0186 48.8757C48.0177 48.9056 48.0236 48.9353 48.0358 48.9625C48.0481 48.9898 48.0664 49.0139 48.0894 49.033L51.5025 52.2652" stroke="white" stroke-width="1.5" stroke-linecap="round" stroke-linejoin="round"/>
<path d="M53.0203 45.038H47.6018Z" fill="#FBD2C0"/>
<path d="M53.0203 45.038H47.6018" stroke="white" stroke-width="1.5" stroke-linecap="round" stroke-linejoin="round"/>
</g>
<defs>
<clipPath id="clip0_3855_8803">
<rect width="70" height="70" fill="white"/>
</clipPath>
</defs>
</svg>
