<svg width="21" height="21" viewBox="0 0 21 21" fill="none" xmlns="http://www.w3.org/2000/svg">
<path d="M17.5175 2.93793C16.5961 2.00283 15.4986 1.26142 14.289 0.756931C13.0794 0.252446 11.7819 -0.00501205 10.4723 -0.000428131C4.98483 -0.000428131 0.51247 4.49293 0.51247 10.0061C0.51247 11.7732 0.974781 13.4897 1.8391 15.0044L0.432068 20.1944L5.70845 18.801C7.16574 19.5987 8.80393 20.0228 10.4723 20.0228C15.9597 20.0228 20.4321 15.5294 20.4321 10.0162C20.4321 7.34041 19.3969 4.82615 17.5175 2.93793ZM10.4723 18.3264C8.98483 18.3264 7.52754 17.9225 6.25116 17.1652L5.94966 16.9835L2.81398 17.8114L3.64815 14.7418L3.44714 14.4288C2.62076 13.103 2.18196 11.5705 2.18081 10.0061C2.18081 5.42189 5.8994 1.68584 10.4622 1.68584C12.6733 1.68584 14.7537 2.55422 16.3115 4.12942C17.0828 4.90083 17.6941 5.81838 18.1098 6.8289C18.5256 7.83941 18.7376 8.92278 18.7336 10.0162C18.7537 14.6005 15.0351 18.3264 10.4723 18.3264ZM15.015 12.1064C14.7637 11.9852 13.5376 11.3794 13.3165 11.2885C13.0853 11.2077 12.9245 11.1673 12.7537 11.4097C12.5828 11.6621 12.1105 12.2276 11.9698 12.3891C11.8291 12.5608 11.6783 12.581 11.427 12.4497C11.1758 12.3285 10.3718 12.0559 9.42704 11.2077C8.68332 10.5413 8.19086 9.7234 8.04011 9.47097C7.8994 9.21853 8.02001 9.08726 8.15066 8.956C8.26121 8.84492 8.40192 8.66317 8.52252 8.52181C8.64312 8.38044 8.69337 8.26937 8.77378 8.10781C8.85418 7.93615 8.81398 7.79479 8.75367 7.67362C8.69337 7.55245 8.19086 6.32057 7.98986 5.81569C7.78885 5.33102 7.5778 5.3916 7.42704 5.3815H6.94463C6.77378 5.3815 6.51247 5.44209 6.28131 5.69452C6.06021 5.94696 5.41699 6.55281 5.41699 7.78469C5.41699 9.01658 6.31146 10.2081 6.43207 10.3696C6.55267 10.5413 8.19086 13.0657 10.6833 14.1461C11.2763 14.4086 11.7386 14.5601 12.1004 14.6711C12.6934 14.863 13.2361 14.8327 13.6682 14.7721C14.1507 14.7014 15.1456 14.1663 15.3466 13.5806C15.5577 12.995 15.5577 12.5002 15.4873 12.3891C15.417 12.2781 15.2662 12.2276 15.015 12.1064Z" fill="#304087"/>
</svg>
