<svg width="70" height="70" viewBox="0 0 70 70" fill="none" xmlns="http://www.w3.org/2000/svg">
<g clip-path="url(#clip0_3854_8543)">
<path opacity="0.08" d="M35 70C54.33 70 70 54.33 70 35C70 15.67 54.33 0 35 0C15.67 0 0 15.67 0 35C0 54.33 15.67 70 35 70Z" fill="black"/>
<path d="M51.8621 10.9375V15.6811Z" fill="#E9292C"/>
<path d="M51.8621 10.9375V15.6811" stroke="#2F2E3D" stroke-width="1.7" stroke-linecap="round" stroke-linejoin="round"/>
<path d="M54.2007 13.3095H49.457Z" fill="#E9292C"/>
<path d="M54.2007 13.3095H49.457" stroke="#2F2E3D" stroke-width="1.7" stroke-linecap="round" stroke-linejoin="round"/>
<path d="M56.4459 17.6808H53.6279Z" fill="#E9292C"/>
<path d="M56.4459 17.6808H53.6279" stroke="#2F2E3D" stroke-width="1.7" stroke-linecap="round" stroke-linejoin="round"/>
<path d="M55.0156 16.2361V18.9935Z" fill="#E9292C"/>
<path d="M55.0156 16.2361V18.9935" stroke="#2F2E3D" stroke-width="1.7" stroke-linecap="round" stroke-linejoin="round"/>
<path d="M39.0391 32.3791C38.9234 32.3794 38.8081 32.3646 38.6962 32.3353C38.198 32.1399 37.7777 31.7862 37.4999 31.3287C37.3296 31.0672 37.1148 30.8376 36.8653 30.6503C36.5719 30.5229 36.2582 30.4488 35.9388 30.4314C35.408 30.4215 34.8953 30.2369 34.4799 29.9062C34.1497 29.4906 33.9651 28.978 33.9547 28.4473C33.9376 28.1295 33.8609 27.8177 33.7286 27.5282C33.5457 27.2773 33.3182 27.0621 33.0575 26.8935C32.5999 26.6158 32.2463 26.1955 32.0508 25.6972C31.9704 25.1802 32.0654 24.6512 32.3207 24.1945C32.4643 23.9039 32.5556 23.5903 32.5906 23.2681C32.5606 22.9388 32.4717 22.6176 32.328 22.3198C32.0823 21.8756 31.9875 21.3636 32.0581 20.8609C32.2536 20.3626 32.6072 19.9423 33.0648 19.6645C33.3255 19.4959 33.553 19.2808 33.7359 19.0299C33.8682 18.7404 33.9449 18.4286 33.962 18.1108C33.9724 17.5801 34.157 17.0675 34.4872 16.6519C34.9025 16.3211 35.4153 16.1365 35.9461 16.1266C36.2655 16.1093 36.5792 16.0352 36.8726 15.9078C37.1221 15.7205 37.3369 15.4909 37.5072 15.2294C37.7829 14.7701 38.2038 14.4158 38.7035 14.2227C39.2267 14.1267 39.7669 14.2116 40.2354 14.4635C40.526 14.607 40.8396 14.6984 41.1618 14.7334C41.486 14.6962 41.8016 14.605 42.0955 14.4635C42.5527 14.2093 43.0805 14.1119 43.5982 14.1863C44.0821 14.3934 44.4881 14.7483 44.7581 15.2002C44.9286 15.4595 45.1434 15.6866 45.3927 15.8713C45.6834 16.0003 45.9945 16.0768 46.3118 16.0975C46.8429 16.1063 47.356 16.291 47.7708 16.6227C48.1044 17.0364 48.2894 17.5502 48.296 18.0816C48.3157 18.399 48.3923 18.7104 48.5221 19.0007C48.7066 19.2523 48.9337 19.4695 49.1932 19.6427C49.6556 19.9247 50.01 20.3537 50.1999 20.8609C50.2683 21.3635 50.1737 21.8749 49.93 22.3198C49.7841 22.6126 49.6902 22.9285 49.6528 23.2535C49.6902 23.5785 49.7841 23.8944 49.93 24.1872C50.1816 24.6426 50.2764 25.168 50.1999 25.6826C50.0039 26.1828 49.6472 26.6037 49.1859 26.8789C48.9264 27.0521 48.6993 27.2693 48.5148 27.5209C48.3733 27.8113 48.2867 28.1254 48.2595 28.4473C48.2564 28.9793 48.071 29.4943 47.7343 29.9062C47.319 30.2369 46.8062 30.4215 46.2754 30.4314C45.9581 30.4521 45.6469 30.5286 45.3562 30.6576C45.1053 30.8405 44.8902 31.0679 44.7216 31.3287C44.4422 31.7865 44.0227 32.142 43.5253 32.3426C43.0075 32.417 42.4797 32.3196 42.0226 32.0654C41.7407 31.9272 41.4372 31.8384 41.1253 31.8028C40.8024 31.8343 40.4882 31.9258 40.1989 32.0727C39.8353 32.2489 39.4419 32.3553 39.0391 32.3864V32.3791Z" fill="#E9292C" stroke="#E9292C" stroke-width="1.7" stroke-miterlimit="10"/>
<path d="M41.2324 36.8138L53.4947 33.1665C54.8077 32.8747 55.1652 33.4656 55.3548 33.9689C55.5445 34.4723 55.3986 35.2163 54.4795 35.8801L41.6919 43.4301C41.0629 43.9079 40.2935 44.1644 39.5035 44.1595H28.9117L24.5349 39.9213" stroke="#2F2E3D" stroke-width="1.7" stroke-linecap="round" stroke-linejoin="round"/>
<path d="M23.4565 38.4775C23.9234 37.6021 26.3744 33.5463 30.4813 33.5463C32.0981 33.6573 33.6772 34.0861 35.128 34.8083C35.2 34.8369 35.2767 34.8517 35.3541 34.852H39.3516C41.8172 34.852 41.9193 37.9814 39.2786 37.9814H31.5755" stroke="#2F2E3D" stroke-width="1.7" stroke-linecap="round" stroke-linejoin="round"/>
<path d="M20.0992 46.8447L25.6942 52.4397C25.7478 52.4936 25.8114 52.5363 25.8815 52.5654C25.9516 52.5945 26.0268 52.6095 26.1027 52.6095C26.1786 52.6095 26.2538 52.5945 26.3239 52.5654C26.394 52.5363 26.4577 52.4936 26.5112 52.4397L29.7354 49.2155C29.7893 49.162 29.832 49.0983 29.8611 49.0282C29.8902 48.9581 29.9052 48.8829 29.9052 48.807C29.9052 48.7311 29.8902 48.6559 29.8611 48.5858C29.832 48.5157 29.7893 48.4521 29.7354 48.3985L29.2905 47.9827L30.4941 46.7791C30.5479 46.7255 30.5906 46.6619 30.6197 46.5918C30.6489 46.5217 30.6639 46.4465 30.6639 46.3706C30.6639 46.2947 30.6489 46.2195 30.6197 46.1494C30.5906 46.0793 30.5479 46.0156 30.4941 45.9621L29.3124 44.7731L23.4766 38.9373L21.9958 37.3982C21.9423 37.3444 21.8786 37.3017 21.8085 37.2725C21.7384 37.2434 21.6632 37.2284 21.5873 37.2284C21.5114 37.2284 21.4362 37.2434 21.3661 37.2725C21.296 37.3017 21.2324 37.3444 21.1788 37.3982L19.9387 38.6018L19.5229 38.186C19.47 38.1324 19.407 38.0899 19.3375 38.0608C19.268 38.0318 19.1934 38.0168 19.1181 38.0168C19.0428 38.0168 18.9682 38.0318 18.8987 38.0608C18.8292 38.0899 18.7661 38.1324 18.7132 38.186L15.4817 41.4175C15.4281 41.4705 15.3855 41.5335 15.3565 41.603C15.3275 41.6725 15.3125 41.7471 15.3125 41.8224C15.3125 41.8977 15.3275 41.9723 15.3565 42.0418C15.3855 42.1113 15.4281 42.1743 15.4817 42.2272L18.3485 45.0649" stroke="#2F2E3D" stroke-width="1.7" stroke-linecap="round" stroke-linejoin="round"/>
<path d="M19.9368 38.6017L29.3177 47.9826" stroke="#2F2E3D" stroke-width="1.7" stroke-linecap="round" stroke-linejoin="round"/>
</g>
<defs>
<clipPath id="clip0_3854_8543">
<rect width="70" height="70" fill="white"/>
</clipPath>
</defs>
</svg>
