<svg id="Layer_1" data-name="Layer 1" xmlns="http://www.w3.org/2000/svg" viewBox="0 0 60 60"><defs><style>.cls-1{fill:none;stroke:#28387d;}.cls-1,.cls-3{stroke-linecap:round;stroke-linejoin:round;}.cls-2,.cls-3{fill:#fbd2c0;stroke:#e9292c;}.cls-2{stroke-miterlimit:10;}</style></defs><title>Mobile Icons</title><path class="cls-1" d="M26.54,36.42H17.61a1.17,1.17,0,0,1-1.18-1.17v-7A1.18,1.18,0,0,1,17.61,27h8.93a1.17,1.17,0,0,1,1.17,1.18v7.05A1.17,1.17,0,0,1,26.54,36.42Z"/><path class="cls-1" d="M16.43,46.19H39.32"/><path class="cls-1" d="M16.43,49.15H27.88"/><path class="cls-1" d="M29.47,40.6v1.88"/><path class="cls-1" d="M33,40.6v1.88"/><path class="cls-1" d="M36.58,40.6v1.88"/><path class="cls-1" d="M40.14,40.6v1.88"/><path class="cls-1" d="M46.06,40.6v1.88"/><path class="cls-1" d="M49.62,40.6v1.88"/><path class="cls-1" d="M53.17,40.6v1.88"/><path class="cls-1" d="M16.43,40.6v1.88"/><path class="cls-1" d="M20,40.6v1.88"/><path class="cls-1" d="M23.54,40.6v1.88"/><path class="cls-1" d="M22.07,27v9.4"/><path class="cls-1" d="M22.07,31.72h5.64"/><path class="cls-1" d="M56.67,23A4.71,4.71,0,0,1,59,27.1v22a4.69,4.69,0,0,1-4.69,4.69h-39a4.69,4.69,0,0,1-4.69-4.69v-22a4.69,4.69,0,0,1,4.69-4.69H29.81"/><path class="cls-1" d="M8,42.59H5.69A4.69,4.69,0,0,1,1,37.9v-22a4.69,4.69,0,0,1,4.69-4.69H28.42"/><line class="cls-1" x1="1" y1="17.67" x2="27.2" y2="17.7"/><line class="cls-1" x1="1" y1="25.23" x2="8.28" y2="25.26"/><path class="cls-2" d="M40.93,27.86a1.76,1.76,0,0,1-.46-.06,3.3,3.3,0,0,1-1.64-1.38A3.5,3.5,0,0,0,38,25.5a3.43,3.43,0,0,0-1.26-.31,3.31,3.31,0,0,1-2-.72,3.32,3.32,0,0,1-.72-2,3.7,3.7,0,0,0-.31-1.26,3.62,3.62,0,0,0-.92-.87,3.42,3.42,0,0,1-1.39-1.64,3.27,3.27,0,0,1,.37-2.06,3.8,3.8,0,0,0,.38-1.27,3.79,3.79,0,0,0-.38-1.28A3.27,3.27,0,0,1,31.36,12a3.35,3.35,0,0,1,1.39-1.63,3.85,3.85,0,0,0,.92-.88A3.7,3.7,0,0,0,34,8.26a3.25,3.25,0,0,1,.72-2,3.3,3.3,0,0,1,2-.71A3.64,3.64,0,0,0,38,5.24a3.7,3.7,0,0,0,.88-.93,3.36,3.36,0,0,1,1.64-1.38,3.25,3.25,0,0,1,2.05.37,3.78,3.78,0,0,0,1.28.37,3.84,3.84,0,0,0,1.28-.37,3.26,3.26,0,0,1,2.05-.38,3.38,3.38,0,0,1,1.64,1.39,3.5,3.5,0,0,0,.88.92,3.59,3.59,0,0,0,1.26.31,3.31,3.31,0,0,1,2,.72,3.31,3.31,0,0,1,.72,2,3.39,3.39,0,0,0,.31,1.26,3.35,3.35,0,0,0,.92.88A3.38,3.38,0,0,1,56.24,12a3.25,3.25,0,0,1-.38,2.05,3.84,3.84,0,0,0-.37,1.28,3.78,3.78,0,0,0,.37,1.28,3.26,3.26,0,0,1,.38,2.05,3.38,3.38,0,0,1-1.39,1.64,3.5,3.5,0,0,0-.92.88,3.64,3.64,0,0,0-.31,1.26,3.31,3.31,0,0,1-.72,2,3.31,3.31,0,0,1-2,.72,3.59,3.59,0,0,0-1.26.31,3.66,3.66,0,0,0-.88.92,3.32,3.32,0,0,1-1.64,1.39,3.25,3.25,0,0,1-2.05-.37,3.62,3.62,0,0,0-1.28-.37,3.78,3.78,0,0,0-1.28.37,4.23,4.23,0,0,1-1.59.43Z"/><line class="cls-3" x1="46.35" y1="9.51" x2="41.55" y2="20.97"/><ellipse class="cls-3" cx="39.49" cy="11.45" rx="2.12" ry="2.47"/><ellipse class="cls-3" cx="48.11" cy="19.28" rx="2.12" ry="2.47"/></svg>