<svg id="Layer_1" data-name="Layer 1" xmlns="http://www.w3.org/2000/svg" viewBox="0 0 60 60"><defs><style>.cls-1{fill:none;stroke:#28387d;}.cls-1,.cls-2{stroke-linecap:round;stroke-linejoin:round;}.cls-2{fill:#fbd2c0;stroke:#e9292c;}.cls-3{fill:#e9292c;}</style></defs><title>Mobile Icons</title><path class="cls-1" d="M35.08,36.31c-.55-.18-1.1-.38-1.64-.6"/><path class="cls-1" d="M10.74,53.37H5.52a4,4,0,0,1,0-8V39.4A12.69,12.69,0,0,1,18.21,26.7h3.08a12.7,12.7,0,0,1,12.15,9c.06.2.11.4.16.6"/><path class="cls-1" d="M34,53.37H14.67"/><path class="cls-1" d="M23,15.52a3.14,3.14,0,0,0-3.25,3.13,3.14,3.14,0,0,0-3.25-3.13,3.18,3.18,0,0,0-3,3.21v1.7a6.27,6.27,0,0,0,12.54,0v-1.7A3.19,3.19,0,0,0,23,15.52Z"/><path class="cls-1" d="M41,53.37H28.9a2.85,2.85,0,1,1,0-5.69H41"/><path class="cls-1" d="M41,47.68H28.9a2.84,2.84,0,1,1,0-5.68H41"/><path class="cls-1" d="M48.65,47.68H36.51a2.85,2.85,0,0,0,0,5.69H48.65a2.85,2.85,0,1,0,0-5.69Z"/><path class="cls-1" d="M48.65,42H36.51a2.84,2.84,0,0,0,0,5.68H48.65a2.84,2.84,0,1,0,0-5.68Z"/><path class="cls-1" d="M41,36.31H28.9a2.85,2.85,0,0,0-2.85,2.84h0A2.86,2.86,0,0,0,28.9,42H41a2.85,2.85,0,0,0,2.84-2.85h0A2.84,2.84,0,0,0,41,36.31Z"/><path class="cls-1" d="M19.76,35.73,14,47.62"/><path class="cls-1" d="M15.43,37.74a2.56,2.56,0,1,1-2.56-2.57A2.56,2.56,0,0,1,15.43,37.74Z"/><path class="cls-1" d="M23.23,45.86a2.55,2.55,0,1,1-2.55-2.56A2.56,2.56,0,0,1,23.23,45.86Z"/><path class="cls-1" d="M30.19,25.55a15.6,15.6,0,0,1-.42-1.63A14.5,14.5,0,1,1,47.29,35.26"/><path class="cls-2" d="M55.05,21.13a11,11,0,1,1-11-11A11,11,0,0,1,55.05,21.13Z"/><path class="cls-3" d="M37.75,26.45a.7.7,0,0,1,1,0,.69.69,0,1,1-1,1,.7.7,0,0,1,0-1"/><path class="cls-3" d="M49.37,14.83a.7.7,0,0,1,1,0,.69.69,0,1,1-1,1,.7.7,0,0,1,0-1"/><path class="cls-3" d="M38.72,14.83a.69.69,0,1,1-1,1,.69.69,0,0,1,1-1"/><path class="cls-3" d="M50.34,26.45a.69.69,0,1,1-1,1,.69.69,0,0,1,1-1"/><path class="cls-2" d="M44.05,12.91v1.37"/><path class="cls-2" d="M44.05,28v1.37"/><path class="cls-2" d="M35.83,21.13H37.2"/><path class="cls-2" d="M50.89,21.13h1.37"/><path class="cls-2" d="M44.05,17v4.11l4.11,4.11"/></svg>