<svg id="Layer_1" data-name="Layer 1" xmlns="http://www.w3.org/2000/svg" viewBox="0 0 60 60"><defs><style>.cls-1{fill:none;}.cls-1,.cls-3{stroke:#28387d;}.cls-1,.cls-2,.cls-3{stroke-linecap:round;stroke-linejoin:round;}.cls-2{fill:#fbd2c0;stroke:#e9292c;}.cls-3{fill:#fff;}</style></defs><title>Mobile Icons</title><line class="cls-1" x1="26.09" y1="1.46" x2="26.09" y2="52.14"/><path class="cls-1" d="M29.78,51.88a26.38,26.38,0,0,1-3.69.26A25.34,25.34,0,1,1,51.43,26.8a25.73,25.73,0,0,1-.4,4.51"/><path class="cls-1" d="M26.09,52.14c-7.59,0-13.74-11.34-13.74-25.34S18.5,1.46,26.09,1.46,39.83,12.81,39.83,26.8"/><path class="cls-1" d="M28.54,40.33c-5.19-.36-11.6.78-18.81,5.33"/><path class="cls-1" d="M9.73,8S23.2,20.1,42.45,8"/><line class="cls-1" x1="0.8" y1="26.8" x2="51.38" y2="26.8"/><path class="cls-2" d="M45.48,46.72a13.3,13.3,0,0,1,4.7,1.41,8.45,8.45,0,0,1,3.51,3.09A9.4,9.4,0,0,1,55.13,56,34.76,34.76,0,0,1,45,57.79H42.31A34.76,34.76,0,0,1,32.17,56a9.4,9.4,0,0,1,1.44-4.79,8.45,8.45,0,0,1,3.51-3.09,13.3,13.3,0,0,1,4.7-1.41"/><path class="cls-2" d="M51.66,57V54.15"/><path class="cls-2" d="M35.64,57V54.15"/><path class="cls-2" d="M50,41.7a2,2,0,0,0,1.54-2.88H50"/><path class="cls-2" d="M37.24,41.7a1.94,1.94,0,0,1-1.47-2.88h1.45"/><path class="cls-2" d="M46.72,35.16l-4.2-.73L40,35l-2.32,1.15-.48,2.63h0v.06l0,0,0,.66v1.71c0,3.18,3.19,5.79,6.4,5.81a6.59,6.59,0,0,0,3.68-1.15A5.74,5.74,0,0,0,50,41.22v-2.4Z"/><path class="cls-2" d="M50,38.82c.87-9.77-12.8-8.91-12.8-1.46v1.46a2,2,0,0,0,2.34-2.07A7.13,7.13,0,0,0,45,38.82Z"/><path class="cls-3" d="M19.93,27.13A7.17,7.17,0,1,1,12.76,20,7.17,7.17,0,0,1,19.93,27.13Z"/><path class="cls-3" d="M15.07,30.09a3.07,3.07,0,0,1-1.46.34,3.31,3.31,0,1,1,0-6.61,3.2,3.2,0,0,1,1.46.34"/><path class="cls-3" d="M8.86,28.36h4.75"/><path class="cls-3" d="M8.86,25.9h4.75"/><path class="cls-3" d="M33.2,13.15A7.17,7.17,0,1,1,26,6,7.17,7.17,0,0,1,33.2,13.15Z"/><path class="cls-3" d="M26,8.3V18"/><path class="cls-3" d="M23.91,15.5a1.35,1.35,0,0,0,1.27,1.42h1.7a1.35,1.35,0,0,0,1.27-1.42v-.94a1.35,1.35,0,0,0-1.27-1.41h-1.7a1.35,1.35,0,0,1-1.27-1.42v-.94a1.35,1.35,0,0,1,1.27-1.42h1.7a1.35,1.35,0,0,1,1.27,1.42"/></svg>