<svg id="Layer_1" data-name="Layer 1" xmlns="http://www.w3.org/2000/svg" viewBox="0 0 60 60"><defs><style>.cls-1,.cls-3{fill:none;}.cls-1{stroke:#28387d;}.cls-1,.cls-2,.cls-3{stroke-linecap:round;stroke-linejoin:round;}.cls-2{fill:#fbd2c0;}.cls-2,.cls-3{stroke:#e9292c;}</style></defs><title>Mobile Icons</title><path class="cls-1" d="M51.15,6.39a5,5,0,1,0-.08,3.81"/><circle class="cls-1" cx="46.52" cy="8.2" r="1.9"/><path class="cls-1" d="M22.46,2.85l1.07,2A.46.46,0,0,0,23.7,5l2,1.07a.44.44,0,0,1,0,.76l-2,1.07a.46.46,0,0,0-.17.17L22.46,10a.43.43,0,0,1-.76,0L20.63,8.05a.4.4,0,0,0-.17-.17L18.51,6.81a.43.43,0,0,1,0-.76L20.46,5a.4.4,0,0,0,.17-.17l1.07-2A.44.44,0,0,1,22.46,2.85ZM18.34,14.08v.68m0,3.47v.68M15.92,16.5h.64m3.56,0h.64M32.76.75v.68m0,3.48v.68M30.35,3.17H31m3.57,0h.63"/><circle class="cls-2" cx="32.76" cy="17.98" r="8.54"/><path class="cls-3" d="M29.68,15.58H36.6"/><path class="cls-3" d="M29.83,12.84h1.94a2.59,2.59,0,0,1,2.56,2.24v.64A2.46,2.46,0,0,1,31.77,18H29.83a.33.33,0,0,0-.22.56l4.84,4.58"/><path class="cls-3" d="M36.6,12.83H28.92"/><path class="cls-1" d="M47.08,37.84A3.81,3.81,0,0,0,42,32.21"/><path class="cls-1" d="M46.31,36.55a11.23,11.23,0,0,1,1.9,6.19A12.08,12.08,0,0,1,44,51.65l-.72,6.47A1.27,1.27,0,0,1,42,59.25H39.19a1.27,1.27,0,0,1-1.26-1.13l-.3-2.73a23.88,23.88,0,0,1-14.43.39l-.26,2.34a1.27,1.27,0,0,1-1.26,1.13H18.87a1.27,1.27,0,0,1-1.26-1.13L17,52.78a14.67,14.67,0,0,1-4.18-4.6,1.91,1.91,0,0,0-1.67-1H10.12a1.27,1.27,0,0,1-1.27-1.27V39.57a1.27,1.27,0,0,1,1.27-1.27h1.05a1.92,1.92,0,0,0,1.67-1A14.66,14.66,0,0,1,17,32.72a1.84,1.84,0,0,0,.77-1.51V26.88a1.26,1.26,0,0,1,1.81-1.15,11,11,0,0,1,5,5.37"/><path class="cls-1" d="M26.4,29a24.19,24.19,0,0,1,3.4-.24c6.17,0,11.64,2.31,15,5.84"/><circle class="cls-1" cx="18.37" cy="38.93" r="1.27"/><path class="cls-1" d="M28.53,32.22c.42,0,.84,0,1.27,0a21,21,0,0,1,5.71.77"/></svg>